<?xml version="1.0" encoding="iso-8859-1"?>
<!-- Generator: Adobe Illustrator 17.1.0, SVG Export Plug-In . SVG Version: 6.00 Build 0)  -->
<!DOCTYPE svg PUBLIC "-//W3C//DTD SVG 1.1//EN" "http://www.w3.org/Graphics/SVG/1.1/DTD/svg11.dtd">
<svg version="1.1" id="Artwork" xmlns="http://www.w3.org/2000/svg" xmlns:xlink="http://www.w3.org/1999/xlink" x="0px" y="0px"
	 width="256px" height="256px" viewBox="0 0 256 256" style="enable-background:new 0 0 256 256;" xml:space="preserve">
<g>
	<path style="fill:#999999;" d="M199.976,103.848c-18.368-22.788-41.758-41.729-62.568-50.667
		c-14.298-6.141-29.442-9.664-41.547-9.664c-6.175,0-11.665,0.883-16.316,2.624C67.549,50.633,57.27,60.258,48.994,74.749
		c-7.083,12.404-12.357,27.94-15.249,44.927c-2.702,15.868-3.12,32.12-1.177,45.763c2.108,14.796,6.787,25.593,13.533,31.224
		c12.222,10.201,34.019,15.819,61.378,15.82c0.003,0,0.003,0,0.006,0c25.041,0,51.487-4.845,72.553-13.291
		c24.403-9.785,39.583-23.324,43.898-39.153C227.311,147.655,218.354,126.649,199.976,103.848z M217.424,158.263
		c-3.683,13.513-17.853,25.824-39.897,34.663c-20.298,8.139-45.826,12.807-70.041,12.807c0,0-0.004,0-0.006,0
		c-25.407-0.001-46.202-5.195-57.053-14.252c-5.365-4.479-9.334-14.065-11.176-26.994c-1.847-12.969-1.44-28.481,1.148-43.677
		c2.762-16.217,7.761-30.987,14.457-42.713c7.472-13.086,16.575-21.71,27.056-25.633c3.892-1.457,8.585-2.196,13.95-2.196
		c11.223,0,25.395,3.323,38.883,9.116c19.846,8.524,42.267,26.73,59.976,48.701C211.235,128.574,220.147,148.271,217.424,158.263z"
		/>
	<path style="fill:#999999;" d="M102.392,87.662c-19.106,0-34.65,15.544-34.65,34.65s15.544,34.65,34.65,34.65
		s34.65-15.544,34.65-34.65S121.498,87.662,102.392,87.662z M102.392,150.212c-15.384,0-27.9-12.516-27.9-27.9
		s12.516-27.9,27.9-27.9s27.9,12.516,27.9,27.9S117.776,150.212,102.392,150.212z"/>
</g>
</svg>
