<?xml version="1.0" encoding="iso-8859-1"?>
<!-- Generator: Adobe Illustrator 17.1.0, SVG Export Plug-In . SVG Version: 6.00 Build 0)  -->
<!DOCTYPE svg PUBLIC "-//W3C//DTD SVG 1.1//EN" "http://www.w3.org/Graphics/SVG/1.1/DTD/svg11.dtd">
<svg version="1.1" id="Artwork" xmlns="http://www.w3.org/2000/svg" xmlns:xlink="http://www.w3.org/1999/xlink" x="0px" y="0px"
	 width="256px" height="256px" viewBox="0 0 256 256" style="enable-background:new 0 0 256 256;" xml:space="preserve">
<g>
	<path style="fill:#999999;" d="M117.137,177.784c-2.091-9.253-7.305-18.757-13.948-25.428c-6.54-6.747-15.948-12.13-25.145-14.396
		c-4.308-1.099-8.076-1.529-10.471-1.696c-0.376-0.027-0.734-0.041-1.062-0.041c-3.529,0-4.539,1.85-4.827,2.952
		c-0.229,0.876-0.436,3.095,2.57,4.782l0.386,0.219c1.672,0.946,3.962,2.242,6.662,3.964c3.395,2.116,12.13,7.904,19.943,15.972
		c7.579,7.626,13.003,15.943,15.581,20.255c1.67,2.72,2.935,5.045,3.858,6.743l0.176,0.323c0.986,1.836,2.294,2.767,3.886,2.767
		c1.009,0,1.953-0.408,2.657-1.149c1.231-1.296,1.311-3.147,1.227-4.776C118.512,185.893,118.158,182.134,117.137,177.784z
		 M96.062,159.386c-5.844-6.036-12.064-10.819-16.727-14.04c7.073,2.302,14.017,6.555,19.022,11.723
		c0.011,0.012,0.023,0.024,0.034,0.035c5.111,5.126,9.252,12.181,11.412,19.334C106.659,171.687,101.978,165.339,96.062,159.386z"/>
	<path style="fill:#999999;" d="M218.872,38.792c-6.445-6.564-15.57-9.892-27.123-9.892c-14.29,0-31.642,5.202-50.18,15.045
		C122.76,53.932,103.6,68.26,86.161,85.38c-23.965,23.528-42.352,49.945-51.774,74.383c-9.757,25.307-8.783,45.709,2.743,57.448
		c6.441,6.56,15.564,9.887,27.115,9.889c0.002,0,0.004,0,0.006,0c14.288,0,31.64-5.203,50.176-15.046
		c18.811-9.988,37.972-24.318,55.412-41.44c23.965-23.527,42.353-49.942,51.775-74.379C231.37,70.932,230.396,50.532,218.872,38.792
		z M215.316,93.807c-9.083,23.557-26.913,49.124-50.206,71.99c-33.755,33.14-73.344,54.553-100.859,54.552h-0.005
		c-9.672-0.001-17.175-2.648-22.299-7.868c-4.712-4.799-7.217-11.596-7.447-20.201c-0.233-8.715,1.849-18.838,6.187-30.09
		c9.083-23.559,26.913-49.127,50.205-71.995c33.752-33.135,73.341-54.546,100.859-54.546c9.674,0,17.179,2.648,22.307,7.87
		c4.711,4.799,7.216,11.595,7.446,20.2C221.734,72.434,219.653,82.557,215.316,93.807z"/>
	<path style="fill:#999999;" d="M194.577,101.758c-2.084-9.243-7.302-18.757-13.928-25.418
		c-6.553-6.755-15.971-12.144-25.166-14.411c-4.38-1.115-8.122-1.535-10.468-1.689c-0.378-0.027-0.736-0.041-1.066-0.041
		c-3.527,0-4.536,1.849-4.824,2.951c-0.229,0.875-0.434,3.094,2.567,4.776l0.313,0.178c1.687,0.956,3.997,2.265,6.737,4.013
		c3.391,2.112,12.119,7.894,19.94,15.971c7.57,7.617,13.004,15.937,15.587,20.247c1.606,2.62,2.845,4.893,3.75,6.553l0.284,0.52
		c0.985,1.835,2.293,2.766,3.885,2.766c1.012,0,1.956-0.41,2.661-1.153c1.231-1.301,1.306-3.152,1.217-4.774
		C195.944,109.828,195.587,106.04,194.577,101.758z M173.5,83.362c-5.855-6.047-12.079-10.832-16.74-14.051
		c7.073,2.301,14.029,6.56,19.074,11.759c5.112,5.139,9.25,12.192,11.408,19.334C184.092,95.652,179.408,89.306,173.5,83.362z"/>
	<path style="fill:#999999;" d="M155.855,139.776c-2.082-9.242-7.295-18.748-13.946-25.434
		c-6.549-6.754-15.957-12.137-25.145-14.397c-4.344-1.108-8.098-1.534-10.477-1.696c-0.367-0.025-0.716-0.038-1.038-0.038
		c-3.549,0-4.56,1.854-4.848,2.959c-0.228,0.877-0.432,3.097,2.566,4.768l0.477,0.271c1.657,0.941,3.926,2.23,6.577,3.915
		c4.224,2.634,12.427,8.207,19.905,15.945c0.011,0.011,0.022,0.023,0.033,0.034c7.577,7.624,13.006,15.94,15.587,20.249
		c1.643,2.678,2.896,4.981,3.812,6.663l0.219,0.402c0.67,1.251,1.862,1.999,3.19,2.001h0.004c1.071,0,2.073-0.488,2.748-1.341
		c0.665-0.839,1.206-1.938,1.094-6.919C156.589,146.077,156.462,142.351,155.855,139.776z M134.763,121.361
		c-5.824-6.023-12.04-10.805-16.706-14.029c7.066,2.298,14.008,6.551,19.02,11.724c0.011,0.011,0.022,0.022,0.033,0.033
		c5.112,5.133,9.251,12.184,11.409,19.327C145.372,133.669,140.69,127.327,134.763,121.361z"/>
</g>
</svg>
