<?xml version="1.0" encoding="iso-8859-1"?>
<!-- Generator: Adobe Illustrator 17.1.0, SVG Export Plug-In . SVG Version: 6.00 Build 0)  -->
<!DOCTYPE svg PUBLIC "-//W3C//DTD SVG 1.1//EN" "http://www.w3.org/Graphics/SVG/1.1/DTD/svg11.dtd">
<svg version="1.1" id="Artwork" xmlns="http://www.w3.org/2000/svg" xmlns:xlink="http://www.w3.org/1999/xlink" x="0px" y="0px"
	 width="256px" height="256px" viewBox="0 0 256 256" style="enable-background:new 0 0 256 256;" xml:space="preserve">
<path style="fill:#999999;" d="M183.538,67.177h-2.199c-7.919-9.388-19.378-14.74-31.704-14.74h-43.267
	c-12.331,0-23.791,5.353-31.707,14.74H72.46c-9.865,0-17.891,8.025-17.891,17.888c0,8.896,6.526,16.294,15.042,17.663l1.69,14.861
	l0.022,0.176c0,0.003,0.001,0.004,0.001,0.007v0.002l8.38,66.938c0,0.003,0,0.005,0,0.008l1.534,12.258
	c0.47,3.755,3.679,6.586,7.464,6.586h78.596c3.788,0,6.997-2.832,7.465-6.587l1.532-12.257c0,0,0-0.005,0-0.007l8.382-66.937
	l0-0.004l1.711-15.043c8.515-1.37,15.042-8.768,15.042-17.663C201.431,75.202,193.404,67.177,183.538,67.177z M106.368,59.187
	h43.267c8.229,0,15.999,2.849,22.173,7.99H84.191C90.364,62.036,98.136,59.187,106.368,59.187z M168.065,196.14
	c-0.048,0.384-0.378,0.673-0.767,0.673H88.702c-0.389,0-0.719-0.29-0.766-0.675l-1.059-8.463h82.247L168.065,196.14z
	 M169.968,180.925H86.032l-7.536-60.195h99.009L169.968,180.925z M183.538,96.208h-11.436c-1.864,0-3.375,1.511-3.375,3.375
	c0,1.864,1.511,3.375,3.375,3.375h7.468l-1.251,11.021H77.684l-1.253-11.021h69.871c1.864,0,3.375-1.511,3.375-3.375
	c0-1.864-1.511-3.375-3.375-3.375H72.46c-6.143,0-11.141-4.999-11.141-11.143c0-6.142,4.997-11.138,11.141-11.138h3.804h103.473
	h3.801c6.144,0,11.143,4.997,11.143,11.138C194.681,91.209,189.682,96.208,183.538,96.208z"/>
</svg>
