<?xml version="1.0" encoding="iso-8859-1"?>
<!-- Generator: Adobe Illustrator 17.1.0, SVG Export Plug-In . SVG Version: 6.00 Build 0)  -->
<!DOCTYPE svg PUBLIC "-//W3C//DTD SVG 1.1//EN" "http://www.w3.org/Graphics/SVG/1.1/DTD/svg11.dtd">
<svg version="1.1" id="Artwork" xmlns="http://www.w3.org/2000/svg" xmlns:xlink="http://www.w3.org/1999/xlink" x="0px" y="0px"
	 width="256px" height="256px" viewBox="0 0 256 256" style="enable-background:new 0 0 256 256;" xml:space="preserve">
<path style="fill:#999999;" d="M216.695,145.473h-27.939V97.277c0-1.864-1.511-3.375-3.375-3.375h-21.826
	c0,0,0.04-31.194,0.04-31.914c1.782-2.45,2.911-5.945,2.911-11.807c0-10.473-8.659-22.656-9.028-23.169
	c-0.634-0.883-1.655-1.407-2.742-1.407s-2.108,0.524-2.742,1.408c-0.368,0.513-9.023,12.695-9.023,23.168
	c0,6.088,1.363,9.838,3.248,12.276c0,0.611-0.018,31.445-0.018,31.445h-9.519c0,0,0.037-31.208,0.037-31.928
	c1.782-2.45,2.911-5.945,2.911-11.807c0-10.473-8.659-22.656-9.028-23.169c-0.634-0.883-1.655-1.407-2.742-1.407
	s-2.108,0.524-2.742,1.408c-0.368,0.513-9.023,12.695-9.023,23.168c0,6.088,1.363,9.838,3.248,12.276
	c0,0.617-0.012,31.459-0.012,31.459h-9.523c0,0,0.028-31.208,0.028-31.928c1.782-2.45,2.911-5.945,2.911-11.807
	c0-10.473-8.659-22.656-9.028-23.169c-0.634-0.883-1.655-1.407-2.742-1.407c-1.087,0-2.108,0.524-2.742,1.408
	c-0.368,0.513-9.023,12.695-9.023,23.168c0,6.088,1.363,9.838,3.248,12.276c0,0.617-0.011,31.459-0.011,31.459H70.632
	c-1.864,0-3.375,1.511-3.375,3.375v48.197H39.305c-1.864,0-3.375,1.511-3.375,3.375v10.024v45.59v22.572
	c0,1.864,1.511,3.375,3.375,3.375h177.389c1.864,0,3.375-1.511,3.375-3.375v-78.186C220.07,146.984,218.559,145.473,216.695,145.473
	z M154.737,35.336c2.234,3.94,5.019,9.853,5.019,14.845c0,3.576-0.624,9.605-4.802,9.798c-0.072,0.004-0.143,0.009-0.214,0.017
	c-0.07-0.008-0.141-0.013-0.214-0.017c-4.181-0.193-4.806-6.222-4.806-9.798C149.72,45.189,152.504,39.276,154.737,35.336z
	 M156.807,66.726l-0.003,27.176h-3.854l0.006-27.176H156.807z M127.861,35.322c2.234,3.94,5.019,9.853,5.019,14.845
	c0,3.576-0.624,9.605-4.802,9.798c-0.072,0.004-0.143,0.009-0.214,0.017c-0.07-0.008-0.142-0.013-0.214-0.017
	c-4.182-0.193-4.806-6.222-4.806-9.798C122.845,45.175,125.628,39.262,127.861,35.322z M129.932,66.712v27.19h-3.85v-27.19H129.932z
	 M100.978,35.322c2.234,3.94,5.019,9.853,5.019,14.845c0,3.576-0.624,9.605-4.802,9.798c-0.072,0.004-0.143,0.009-0.214,0.017
	c-0.07-0.008-0.141-0.013-0.214-0.017c-4.181-0.193-4.806-6.222-4.806-9.798C95.962,45.175,98.746,39.262,100.978,35.322z
	 M103.058,93.902H99.2l-0.001-27.19h3.851L103.058,93.902z M74.007,100.652h107.999v14.702
	c-7.614,14.071-23.695,14.485-25.531,14.485c-0.096,0-0.155-0.001-0.164-0.001c-0.036-0.001-0.072-0.002-0.107-0.002
	c-17.815,0-24.813-15.346-25.098-15.989c-0.531-1.222-1.73-2.017-3.062-2.03c-0.011,0-0.022,0-0.033,0
	c-1.319,0-2.518,0.769-3.068,1.969c-7.001,15.28-23.169,16.054-26.339,16.054c-0.141,0-0.227-0.002-0.241-0.003
	c-0.042-0.001-0.084-0.002-0.126-0.002c-14.511,0-21.847-10.21-24.229-14.367V100.652z M213.32,205.854v17.805H42.68v-19.197v-9.325
	c5.164,4.616,12.818,8.892,23.46,8.908c0.102,0.003,0.278,0.007,0.52,0.007c3.489,0,20.769-0.771,30.814-15.529
	c4.404,6.218,13.625,15.501,29.423,15.523c1.574,0.048,20.585,0.259,31.328-15.519c4.385,6.201,13.604,15.504,29.448,15.519
	c1.159,0.026,14.886,0.077,25.647-9.468V205.854z M213.32,160.264v22.91v1.246c-8.904,13.07-25.356,12.869-25.519,12.876
	c-0.03-0.001-0.06-0.001-0.09-0.001c-18.788,0-26.16-16.179-26.46-16.858c-0.531-1.222-1.731-2.017-3.063-2.03
	c-0.011,0-0.022,0-0.032,0c-1.319,0-2.519,0.769-3.069,1.971c-7.951,17.369-27.196,16.941-28.005,16.92
	c-0.043-0.002-0.085-0.003-0.128-0.003c-18.219,0-25.697-15.195-26.413-16.748c-0.493-1.252-1.714-2.136-3.142-2.136
	c-1.392,0-2.587,0.845-3.103,2.049c-7.973,17.287-27.165,16.861-27.971,16.838c-0.043-0.002-0.085-0.003-0.128-0.003
	c-11.943,0-19.315-6.415-23.516-12.145v-0.676v-25.601v-6.649h100.275c1.864,0,3.375-1.511,3.375-3.375s-1.511-3.375-3.375-3.375
	H74.007v-18.975c4.955,5.015,12.776,10.072,24.177,10.088c0.079,0.002,0.22,0.005,0.419,0.005h0c3.496,0,19.856-0.777,29.475-14.696
	c4.252,5.941,13.058,14.673,28.081,14.691c0.062,0.001,0.168,0.003,0.315,0.003c1.849,0,15.471-0.348,25.531-10.138v19.022h-10.401
	c-1.864,0-3.375,1.511-3.375,3.375s1.511,3.375,3.375,3.375h13.776h7.225h20.714V160.264z"/>
</svg>
