<?xml version="1.0" encoding="iso-8859-1"?>
<!-- Generator: Adobe Illustrator 17.1.0, SVG Export Plug-In . SVG Version: 6.00 Build 0)  -->
<!DOCTYPE svg PUBLIC "-//W3C//DTD SVG 1.1//EN" "http://www.w3.org/Graphics/SVG/1.1/DTD/svg11.dtd">
<svg version="1.1" id="Artwork" xmlns="http://www.w3.org/2000/svg" xmlns:xlink="http://www.w3.org/1999/xlink" x="0px" y="0px"
	 width="256px" height="256px" viewBox="0 0 256 256" style="enable-background:new 0 0 256 256;" xml:space="preserve">
<path style="fill:#999999;" d="M190.762,85.911c0-33.989-27.159-61.752-60.914-62.733c-0.015-0.002-1.478-0.029-1.848-0.029
	c-34.607,0-62.762,28.155-62.762,62.762c0,31.433,23.228,57.541,53.42,62.066l-0.001,0.013v81.485c0,1.864,1.511,3.375,3.375,3.375
	h16.303c1.864,0,3.375-1.511,3.375-3.375v-82.315C169.745,140.89,190.762,115.81,190.762,85.911z M128,29.899
	c0.44,0,0.878,0.007,1.315,0.017c7.348-0.127,12.13,2.685,17.173,4.824c8.25,3.938,14.316,9.183,19.692,16.07
	c3.451,4.487,5.882,9.129,7.638,14.572c1.69,5.445,2.432,10.56,2.268,15.636c-0.001,0.036-0.002,0.072-0.002,0.109
	c0,10.355-3.255,19.721-9.674,27.839c-3.172,3.872-6.414,6.741-10.493,9.291c-5.921,3.656-12.107,5.685-18.91,6.202
	c-6.909,0.37-12.698-0.709-18.221-3.391c-5.184-2.508-9.412-5.979-13.301-10.92c-5.538-7.459-7.451-15.885-5.521-24.407
	c1.045-4.878,2.936-8.777,5.97-12.289c2.604-3.063,5.697-5.239,10.025-7.049c4.362-1.641,9.044-1.674,14.312-0.1
	c3.837,1.236,6.888,3.671,9.07,7.236c1.553,2.733,3.643,8.012,0.456,12.995c-0.62,0.923-3.7,5.109-7.621,3.563
	c-0.649-0.277-1.127-0.804-1.264-1.164c0.022-0.018,0.044-0.035,0.064-0.051c0.695-0.556,1.842-1.474,2.371-3.115
	c0.699-1.868,0.573-3.912-0.36-5.777c-0.031-0.061-0.063-0.122-0.098-0.181c-2.997-5.178-9.388-5.744-14.166-3.619
	c-4.214,1.895-7.267,6.014-8.597,11.598c-0.017,0.07-0.031,0.141-0.043,0.212c-1.273,7.429,1.583,14.745,7.836,20.071
	c0.03,0.025,0.06,0.051,0.091,0.075c5.908,4.686,13.319,6.467,21.431,5.151c8.64-1.404,15.877-6.443,20.93-14.572
	c0.022-0.036,0.043-0.071,0.064-0.108c4.119-7.207,5.699-14.923,4.698-22.931c-0.797-6.375-3.196-12.19-7.347-17.795
	c-4.535-6.045-9.723-10.289-15.85-12.97c-6.918-3.052-14.135-4.397-21.453-4.004c-0.026,0.001-0.051,0.003-0.077,0.005
	c-8.081,0.621-15.278,2.979-21.996,7.201c-4.479,2.799-8.347,6.282-12.166,10.95c-5.085,6.174-8.338,13.262-10.547,22.979
	c-0.008,0.035-0.016,0.071-0.022,0.107c-1.06,5.474-1.125,10.803-0.22,17.818c0.002,0.018,0.005,0.037,0.008,0.055
	c0.718,4.925,2.107,9.601,4.248,14.233c-4.905-8.322-7.725-18.014-7.725-28.354C71.988,55.026,97.115,29.899,128,29.899z
	 M134.96,226.101h-9.553v-77.485c0.861,0.035,1.724,0.058,2.593,0.058c0.151,0,0.3-0.004,0.451-0.006
	c0.038,0.003,0.076,0.007,0.114,0.011c0.098,0.008,0.196,0.012,0.292,0.012c0.154,0,0.304-0.014,0.453-0.034
	c1.905-0.039,3.789-0.165,5.65-0.371V226.101z M128.772,141.914c-7.596-0.636-11.503-2.051-16.937-4.505
	c-7.989-3.648-14.378-8.757-20.101-16.076c-5.486-7.58-8.445-14.445-9.587-22.247c-0.812-6.305-0.77-10.829,0.145-15.59
	c1.963-8.611,4.79-14.821,9.17-20.139c3.392-4.145,6.638-7.078,10.534-9.513c5.764-3.623,11.943-5.647,18.89-6.188
	c6.234-0.331,12.399,0.827,18.335,3.445c5.041,2.206,9.348,5.752,13.154,10.824c3.477,4.695,5.403,9.333,6.061,14.598
	c0.825,6.599-0.428,12.713-3.83,18.69c-3.991,6.392-9.608,10.341-16.246,11.42c-6.254,1.016-11.674-0.243-16.108-3.74
	c-4.332-3.713-6.344-8.679-5.533-13.649c0.602-2.461,1.916-5.614,4.76-6.893c1.597-0.71,4.352-1.082,5.509,0.74
	c0.051,0.123,0.064,0.225,0.04,0.302c-0.081,0.068-0.185,0.152-0.27,0.22c-0.581,0.465-1.459,1.168-2.04,2.333
	c-0.048,0.096-0.092,0.195-0.131,0.296c-1.662,4.319,1.245,8.524,5.015,10.095c0.015,0.006,0.029,0.012,0.044,0.018
	c5.62,2.245,11.815-0.147,15.784-6.1c0.01-0.015,0.02-0.031,0.031-0.047c3.762-5.851,3.66-13.162-0.281-20.058
	c-0.015-0.027-0.031-0.054-0.047-0.08c-3.015-4.953-7.451-8.481-12.83-10.205c-0.02-0.006-0.04-0.013-0.06-0.018
	c-6.681-2.004-12.981-1.915-18.726,0.263c-0.034,0.013-0.068,0.026-0.101,0.04c-5.317,2.215-9.328,5.053-12.605,8.91
	c-3.787,4.384-6.152,9.235-7.436,15.228c-2.373,10.479-0.047,20.827,6.724,29.925c0.018,0.023,0.035,0.047,0.053,0.069
	c4.492,5.718,9.626,9.925,15.692,12.859c6.599,3.205,13.452,4.49,21.564,4.056c0.024-0.001,0.047-0.003,0.071-0.005
	c7.921-0.595,15.113-2.947,22.002-7.201c4.69-2.931,8.558-6.354,12.173-10.772c0.011-0.014,0.023-0.028,0.034-0.042
	c7.386-9.33,11.137-20.095,11.148-31.995c0.094-3.028-0.094-6.057-0.561-9.138c1.134,4.437,1.738,9.083,1.738,13.868
	C184.012,116.538,159.302,141.499,128.772,141.914z"/>
</svg>
