<?xml version="1.0" encoding="iso-8859-1"?>
<!-- Generator: Adobe Illustrator 17.1.0, SVG Export Plug-In . SVG Version: 6.00 Build 0)  -->
<!DOCTYPE svg PUBLIC "-//W3C//DTD SVG 1.1//EN" "http://www.w3.org/Graphics/SVG/1.1/DTD/svg11.dtd">
<svg version="1.1" id="Artwork" xmlns="http://www.w3.org/2000/svg" xmlns:xlink="http://www.w3.org/1999/xlink" x="0px" y="0px"
	 width="256px" height="256px" viewBox="0 0 256 256" style="enable-background:new 0 0 256 256;" xml:space="preserve">
<path style="fill:#999999;" d="M208.457,138.514c-9.901-23.491-30.39-30.564-45.352-35.728c-6.812-2.352-12.695-4.382-14.96-7.112
	c-8.603-10.368-8.603-34.827-8.603-42.863c0-10.267-4.538-13.705-7.299-14.692c-1.806-0.645-6.943-0.683-8.486,0
	c-2.681,1.187-7.299,4.424-7.299,14.692c0,8.037,0,32.496-8.603,42.863c-2.265,2.73-8.148,4.76-14.96,7.112
	c-14.961,5.164-35.451,12.237-45.352,35.728c-5.682,13.482-5.21,27.581,1.365,40.774c8.916,17.89,26.439,29.314,39.851,32.7
	c19.9,5.023,28.297,6.163,39.129,6.378v0.013c0.117-0.002,0.713-0.014,0.713-0.014c10.36-0.216,18.76-1.359,38.641-6.377
	c13.412-3.386,30.935-14.81,39.851-32.7C213.667,166.095,214.139,151.995,208.457,138.514z M85.254,202.267
	c-9.677-14.344-13.614-30.396-11.092-45.489c1.541-9.224,5.333-17.568,10.972-24.375c-5.644,11.609-8.319,24.02-7.652,37.011
	c0.305,5.947,1.619,11.545,3.16,16.342c1.452,4.529,3.585,8.789,6.342,12.664c1.546,2.17,3.279,4.19,5.166,6.068
	C91.685,204.371,87.456,203.091,85.254,202.267z M127.499,210.262c1.505-7.598,4.019-25.101,4.211-27.248
	c0.022,0.722,0.645,15.864,0.883,20.121c0,0,0.335,4.694,0.577,6.955C131.512,210.19,127.743,210.267,127.499,210.262z
	 M163.518,204.57c2.679-2.942,5.093-6.224,7.177-9.82c3.321-5.73,5.62-11.919,6.847-18.29c-0.568,11.125-6.068,24.772-6.522,25.723
	C169.02,203.019,164.089,204.428,163.518,204.57z M199.842,175.675c-4.582,9.194-11.938,16.493-19.51,21.503
	c5.95-16.929,5.13-33.489-2.473-49.293c-1.833-3.826-2.656-6.148-5.609-6.125c-2.953,0.024-3.675,3.001-3.066,5.549
	c0,0,1.577,7.768,1.796,8.942c3.816,20.389-5.565,41.399-21.674,51.579c-3.602,0.728-6.661,1.244-9.418,1.608
	c-0.201-3.212-1.5-29.203-1.629-31.6c-0.535-9.508-2.085-19.346-4.478-28.43c-0.176-0.683-0.81-2.966-3.202-3.732
	c-2.392-0.765-5.167,2.084-4.775,4.805c0,0,1.294,21.579-1.43,38.034c-0.509,3.076-2.359,14.765-3.684,21.403
	c-3.354-0.28-6.946-0.76-11.34-1.576c-4.915-2.439-8.434-5.116-8.686-5.31c-3.133-2.437-5.886-5.307-8.182-8.528
	c-2.352-3.306-8.096-13.256-8.256-25.34c-0.211-15.893,3.739-30.784,13.162-44.312c0.599-0.87,3.685-5.179,2.148-7.392
	c-2.474-3.56-6.679-0.832-8.703,0.588c-12.447,8.711-20.732,22.07-23.33,37.618c-2.221,13.294,0.013,27.191,6.307,40.229
	c-6.903-4.941-13.447-11.78-17.653-20.22c-5.489-11.014-5.887-22.777-1.151-34.015c8.497-20.159,26.258-26.291,40.53-31.217
	c7.962-2.748,14.838-5.121,18.551-9.596c9.384-11.309,10.47-32.832,10.47-48.036c0-4.493,0.489-7.081,3.47-7.081
	c2.981,0,3.414,2.66,3.414,7.081c0,15.204,1.085,36.727,10.47,48.036c3.713,4.474,10.589,6.848,18.551,9.596
	c14.272,4.926,32.034,11.058,40.53,31.217C205.729,152.898,205.331,164.66,199.842,175.675z"/>
</svg>
