<?xml version="1.0" encoding="iso-8859-1"?>
<!-- Generator: Adobe Illustrator 17.1.0, SVG Export Plug-In . SVG Version: 6.00 Build 0)  -->
<!DOCTYPE svg PUBLIC "-//W3C//DTD SVG 1.1//EN" "http://www.w3.org/Graphics/SVG/1.1/DTD/svg11.dtd">
<svg version="1.1" id="Artwork" xmlns="http://www.w3.org/2000/svg" xmlns:xlink="http://www.w3.org/1999/xlink" x="0px" y="0px"
	 width="256px" height="256px" viewBox="0 0 256 256" style="enable-background:new 0 0 256 256;" xml:space="preserve">
<g>
	<path style="fill:#999999;" d="M155.362,22.702h-54.725c-9.886,0-17.929,8.044-17.929,17.932v105.374
		c0,9.888,8.043,17.932,17.929,17.932h12.223v54.219c0,8.348,6.792,15.139,15.141,15.139c8.348,0,15.139-6.791,15.139-15.139V163.94
		h12.222c9.886,0,17.93-8.044,17.93-17.932V40.634C173.292,30.746,165.249,22.702,155.362,22.702z M166.542,146.008
		c0,6.166-5.015,11.182-11.18,11.182h-15.597c-1.864,0-3.375,1.511-3.375,3.375v57.594c0,4.625-3.763,8.389-8.389,8.389
		c-4.627,0-8.391-3.763-8.391-8.389V163.94h7.042c1.864,0,3.375-1.511,3.375-3.375c0-1.864-1.511-3.375-3.375-3.375h-26.014
		c-6.164,0-11.179-5.016-11.179-11.182V40.634c0-6.166,5.015-11.182,11.179-11.182h54.725c6.165,0,11.18,5.016,11.18,11.182V146.008
		z"/>
	<path style="fill:#999999;" d="M110.404,45.99c-5.477,0-9.932,4.143-9.932,9.235v77.503c0,5.093,4.455,9.237,9.932,9.237
		c5.478,0,9.935-4.144,9.935-9.237V55.224C120.338,50.132,115.882,45.99,110.404,45.99z M113.588,132.727
		c0,1.348-1.459,2.487-3.185,2.487c-1.724,0-3.182-1.139-3.182-2.487V55.224c0-1.347,1.457-2.485,3.182-2.485
		c1.726,0,3.185,1.138,3.185,2.485V132.727z"/>
	<path style="fill:#999999;" d="M146.56,45.99c-5.476,0-9.932,4.143-9.932,9.235v77.503c0,5.093,4.456,9.237,9.932,9.237
		c5.478,0,9.935-4.144,9.935-9.237V55.224C156.495,50.132,152.038,45.99,146.56,45.99z M149.745,132.727
		c0,1.348-1.459,2.487-3.185,2.487c-1.725,0-3.182-1.139-3.182-2.487V55.224c0-1.347,1.457-2.485,3.182-2.485
		c1.726,0,3.185,1.138,3.185,2.485V132.727z"/>
</g>
</svg>
