<?xml version="1.0" encoding="iso-8859-1"?>
<!-- Generator: Adobe Illustrator 17.1.0, SVG Export Plug-In . SVG Version: 6.00 Build 0)  -->
<!DOCTYPE svg PUBLIC "-//W3C//DTD SVG 1.1//EN" "http://www.w3.org/Graphics/SVG/1.1/DTD/svg11.dtd">
<svg version="1.1" id="Artwork" xmlns="http://www.w3.org/2000/svg" xmlns:xlink="http://www.w3.org/1999/xlink" x="0px" y="0px"
	 width="256px" height="256px" viewBox="0 0 256 256" style="enable-background:new 0 0 256 256;" xml:space="preserve">
<g>
	<path style="fill:#999999;" d="M88.097,195.393h-2.7c-1.864,0-3.375,1.511-3.375,3.375c0,1.864,1.511,3.375,3.375,3.375h2.7
		c1.864,0,3.375-1.511,3.375-3.375C91.472,196.904,89.961,195.393,88.097,195.393z"/>
	<path style="fill:#999999;" d="M100.236,172.989c-1.318-1.317-3.455-1.317-4.773,0c-1.318,1.318-1.318,3.455,0,4.773l1.909,1.909
		c0.659,0.659,1.523,0.989,2.386,0.989c0.864,0,1.728-0.33,2.386-0.989c1.318-1.318,1.318-3.455,0-4.773L100.236,172.989z"/>
	<path style="fill:#999999;" d="M170.603,195.393h-2.7c-1.864,0-3.375,1.511-3.375,3.375c0,1.864,1.511,3.375,3.375,3.375h2.7
		c1.864,0,3.375-1.511,3.375-3.375C173.978,196.904,172.467,195.393,170.603,195.393z"/>
	<path style="fill:#999999;" d="M128.077,159.802c-1.821,0-3.08,1.511-3.08,3.375v2.7c0,1.864,1.02,3.375,3.08,3.375
		c2.06,0,3.223-1.511,3.223-3.375v-2.7C131.3,161.313,129.898,159.802,128.077,159.802z"/>
	<path style="fill:#999999;" d="M155.764,172.989l-1.909,1.909c-1.318,1.318-1.318,3.455,0,4.773
		c0.659,0.659,1.523,0.989,2.386,0.989c0.864,0,1.728-0.33,2.386-0.989l1.909-1.909c1.318-1.318,1.318-3.455,0-4.773
		C159.219,171.672,157.081,171.672,155.764,172.989z"/>
	<path style="fill:#999999;" d="M182.899,133.565c-7.398-6.416-15.889-11.487-24.879-14.995V86.044
		c16.1-0.133,29.86-7.328,39.812-20.839c7.471-10.143,10.142-20.2,10.252-20.624c0.263-1.012,0.043-2.087-0.597-2.914
		c-0.639-0.827-1.625-1.31-2.67-1.31H51.183c-1.045,0-2.031,0.483-2.67,1.31c-0.639,0.826-0.859,1.902-0.597,2.914
		c0.11,0.424,2.781,10.481,10.252,20.624C68.121,78.715,81.88,85.911,97.98,86.044v32.527c-8.99,3.508-17.482,8.579-24.879,14.995
		c-16.409,14.231-25.446,33.337-25.446,53.796v24.906c0,1.864,1.511,3.375,3.375,3.375h153.94c1.864,0,3.375-1.511,3.375-3.375
		v-24.906C208.345,166.902,199.308,147.796,182.899,133.565z M63.732,61.376c-3.946-5.313-6.44-10.693-7.837-14.269h144.21
		c-1.397,3.576-3.891,8.956-7.837,14.269C183.435,73.27,171.76,79.3,157.569,79.3h-9.994v0.006
		c-1.783,0.091-3.202,1.561-3.202,3.366c0,1.806,1.419,3.276,3.202,3.366v0.011h3.695v30.211
		c-7.301-2.158-14.824-3.299-22.274-3.299c-0.332,0-1.66,0-1.992,0c-7.45,0-14.973,1.141-22.274,3.299V86.05l30.659-0.003
		c1.864,0,3.375-1.511,3.375-3.375c0-1.864-1.511-3.375-3.375-3.375L98.431,79.3C84.24,79.3,72.565,73.27,63.732,61.376z
		 M118.002,208.893c0.008-0.087,0.02-0.174,0.02-0.263c0-3.489,1.737-6.579,4.39-8.454l1.931,4.771
		c0.532,1.313,1.795,2.109,3.13,2.109c0.422,0,0.85-0.08,1.265-0.247c1.728-0.7,2.562-2.667,1.862-4.395l-1.667-4.118
		c5.447,0.293,9.788,4.816,9.788,10.334c0,0.089,0.012,0.176,0.02,0.263H118.002z M145.472,208.63c0-9.429-7.671-17.1-17.1-17.1
		c-0.719,0-1.426,0.05-2.122,0.136l-9.375-23.159c-0.7-1.728-2.667-2.561-4.395-1.862c-1.728,0.7-2.562,2.667-1.862,4.395
		l9.221,22.78c-5.116,2.959-8.568,8.487-8.568,14.81l0.003,0.038c0,0-39.153,0.076-39.153,0c0-31.017,24.83-56.25,55.35-56.25
		c0.177,0,0.88,0,1.056,0c30.52,0,55.35,25.233,55.35,56.25C183.878,208.743,145.472,208.719,145.472,208.63z M201.595,208.893
		h-10.978c0.005-0.075,0.011-0.149,0.011-0.225c0-16.63-6.451-32.375-18.164-44.336c-11.786-12.036-27.39-18.664-43.936-18.664
		c-0.176,0-0.88,0-1.056,0c-16.547,0-32.15,6.628-43.936,18.664c-11.713,11.961-18.164,27.707-18.164,44.336
		c0,0.076,0.006,0.15,0.011,0.225H54.405v-21.531c0-39.867,38.261-67.649,72.599-67.649c0.331,0,1.66,0,1.992,0
		c34.338,0,72.599,27.782,72.599,67.649V208.893z"/>
</g>
</svg>
