<?xml version="1.0" encoding="iso-8859-1"?>
<!-- Generator: Adobe Illustrator 17.1.0, SVG Export Plug-In . SVG Version: 6.00 Build 0)  -->
<!DOCTYPE svg PUBLIC "-//W3C//DTD SVG 1.1//EN" "http://www.w3.org/Graphics/SVG/1.1/DTD/svg11.dtd">
<svg version="1.1" id="Artwork" xmlns="http://www.w3.org/2000/svg" xmlns:xlink="http://www.w3.org/1999/xlink" x="0px" y="0px"
	 width="256px" height="256px" viewBox="0 0 256 256" style="enable-background:new 0 0 256 256;" xml:space="preserve">
<path style="fill:#999999;" d="M234.168,102.924c-0.06-0.145-0.126-0.289-0.208-0.429c-1.17-1.998-2.843-3.694-4.868-4.946
	c-0.71-6.236-4.636-11.018-10.184-12.303c-3.759-0.871-7.634-0.222-10.913,1.825c-3.279,2.047-5.564,5.243-6.434,9.002
	c-0.378,1.638-0.471,3.285-0.279,4.911c-2.916,1.768-10.745,6.515-15.043,9.121c-2.322-1.584-5.48-1.718-8.219-0.165
	c-0.829,0.469-3.985,1.574-13.582-0.252c-17.549-32.703-44.267-37.234-58.764-36.993c-22.131,0.37-44.345,12.319-51.672,27.794
	c-3.315,7.001-5.823,8.434-6.615,8.434c-0.792,0-1.467-0.788-2.568-3.991c-1.712-4.978-7.186-7.884-13.019-6.909
	c-5.576,0.932-12.088,5.83-12.088,16.564c0,7.627,1.187,22.339,9.135,35.174c9.595,15.493,25.661,23.349,47.752,23.349h29.971
	c4.534,4.22,10.134,7.289,16.426,8.918c3.317,0.859,6.692,1.284,10.066,1.284c7.529,0,15.045-2.115,21.859-6.239
	c13.106-7.93,16.927-12.625,21.765-18.571c2.174-2.671,4.637-5.698,8.368-9.474c2.832-2.865,5.183-5.15,7.073-6.986
	c4.855-4.718,7.773-7.557,7.852-10.747c2.369-1.571,6.784-4.504,10.283-6.829c1.627-1.081,3.055-2.03,3.984-2.647
	c1.391,0.87,2.919,1.488,4.558,1.844c3.769,0.819,7.635,0.12,10.887-1.971c3.252-2.09,5.493-5.317,6.313-9.086
	C236.739,109.215,236.034,105.814,234.168,102.924z M26.461,114.589c0-8.192,4.938-9.654,6.451-9.907
	c2.2-0.368,4.804,0.354,5.523,2.447c2.336,6.79,5.954,8.389,8.577,8.535c4.703,0.263,9.107-3.872,13.09-12.285
	c2.885-6.095,8.937-11.902,17.041-16.352c8.602-4.724,18.774-7.416,28.642-7.581c12.13-0.205,33.854,3.382,49.597,28.122
	c-0.098-0.023-0.192-0.044-0.279-0.06c-8.647-1.662-24.74-4.755-36.003,1.688c-21.188,12.123-29.881,36.922-19.378,55.281
	c0.368,0.644,0.76,1.269,1.163,1.885H76.599C31.346,166.362,26.461,130.155,26.461,114.589z M229.405,111.174
	c-0.436,2.007-1.632,3.727-3.367,4.842c-1.735,1.115-3.796,1.49-5.802,1.053c-1.11-0.241-2.119-0.705-3.011-1.386
	c-1.629-1.419-3.685-1.489-5.647-0.194c-0.371,0.245-2.459,1.633-5.054,3.357c-3.207,2.131-7.182,4.772-9.644,6.406
	c-1.078-0.555-2.417-0.511-3.48,0.231c-1.528,1.067-1.902,3.171-0.835,4.699c0.355,0.507,0.298,1.43,0.035,1.75
	c-0.985,1.196-2.969,3.124-5.179,5.271c-1.911,1.857-4.29,4.168-7.17,7.082c-3.96,4.008-6.533,7.169-8.803,9.958
	c-4.598,5.65-7.919,9.732-20.024,17.056c-8.298,5.022-17.794,6.512-26.739,4.196c-8.237-2.133-15.022-7.237-19.105-14.371
	c-8.654-15.129-1.086-35.796,16.871-46.07c9.094-5.202,23.589-2.416,31.377-0.919c0.017,0.003,0.034,0.006,0.051,0.009
	c0.136,0.034,0.354,0.093,0.642,0.17c13.477,3.596,22.249,4.086,26.823,1.498c0.335-0.19,0.913-0.36,1.163-0.073l0.456,0.64
	c0.033,0.045,0.063,0.094,0.098,0.137l3.594,5.04c1.084,1.517,3.192,1.867,4.708,0.783c1.516-1.084,1.867-3.192,0.783-4.708
	l-1.604-2.244c5.323-3.227,14.547-8.82,15.322-9.291c2.005-1.217,2.821-3.099,2.238-5.191c-0.235-1.087-0.224-2.201,0.033-3.313
	c0.463-2.001,1.682-3.704,3.432-4.796c1.749-1.092,3.815-1.439,5.817-0.975c4.325,1.001,4.957,5.631,5.049,7.048
	c0.025,0.446,0.096,0.851,0.201,1.219c0.195,1.18,0.828,2.574,2.573,3.518C226.432,104.286,230.348,106.835,229.405,111.174z"/>
</svg>
