<?xml version="1.0" encoding="iso-8859-1"?>
<!-- Generator: Adobe Illustrator 17.1.0, SVG Export Plug-In . SVG Version: 6.00 Build 0)  -->
<!DOCTYPE svg PUBLIC "-//W3C//DTD SVG 1.1//EN" "http://www.w3.org/Graphics/SVG/1.1/DTD/svg11.dtd">
<svg version="1.1" id="Artwork" xmlns="http://www.w3.org/2000/svg" xmlns:xlink="http://www.w3.org/1999/xlink" x="0px" y="0px"
	 width="256px" height="256px" viewBox="0 0 256 256" style="enable-background:new 0 0 256 256;" xml:space="preserve">
<path style="fill:#999999;" d="M197.795,91.46c-4.556-4.556-10.613-7.065-17.056-7.065h0c-6.442,0-12.5,2.509-17.056,7.065
	l-12.335,12.335c0,0,0.048-13.088,0.048-13.766c0-27.641-22.488-50.128-50.128-50.128S51.14,62.387,51.14,90.028v96.597
	c0,1.864,1.511,3.375,3.375,3.375h4.584v22.725c0,1.864,1.511,3.375,3.375,3.375h77.052c1.864,0,3.375-1.511,3.375-3.375V190h5.073
	c1.864,0,3.375-1.511,3.375-3.375v-11.909l46.131-48.843l0.037-0.035c0.094-0.087,0.187-0.175,0.279-0.267
	c4.556-4.556,7.065-10.614,7.065-17.056C204.86,102.072,202.351,96.015,197.795,91.46z M97.059,190.45v18.9h-11.86v-18.9H97.059z
	 M103.809,190.45h11.86v18.9h-11.86V190.45z M65.849,190.45h12.6v18.9h-12.6V190.45z M136.151,209.35h-13.731v-18.9h13.731V209.35z
	 M193.022,120.798c-0.036,0.036-0.073,0.07-0.111,0.105l-0.153,0.144c-0.041,0.039-0.08,0.079-0.119,0.12l-46.772,49.522
	c-0.773,0.619-1.269,1.568-1.269,2.635v9.925H57.89V90.028c0-23.919,19.459-43.378,43.378-43.378
	c23.919,0,43.378,19.459,43.378,43.378c0,0.601-0.015,1.229-0.045,1.918c-0.002,0.049-0.003,35.649-0.003,35.649
	c0,1.864,1.511,3.375,3.375,3.375s3.375-1.511,3.375-3.375v-14.254l17.108-17.108c3.281-3.281,7.643-5.088,12.283-5.088
	c4.64,0,9.002,1.807,12.283,5.088c3.281,3.281,5.088,7.643,5.088,12.282C198.11,113.155,196.303,117.517,193.022,120.798z"/>
</svg>
