<?xml version="1.0" encoding="iso-8859-1"?>
<!-- Generator: Adobe Illustrator 17.1.0, SVG Export Plug-In . SVG Version: 6.00 Build 0)  -->
<!DOCTYPE svg PUBLIC "-//W3C//DTD SVG 1.1//EN" "http://www.w3.org/Graphics/SVG/1.1/DTD/svg11.dtd">
<svg version="1.1" id="Artwork" xmlns="http://www.w3.org/2000/svg" xmlns:xlink="http://www.w3.org/1999/xlink" x="0px" y="0px"
	 width="256px" height="256px" viewBox="0 0 256 256" style="enable-background:new 0 0 256 256;" xml:space="preserve">
<g>
	<path style="fill:#999999;" d="M129.758,103.323c2.219,0,4.34-0.83,5.968-2.336c1.728-1.594,2.731-3.766,2.825-6.118
		c0.094-2.352-0.732-4.598-2.33-6.328c-1.665-1.798-4.024-2.829-6.474-2.829c-2.219,0-4.339,0.829-5.968,2.333
		c-1.732,1.597-2.737,3.773-2.83,6.126c-0.093,2.351,0.736,4.595,2.333,6.32C124.947,102.291,127.308,103.323,129.758,103.323z
		 M128.356,93.007c0.38-0.35,0.874-0.544,1.391-0.544c0.584,0,1.124,0.236,1.518,0.662c0.371,0.401,0.563,0.925,0.541,1.474
		c-0.022,0.549-0.256,1.057-0.661,1.43c-0.486,0.45-1.023,0.544-1.388,0.544c-0.584,0-1.125-0.236-1.523-0.667
		c-0.37-0.4-0.563-0.922-0.541-1.468C127.715,93.889,127.95,93.381,128.356,93.007z"/>
	<path style="fill:#999999;" d="M75.05,96.701c-5.447,0-9.878,4.428-9.878,9.872c0,5.444,4.431,9.873,9.878,9.873
		c5.444,0,9.873-4.429,9.873-9.873C84.924,101.13,80.494,96.701,75.05,96.701z M75.05,109.696c-1.724,0-3.128-1.401-3.128-3.123
		c0-1.721,1.403-3.122,3.128-3.122c1.722,0,3.123,1.401,3.123,3.122C78.174,108.295,76.773,109.696,75.05,109.696z"/>
	<path style="fill:#999999;" d="M237.023,166.238c-0.203-0.951-1.072-3.161-4.763-3.161h-8.238c-1.864,0-3.375,1.511-3.375,3.375
		s1.511,3.375,3.375,3.375h0.109c-7.46,4.101-19.829,10.073-31.117,15.13h-14.066c-1.864,0-3.375,1.511-3.375,3.375
		c0,1.864,1.511,3.375,3.375,3.375h7.716l-3.776,4.949h-110.3l-3.435-4.949h88.944c1.864,0,3.375-1.511,3.375-3.375
		c0-1.864-1.511-3.375-3.375-3.375H62.726c-11.226-5.056-23.526-11.031-30.93-15.13H207.26c1.864,0,3.375-1.511,3.375-3.375
		s-1.511-3.375-3.375-3.375H23.747c-3.693,0-4.565,2.21-4.769,3.161c-0.638,2.979,1.914,5.059,7.512,8.33
		c3.335,1.948,8.01,4.409,13.898,7.313c9.958,4.912,20.132,9.484,20.233,9.53c0.05,0.022,0.101,0.039,0.152,0.059l7.278,10.486
		c0.631,0.909,1.666,1.451,2.772,1.451h113.736c1.052,0,2.045-0.491,2.683-1.328l8.275-10.847c1.99-0.894,11.055-4.989,19.956-9.353
		c5.925-2.905,10.63-5.365,13.986-7.313C235.09,171.298,237.658,169.218,237.023,166.238z"/>
	<path style="fill:#999999;" d="M89.315,154.516c0.643,0.653,1.513,1.009,2.407,1.009c0.279,0,0.559-0.034,0.836-0.105
		c1.165-0.298,2.083-1.193,2.411-2.349l6.725-23.71l10.798,29.471c0.41,1.12,1.38,1.94,2.553,2.158
		c0.206,0.038,0.412,0.057,0.617,0.057c0.964,0,1.893-0.413,2.54-1.153l22.939-26.227l1.838,22.048
		c0.102,1.225,0.862,2.297,1.984,2.8c0.442,0.198,0.912,0.295,1.379,0.295c0.72,0,1.435-0.23,2.03-0.679l21.05-15.853l54.29-40.874
		c0.929-0.7,1.433-1.829,1.332-2.988c-0.1-1.159-0.791-2.185-1.826-2.714l-83.625-42.74c-1.091-0.558-2.398-0.48-3.415,0.202
		c-1.018,0.682-1.586,1.862-1.484,3.084l1.115,13.389l-16.174-3.688c0.134-1.035-0.216-2.085-0.971-2.833
		c-0.872-0.863-2.145-1.187-3.323-0.84L30.217,87.296c-1.138,0.334-2.017,1.241-2.315,2.389c-0.298,1.148,0.028,2.368,0.859,3.214
		L89.315,154.516z M183.689,118.512c-2.134,0-3.869-1.734-3.869-3.865c0-2.134,1.736-3.871,3.869-3.871
		c2.131,0,3.865,1.737,3.865,3.871C187.554,116.778,185.82,118.512,183.689,118.512z M192.74,92.674
		c1.132,0,2.054,0.922,2.054,2.055c0,1.135-0.921,2.057-2.054,2.057c-1.135,0-2.058-0.922-2.058-2.057
		C190.682,93.596,191.605,92.674,192.74,92.674z M184.058,83.269l6.007,3.07c-3.553,1.134-6.133,4.467-6.133,8.39
		c0,4.856,3.951,8.807,8.808,8.807c4.854,0,8.804-3.951,8.804-8.807c0-0.959-0.154-1.883-0.439-2.747l14.239,7.277l-21.049,15.848
		c0.007-0.152,0.01-0.305,0.01-0.459c0-5.857-4.761-10.621-10.615-10.621c-5.856,0-10.619,4.765-10.619,10.621
		c0,4.995,3.47,9.196,8.126,10.32L149.2,149.062l-1.874-22.464l35.904-41.049C183.788,84.91,184.072,84.094,184.058,83.269z
		 M171.735,76.971l-29.092-6.631l-0.717-8.605L171.735,76.971z M158.744,86.914c0,2.605-2.119,4.725-4.725,4.725
		c-2.606,0-4.725-2.119-4.725-4.725c0-2.606,2.119-4.725,4.725-4.725C156.624,82.189,158.744,84.308,158.744,86.914z
		 M118.006,72.501l27.857,6.349c-2.05,2.074-3.32,4.923-3.32,8.063c0,6.327,5.148,11.475,11.475,11.475
		c6.327,0,11.475-5.148,11.475-11.475c0-1.306-0.222-2.56-0.626-3.731l9.329,2.126l-57.324,65.853l-11.936-32.575L118.006,72.501z
		 M60.427,90.451c0.824,0,1.495,0.672,1.495,1.498c0,0.827-0.671,1.501-1.495,1.501c-0.827,0-1.5-0.673-1.5-1.501
		C58.927,91.123,59.6,90.451,60.427,90.451z M53.488,87.491c-0.83,1.286-1.311,2.817-1.311,4.458c0,4.55,3.701,8.251,8.25,8.251
		c4.546,0,8.245-3.701,8.245-8.251c0-3.327-1.979-6.2-4.822-7.503l47.532-13.972l-21.323,75.171l-52.536-53.46L53.488,87.491z"/>
</g>
</svg>
