<?xml version="1.0" encoding="iso-8859-1"?>
<!-- Generator: Adobe Illustrator 17.1.0, SVG Export Plug-In . SVG Version: 6.00 Build 0)  -->
<!DOCTYPE svg PUBLIC "-//W3C//DTD SVG 1.1//EN" "http://www.w3.org/Graphics/SVG/1.1/DTD/svg11.dtd">
<svg version="1.1" id="Artwork" xmlns="http://www.w3.org/2000/svg" xmlns:xlink="http://www.w3.org/1999/xlink" x="0px" y="0px"
	 width="256px" height="256px" viewBox="0 0 256 256" style="enable-background:new 0 0 256 256;" xml:space="preserve">
<g>
	<path style="fill:#999999;" d="M212.895,129.127c-0.005-2.063-0.079-26.805-0.809-51.241c-0.446-14.951-1.048-26.876-1.788-35.446
		c-0.453-5.247-0.946-9.169-1.508-11.988c-0.496-2.489-1.42-7.122-5.229-7.122c-0.264,0-0.529,0.027-0.788,0.081
		c-2.086,0.432-4.038,1.809-8.514,14.957c-2.707,7.95-5.682,18.371-8.376,29.344c-3.199,13.025-10.45,45.171-8.693,62.3
		c1.051,10.247,5.42,12.398,8.899,12.398c0.066,0,9.562,0.035,10.329,0.053c-0.224,8.251-1.684,20.244-3.103,31.89
		c-1.923,15.793-3.912,32.124-3.239,41.683c0.741,10.532,7.785,14.269,13.591,14.269c4.16,0,8.408-1.774,11.363-4.744
		c2.646-2.659,4.092-6.109,4.074-9.713C219.043,203.96,213.273,133.716,212.895,129.127z M210.244,220.8
		c-1.69,1.699-4.211,2.755-6.578,2.755c-4.059,0-6.495-2.838-6.857-7.993c-0.627-8.913,1.322-24.917,3.207-40.394
		c1.723-14.153,3.351-27.521,3.168-36.118c-0.039-1.836-1.539-3.303-3.374-3.303c-2.557,0-11.682-0.139-13.72-0.087
		c-0.411,0-0.801-0.685-1.056-1.259c-2.991-6.746-0.954-28.281,5.317-56.2c4.324-19.249,9.206-35.262,12.353-43.342
		c0.892,6.409,1.997,19.623,2.741,46.857c0.657,24.049,0.702,47.329,0.702,47.561c0,0.091,0.004,0.181,0.011,0.272
		c0.061,0.744,6.137,74.565,6.197,86.335C212.365,218.183,211.213,219.826,210.244,220.8z"/>
	<path style="fill:#999999;" d="M165.099,42.528c0-1.864-1.511-3.375-3.375-3.375c-1.864,0-3.375,1.511-3.375,3.375
		c0,11.399,0.241,22.262,0.434,30.99c0.048,2.161,0.092,4.146,0.128,5.945l-8.203,0.12V44.178c0-1.864-1.511-3.375-3.375-3.375
		c-1.864,0-3.375,1.511-3.375,3.375v35.505l-7.706,0.113V44.178c0-1.864-1.511-3.375-3.375-3.375c-1.864,0-3.375,1.511-3.375,3.375
		v35.718l-7.498,0.11V41.397c0-1.864-1.511-3.375-3.375-3.375s-3.375,1.511-3.375,3.375v44.631c0,11.463,8.807,19.181,22.743,20.323
		v28.529c-2.439,0.037-3.768,0.075-3.793,0.076c-1.633,0.048-2.997,1.258-3.239,2.874c-2.327,15.54-7.292,56.291-6.887,76.15
		c0.247,12.049,8.139,16.325,14.822,16.325c7.764,0,16.4-5.707,16.814-14.926c0.517-11.547-2.548-52.911-3.857-70.575
		c-0.238-3.216-0.416-5.613-0.499-6.846c-0.119-1.772-1.591-3.149-3.367-3.149c-1.145,0-2.226,0.003-3.243,0.007v-28.488
		c12.525-1.381,21.009-10.998,21.009-19.7c0-3.098-0.099-7.582-0.225-13.259C165.338,64.673,165.099,53.852,165.099,42.528z
		 M145.124,145.303c1.3,17.543,4.345,58.628,3.845,69.773c-0.227,5.072-5.391,8.478-10.07,8.478c-5.005,0-7.947-3.54-8.074-9.712
		c-0.355-17.408,3.79-53.895,6.403-72.199c1.777-0.03,4.352-0.064,7.619-0.077C144.926,142.635,145.019,143.89,145.124,145.303z
		 M141.66,99.753c-9.27,0-19.156-3.435-19.634-12.997l36.978-0.543c0,0.141,0.001,0.281,0.001,0.416
		C159.006,92.697,151.429,99.753,141.66,99.753z"/>
	<path style="fill:#999999;" d="M68.476,35.269c-17.413,0-31.579,17.316-31.579,38.6c0,10.075,3.239,19.241,9.122,25.809
		c4.965,5.545,11.493,8.957,18.669,9.848v27.72c-2.439,0.037-3.768,0.075-3.793,0.076c-1.633,0.048-2.997,1.258-3.239,2.874
		c-2.327,15.54-7.292,56.291-6.887,76.15c0.247,12.049,8.139,16.325,14.822,16.325c7.764,0,16.4-5.707,16.814-14.926
		c0.517-11.547-2.548-52.911-3.857-70.575c-0.238-3.216-0.416-5.613-0.499-6.846c-0.119-1.772-1.591-3.149-3.367-3.149
		c-1.145,0-2.226,0.003-3.243,0.007v-27.561c7.502-0.723,14.341-4.186,19.497-9.944c5.882-6.569,9.122-15.734,9.122-25.809
		C100.055,52.585,85.889,35.269,68.476,35.269z M71.815,147.669c1.3,17.543,4.345,58.628,3.845,69.773
		c-0.227,5.072-5.391,8.478-10.07,8.478c-5.004,0-7.947-3.54-8.074-9.712c-0.355-17.408,3.79-53.895,6.403-72.199
		c1.777-0.03,4.352-0.064,7.619-0.077C71.617,145.001,71.71,146.256,71.815,147.669z M68.476,103.019
		c-14.387,0-24.829-12.259-24.829-29.15c0-17.562,11.138-31.85,24.829-31.85c13.691,0,24.83,14.288,24.83,31.85
		C93.305,90.759,82.863,103.019,68.476,103.019z"/>
</g>
</svg>
