<?xml version="1.0" encoding="iso-8859-1"?>
<!-- Generator: Adobe Illustrator 17.1.0, SVG Export Plug-In . SVG Version: 6.00 Build 0)  -->
<!DOCTYPE svg PUBLIC "-//W3C//DTD SVG 1.1//EN" "http://www.w3.org/Graphics/SVG/1.1/DTD/svg11.dtd">
<svg version="1.1" id="Artwork" xmlns="http://www.w3.org/2000/svg" xmlns:xlink="http://www.w3.org/1999/xlink" x="0px" y="0px"
	 width="256px" height="256px" viewBox="0 0 256 256" style="enable-background:new 0 0 256 256;" xml:space="preserve">
<path style="fill:#999999;" d="M220.063,36.057c-7.096,0-49.446,0-92.025,0c-0.025,0-0.05,0-0.075,0c-42.579,0-84.929,0-92.025,0
	c-1.864,0-3.375,1.511-3.375,3.375c0,19.134,8.214,39.515,21.972,54.518c10.639,11.602,29.259,25.131,59.616,28.495
	c-3.879,3.754-6.297,9.007-6.297,14.818c0,7.836,3.638,14.296,9.848,17.71l0.266,35.881c-13.136,0.485-25.164,1.878-33.873,3.923
	c-10.89,2.558-15.962,5.902-15.962,10.525c0,5.078,6.187,8.662,19.47,11.28c10.835,2.136,25.144,3.324,40.358,3.36v0.001
	c0.013,0,0.025,0,0.038,0s0.025,0,0.038,0v-0.001c15.215-0.037,29.523-1.225,40.358-3.36c13.284-2.618,19.47-6.202,19.47-11.28
	c0-4.623-5.072-7.967-15.962-10.525c-8.709-2.045-20.737-3.438-33.873-3.923l0.266-35.881c6.21-3.413,9.848-9.874,9.848-17.71
	c0-5.811-2.418-11.065-6.297-14.818c30.358-3.364,48.977-16.894,59.616-28.495c13.758-15.003,21.972-35.383,21.972-54.518
	C223.438,37.568,221.927,36.057,220.063,36.057z M133.669,149.711c-1.265,0.513-2.096,1.738-2.106,3.102l-0.376,50.725
	c-0.014,1.864,1.486,3.386,3.35,3.4c0.009,0,0.017,0,0.026,0c1.853,0,3.361-1.495,3.375-3.35l0.044-5.981
	c11.572,0.436,22.363,1.607,30.405,3.302c8.597,1.812,11.521,3.627,12.434,4.402c-1.257,1.063-5.521,3.216-15.908,5.054
	c-10.142,1.795-23.228,2.794-36.913,2.827c-13.685-0.033-26.771-1.032-36.913-2.827c-10.387-1.838-14.652-3.991-15.908-5.054
	c0.913-0.775,3.837-2.591,12.434-4.402c8.043-1.695,18.833-2.866,30.405-3.302l0.044,5.981c0.014,1.855,1.522,3.35,3.375,3.35
	c0.008,0,0.017,0,0.026,0c1.864-0.014,3.364-1.536,3.35-3.4l-0.376-50.725c-0.01-1.365-0.841-2.589-2.106-3.102
	c-4.982-2.021-7.726-6.442-7.726-12.448c0-7.492,5.966-13.611,13.396-13.87c7.43,0.258,13.396,6.378,13.396,13.87
	C141.396,143.269,138.652,147.69,133.669,149.711z M196.49,89.387c-16.112,17.57-39.784,26.925-68.49,27.093
	c-28.706-0.167-52.378-9.523-68.49-27.093C47.673,76.48,40.301,59.295,39.405,42.808c6.857,0.002,47.594,0.004,88.558,0.004
	c0.025,0,0.05,0,0.075,0c40.963,0,81.701-0.001,88.558-0.004C215.699,59.295,208.327,76.48,196.49,89.387z"/>
</svg>
