<?xml version="1.0" encoding="iso-8859-1"?>
<!-- Generator: Adobe Illustrator 17.1.0, SVG Export Plug-In . SVG Version: 6.00 Build 0)  -->
<!DOCTYPE svg PUBLIC "-//W3C//DTD SVG 1.1//EN" "http://www.w3.org/Graphics/SVG/1.1/DTD/svg11.dtd">
<svg version="1.1" id="Artwork" xmlns="http://www.w3.org/2000/svg" xmlns:xlink="http://www.w3.org/1999/xlink" x="0px" y="0px"
	 width="256px" height="256px" viewBox="0 0 256 256" style="enable-background:new 0 0 256 256;" xml:space="preserve">
<g>
	<path style="fill:#999999;" d="M174.967,117.102c10.12-8.688,16.1-20.224,17.294-33.363c2.776-30.533-11.607-52.552-12.221-53.475
		c-0.626-0.94-1.68-1.506-2.81-1.506H78.771c-1.129,0-2.184,0.565-2.81,1.506c-0.614,0.922-14.997,22.941-12.221,53.475
		c1.194,13.139,7.174,24.675,17.294,33.363c8.785,7.542,20.268,12.65,33.319,14.852v66.337c-11.87,0.581-22.657,1.906-30.646,3.783
		c-10.89,2.557-15.962,5.902-15.962,10.525c0,5.078,6.187,8.662,19.47,11.28c10.901,2.148,25.317,3.339,40.634,3.362v0.002
		c0.051,0,0.301-0.002,0.301-0.002c15.317-0.023,29.733-1.214,40.634-3.362c13.284-2.618,19.47-6.202,19.47-11.28
		c0-4.623-5.072-7.968-15.962-10.525c-7.988-1.876-18.774-3.201-30.643-3.782v-66.338
		C154.701,129.75,166.182,124.643,174.967,117.102z M168.776,208.205c8.597,1.812,11.521,3.627,12.433,4.402
		c-1.256,1.063-5.521,3.216-15.908,5.054c-10.238,1.812-23.475,2.814-37.301,2.829c-13.826-0.014-27.063-1.017-37.301-2.829
		c-10.387-1.838-14.652-3.991-15.908-5.054c0.913-0.775,3.837-2.591,12.433-4.402c7.278-1.534,16.808-2.637,27.129-3.156v4.68
		c0,1.864,1.511,3.375,3.375,3.375c1.864,0,3.375-1.511,3.375-3.375l0.008-80.731c0-1.864-1.511-3.375-3.375-3.375
		c-0.048,0-0.094,0.005-0.142,0.007c-0.004,0-0.007-0.002-0.011-0.002c-21.184-2.982-44.687-15.713-47.122-42.501
		c-2.16-23.766,7.207-42.349,10.216-47.619h94.646c3.009,5.27,12.376,23.854,10.216,47.619
		c-2.435,26.788-25.938,39.518-47.122,42.501c-0.004,0-0.007,0.002-0.011,0.002c-0.047-0.002-0.094-0.007-0.141-0.007
		c-1.864,0-3.375,1.511-3.375,3.375l0.011,81.181c0,1.864,1.511,3.375,3.375,3.375c1.864,0,3.375-1.511,3.375-3.375v-5.13
		C151.97,205.569,161.499,206.671,168.776,208.205z"/>
	<path style="fill:#999999;" d="M171.172,101.374c6.496-9.941,6.572-19.851,6.572-20.268c0-1.852-1.479-3.456-3.33-3.473l-7.453,0
		c-1.87-0.031-3.392,1.471-3.414,3.335c-0.022,1.864,1.471,3.392,3.335,3.414l3.791,0.064c-1.324,8.367-8.095,29.4-42.673,30.148
		c-34.578-0.748-41.349-21.781-42.673-30.148l64.314-0.064c0.011,0,0.022,0,0.034,0c1.848,0,3.356-1.49,3.374-3.342
		c0.018-1.864-1.478-3.389-3.342-3.408l-68.108,0.098c-1.851,0.017-3.343,1.523-3.343,3.375c0,0.417,0.075,10.326,6.572,20.268
		c5.799,8.875,23.521,19.52,43.022,19.52C147.351,120.894,165.373,110.248,171.172,101.374z"/>
</g>
</svg>
