<?xml version="1.0" encoding="iso-8859-1"?>
<!-- Generator: Adobe Illustrator 17.1.0, SVG Export Plug-In . SVG Version: 6.00 Build 0)  -->
<!DOCTYPE svg PUBLIC "-//W3C//DTD SVG 1.1//EN" "http://www.w3.org/Graphics/SVG/1.1/DTD/svg11.dtd">
<svg version="1.1" id="Artwork" xmlns="http://www.w3.org/2000/svg" xmlns:xlink="http://www.w3.org/1999/xlink" x="0px" y="0px"
	 width="256px" height="256px" viewBox="0 0 256 256" style="enable-background:new 0 0 256 256;" xml:space="preserve">
<path style="fill:#999999;" d="M223.328,32.675c-5.419-5.418-14.236-5.418-19.654,0l-19.856,19.857
	c-3.315-1.736-7.513-1.212-10.295,1.569l-1.627,1.626l-2.335-2.335c-3.427-3.426-9.002-3.426-12.428,0L53.397,157.13
	c-1.66,1.66-2.574,3.867-2.574,6.214c0,2.348,0.914,4.554,2.574,6.214l2.335,2.335l-1.627,1.626c-1.66,1.66-2.574,3.867-2.574,6.214
	c0,1.446,0.349,2.837,1.003,4.081l-19.856,19.856c-2.625,2.625-4.07,6.115-4.07,9.827c0,3.712,1.445,7.202,4.07,9.827
	c2.709,2.709,6.268,4.063,9.827,4.063c3.559,0,7.118-1.355,9.827-4.064l19.857-19.857c1.273,0.666,2.677,1,4.081,1
	c2.25,0,4.501-0.856,6.214-2.569l1.627-1.627l2.334,2.334c1.713,1.713,3.964,2.57,6.215,2.57c2.25,0,4.501-0.857,6.215-2.57
	L202.609,98.87c1.66-1.659,2.575-3.866,2.575-6.214c0-2.347-0.914-4.554-2.575-6.215l-2.334-2.334l1.627-1.627
	c2.781-2.782,3.304-6.979,1.569-10.294l19.857-19.857C228.746,46.911,228.746,38.094,223.328,32.675z M47.56,218.551
	c-2.787,2.787-7.321,2.787-10.108,0.001c-1.35-1.35-2.094-3.145-2.093-5.055c0-1.909,0.743-3.704,2.093-5.054l19.575-19.575
	l10.108,10.108L47.56,218.551z M183.503,67.335c-1.318-1.318-3.455-1.318-4.773,0c-1.318,1.318-1.318,3.455,0,4.773l14.38,14.381
	l0.004,0.004c0.002,0.001,0.003,0.003,0.003,0.003l4.718,4.718c0.385,0.385,0.597,0.897,0.597,1.442
	c0,0.544-0.212,1.056-0.597,1.441L94.101,197.833c-0.795,0.795-2.088,0.795-2.883,0l-18.657-18.657
	c-1.318-1.317-3.455-1.317-4.773,0c-1.318,1.318-1.318,3.455,0,4.773l11.549,11.55l-1.626,1.626
	c-0.794,0.795-2.086,0.794-2.882,0.001l-0.001-0.001l-15.949-15.95c-0.385-0.385-0.597-0.896-0.597-1.441
	c0-0.544,0.212-1.056,0.597-1.441l3.997-3.998c0.005-0.005,0.011-0.009,0.016-0.014c1.236-1.236,1.313-3.191,0.231-4.517
	c-0.072-0.089-0.149-0.174-0.232-0.257l-0.002-0.001l-4.72-4.72c-0.385-0.385-0.597-0.896-0.597-1.441
	c0-0.545,0.212-1.056,0.597-1.441L161.907,58.167c0.795-0.795,2.088-0.795,2.882,0l4.716,4.717c0.002,0.001,0.003,0.003,0.004,0.004
	c1.318,1.318,3.455,1.318,4.773,0l4.014-4.014c0.795-0.795,2.087-0.795,2.882,0l15.949,15.949c0.795,0.795,0.795,2.089,0.001,2.883
	l-1.627,1.626L183.503,67.335z M218.555,47.557l-19.574,19.574l-10.108-10.108l19.574-19.575c2.787-2.787,7.322-2.787,10.108,0
	C221.342,40.235,221.342,44.77,218.555,47.557z"/>
</svg>
