<?xml version="1.0" encoding="iso-8859-1"?>
<!-- Generator: Adobe Illustrator 17.1.0, SVG Export Plug-In . SVG Version: 6.00 Build 0)  -->
<!DOCTYPE svg PUBLIC "-//W3C//DTD SVG 1.1//EN" "http://www.w3.org/Graphics/SVG/1.1/DTD/svg11.dtd">
<svg version="1.1" id="Artwork" xmlns="http://www.w3.org/2000/svg" xmlns:xlink="http://www.w3.org/1999/xlink" x="0px" y="0px"
	 width="256px" height="256px" viewBox="0 0 256 256" style="enable-background:new 0 0 256 256;" xml:space="preserve">
<g>
	<path style="fill:#999999;" d="M45.228,215.013c-0.864,0-1.728-0.329-2.386-0.988c-1.318-1.318-1.318-3.455,0-4.773l36.593-36.593
		c1.318-1.317,3.455-1.317,4.773,0c1.318,1.319,1.318,3.455,0,4.773l-36.593,36.593C46.956,214.684,46.092,215.013,45.228,215.013z"
		/>
	<g>
		<path style="fill:#999999;" d="M206.824,48.321c-4.729-4.729-11.017-7.334-17.705-7.334c-6.688,0-12.975,2.605-17.705,7.334
			l-84.127,84.127c-9.762,9.762-9.762,25.647,0,35.411c4.73,4.729,11.018,7.334,17.706,7.334c6.688,0,12.976-2.605,17.706-7.334
			l84.126-84.125C216.588,73.97,216.587,58.084,206.824,48.321z M202.052,78.959l-84.126,84.125
			c-3.454,3.455-8.047,5.357-12.933,5.357c-4.885,0-9.479-1.902-12.933-5.356c-7.131-7.131-7.131-18.734,0-25.865l84.126-84.126
			c3.454-3.455,8.047-5.357,12.932-5.357c4.885,0,9.478,1.902,12.932,5.357c3.455,3.455,5.357,8.047,5.357,12.933
			C207.409,70.912,205.507,75.505,202.052,78.959z"/>
		<path style="fill:#999999;" d="M191.379,66.948c-1.883,1.884-3.591,1.922-6.697,1.832c-3.224-0.094-7.638-0.224-11.668,3.806
			c-4.03,4.03-3.901,8.445-3.806,11.668c0.091,3.106,0.051,4.815-1.832,6.698c-1.883,1.882-3.592,1.922-6.696,1.831
			c-3.225-0.094-7.638-0.225-11.668,3.805c-4.03,4.03-3.9,8.445-3.806,11.668c0.091,3.106,0.051,4.814-1.831,6.696
			c-1.882,1.883-3.59,1.924-6.696,1.831c-3.224-0.095-7.638-0.225-11.668,3.805c-4.03,4.03-3.9,8.444-3.805,11.668
			c0.091,3.106,0.051,4.814-1.831,6.696c-1.882,1.882-3.591,1.922-6.695,1.83c-3.223-0.094-7.638-0.225-11.667,3.805
			c-1.318,1.318-1.318,3.455,0,4.773c0.659,0.659,1.523,0.988,2.386,0.988c0.864,0,1.728-0.33,2.386-0.989
			c1.882-1.882,3.591-1.921,6.695-1.83c3.224,0.094,7.638,0.225,11.667-3.804c4.03-4.03,3.9-8.445,3.805-11.668
			c-0.091-3.105-0.051-4.813,1.831-6.695c1.882-1.883,3.59-1.923,6.697-1.832c3.222,0.095,7.637,0.225,11.667-3.805
			c4.03-4.03,3.9-8.445,3.805-11.668c-0.091-3.106-0.051-4.814,1.831-6.696c1.883-1.883,3.591-1.922,6.696-1.831
			c3.224,0.095,7.638,0.225,11.668-3.805c4.03-4.031,3.901-8.445,3.806-11.669c-0.091-3.107-0.051-4.815,1.832-6.698
			c1.883-1.883,3.591-1.92,6.697-1.832c3.222,0.094,7.638,0.225,11.668-3.806c1.318-1.318,1.318-3.455,0-4.773
			C194.834,65.63,192.697,65.63,191.379,66.948z"/>
	</g>
</g>
</svg>
