<?xml version="1.0" encoding="iso-8859-1"?>
<!-- Generator: Adobe Illustrator 17.1.0, SVG Export Plug-In . SVG Version: 6.00 Build 0)  -->
<!DOCTYPE svg PUBLIC "-//W3C//DTD SVG 1.1//EN" "http://www.w3.org/Graphics/SVG/1.1/DTD/svg11.dtd">
<svg version="1.1" id="Artwork" xmlns="http://www.w3.org/2000/svg" xmlns:xlink="http://www.w3.org/1999/xlink" x="0px" y="0px"
	 width="256px" height="256px" viewBox="0 0 256 256" style="enable-background:new 0 0 256 256;" xml:space="preserve">
<path style="fill:#999999;" d="M226.465,60.391c-7.087-10.329-34.244-29.022-47.444-30.893c-1.065-0.151-2.241-0.227-3.496-0.227
	c-9.071,0-21.606,3.959-30.312,7.665c-5.938,2.527-12.737,5.949-16.68,9.682c-0.811-1.36-1.639-2.742-2.49-4.155
	c-0.935-1.553-2.929-2.09-4.518-1.217c-1.588,0.873-2.203,2.845-1.393,4.467c5.737,11.475,3.89,35.945-4.941,65.458
	c-6.79,22.691-15.843,41.937-21.151,48.324c-7.062-6.874-16.698-11.116-27.308-11.116c-21.601,0-39.175,17.574-39.175,39.175
	c0,21.601,17.574,39.175,39.175,39.175c21.601,0,39.175-17.574,39.175-39.175c0-8.562-2.763-16.489-7.441-22.943
	c7.598-8.452,17.237-31.604,23.192-51.505c3.848-12.859,8.856-33.05,8.572-50.233c20.069,35.111,24.046,50.731,24.228,84.069
	c-17.736,3.735-31.092,19.504-31.092,38.335c0,21.601,17.574,39.175,39.175,39.175c21.601,0,39.175-17.574,39.175-39.175
	c0-21.601-17.574-39.175-39.175-39.175c-0.448,0-0.894,0.01-1.338,0.025c-0.217-28.604-3.405-45.08-16.666-71.046
	c5.742,4.25,17.18,11.956,26.152,13.228c1.061,0.15,2.247,0.227,3.524,0.227c9.171,0,22.607-3.908,32.124-7.565
	c5.539-2.128,10.42-4.388,14.117-6.535c4.857-2.821,7.279-5.184,7.853-7.663C228.738,64.912,228.135,62.825,226.465,60.391z
	 M66.733,219.979c-17.879,0-32.425-14.546-32.425-32.425c0-17.879,14.546-32.425,32.425-32.425
	c17.879,0,32.425,14.546,32.425,32.425C99.158,205.433,84.612,219.979,66.733,219.979z M194.967,185.275
	c0,17.879-14.546,32.425-32.425,32.425c-17.879,0-32.425-14.546-32.425-32.425c0-17.879,14.546-32.425,32.425-32.425
	C180.421,152.85,194.967,167.396,194.967,185.275z M202.885,75.06c-11.054,4.148-22.04,6.724-28.671,6.724
	c-0.962,0-1.829-0.054-2.578-0.16c-5.652-0.801-15.36-5.986-24.73-13.211c-6.013-4.636-9.9-8.505-12.198-11.281
	c-0.13-0.225-0.261-0.452-0.392-0.679c12.404,1.556,40.957,5.302,59.414,9.005c0.224,0.045,0.447,0.067,0.668,0.067
	c1.575,0,2.984-1.108,3.306-2.712c0.367-1.828-0.818-3.606-2.645-3.973c-18.573-3.726-47.156-7.483-59.737-9.063
	c2.641-1.86,6.939-4.304,13.347-6.971c10.056-4.185,20.347-6.784,26.857-6.784c0.939,0,1.796,0.054,2.549,0.161
	c5.61,0.795,15.961,6.062,26.37,13.417c10.532,7.443,16.225,13.534,17.141,15.737C220.32,66.822,214.749,70.609,202.885,75.06z"/>
</svg>
