<?xml version="1.0" encoding="iso-8859-1"?>
<!-- Generator: Adobe Illustrator 17.1.0, SVG Export Plug-In . SVG Version: 6.00 Build 0)  -->
<!DOCTYPE svg PUBLIC "-//W3C//DTD SVG 1.1//EN" "http://www.w3.org/Graphics/SVG/1.1/DTD/svg11.dtd">
<svg version="1.1" id="Artwork" xmlns="http://www.w3.org/2000/svg" xmlns:xlink="http://www.w3.org/1999/xlink" x="0px" y="0px"
	 width="256px" height="256px" viewBox="0 0 256 256" style="enable-background:new 0 0 256 256;" xml:space="preserve">
<g>
	<path style="fill:#999999;" d="M230.637,73.532h-33.033c-1.74,0-3.15,1.41-3.15,3.15c0,1.74,1.41,3.15,3.15,3.15h4.748
		C200.697,119.412,167.98,151.1,128,151.1c-39.98,0-72.697-31.688-74.353-71.268h126.631c1.74,0,3.15-1.41,3.15-3.15
		c0-1.74-1.41-3.15-3.15-3.15H25.363c-1.74,0-3.15,1.41-3.15,3.15c0,28.257,11.004,54.822,30.984,74.802
		c19.981,19.98,46.546,30.984,74.803,30.984c28.257,0,54.822-11.004,74.802-30.984c19.98-19.981,30.984-46.546,30.984-74.802
		C233.787,74.942,232.377,73.532,230.637,73.532z M128,176.168c-53.803,0-97.767-42.932-99.438-96.336h18.787
		C49.01,122.885,84.547,157.4,128,157.4c43.452,0,78.989-34.515,80.65-77.568h18.787C225.767,133.236,181.803,176.168,128,176.168z"
		/>
	<path style="fill:#999999;" d="M76.254,107.988v7.915c0,1.864,1.511,3.375,3.375,3.375s3.375-1.511,3.375-3.375v-7.915
		c0-1.864-1.511-3.375-3.375-3.375S76.254,106.124,76.254,107.988z"/>
	<path style="fill:#999999;" d="M102.504,125.643v7.015c0,1.864,1.511,3.375,3.375,3.375s3.375-1.511,3.375-3.375v-7.015
		c0-1.864-1.511-3.375-3.375-3.375S102.504,123.778,102.504,125.643z"/>
	<path style="fill:#999999;" d="M91.404,88.642v7.015c0,1.864,1.511,3.375,3.375,3.375s3.375-1.511,3.375-3.375v-7.015
		c0-1.864-1.511-3.375-3.375-3.375S91.404,86.778,91.404,88.642z"/>
	<path style="fill:#999999;" d="M117.354,99.383v7.915c0,1.864,1.511,3.375,3.375,3.375s3.375-1.511,3.375-3.375v-7.915
		c0-1.864-1.511-3.375-3.375-3.375S117.354,97.519,117.354,99.383z"/>
	<path style="fill:#999999;" d="M174.581,93.926v7.465c0,1.864,1.511,3.375,3.375,3.375c1.864,0,3.375-1.511,3.375-3.375v-7.465
		c0-1.864-1.511-3.375-3.375-3.375C176.092,90.551,174.581,92.062,174.581,93.926z"/>
	<path style="fill:#999999;" d="M158.004,115.903v7.465c0,1.864,1.511,3.375,3.375,3.375c1.864,0,3.375-1.511,3.375-3.375v-7.465
		c0-1.864-1.511-3.375-3.375-3.375C159.515,112.528,158.004,114.039,158.004,115.903z"/>
	<path style="fill:#999999;" d="M143.154,92.149v7.915c0,1.864,1.511,3.375,3.375,3.375c1.864,0,3.375-1.511,3.375-3.375v-7.915
		c0-1.864-1.511-3.375-3.375-3.375C144.665,88.774,143.154,90.285,143.154,92.149z"/>
	<path style="fill:#999999;" d="M131.904,125.643v7.915c0,1.864,1.511,3.375,3.375,3.375c1.864,0,3.375-1.511,3.375-3.375v-7.915
		c0-1.864-1.511-3.375-3.375-3.375C133.415,122.268,131.904,123.778,131.904,125.643z"/>
</g>
</svg>
