<?xml version="1.0" encoding="iso-8859-1"?>
<!-- Generator: Adobe Illustrator 17.1.0, SVG Export Plug-In . SVG Version: 6.00 Build 0)  -->
<!DOCTYPE svg PUBLIC "-//W3C//DTD SVG 1.1//EN" "http://www.w3.org/Graphics/SVG/1.1/DTD/svg11.dtd">
<svg version="1.1" id="Artwork" xmlns="http://www.w3.org/2000/svg" xmlns:xlink="http://www.w3.org/1999/xlink" x="0px" y="0px"
	 width="256px" height="256px" viewBox="0 0 256 256" style="enable-background:new 0 0 256 256;" xml:space="preserve">
<path style="fill:#999999;" d="M203.867,103.879c-7.425-11.619-17.372-21.328-29.055-28.455c9.487-2.018,11.44-3.583,12.454-4.915
	c0.715-0.938,1.018-2.064,0.855-3.172c-0.862-5.86-9.009-8.25-28.121-8.25c-8.408,0-16.733,0.509-21.462,0.859l1.831-26.652
	c0.062-0.904-0.242-1.796-0.844-2.473c-0.602-0.678-1.452-1.084-2.357-1.129l-12.75-0.625c-1.852-0.092-3.429,1.328-3.535,3.178
	l-1.606,28.096c-4.385-0.259-12.391-0.653-20.515-0.653c-23.013,0-27.65,2.98-29.233,6.201c-0.575,1.171-0.565,2.527,0.028,3.721
	c0.786,1.581,2.41,3.347,11.294,6.026c-11.717,7.221-21.671,17.044-29.049,28.767c-9.011,14.316-13.773,30.867-13.773,47.862
	c0,23.61,9.234,43.07,26.704,56.276c15.921,12.035,37.799,18.396,63.269,18.396c25.47,0,47.348-6.361,63.269-18.396
	c17.47-13.206,26.704-32.666,26.704-56.276C217.972,135.051,213.095,118.319,203.867,103.879z M98.761,66.438
	c11.783,0,23.326,0.847,23.441,0.856c0.904,0.066,1.794-0.231,2.475-0.828c0.681-0.597,1.093-1.442,1.145-2.345l1.609-28.148
	l5.968,0.293l-1.864,27.131c-0.068,0.987,0.301,1.955,1.009,2.646c0.708,0.691,1.686,1.038,2.669,0.946
	c0.124-0.012,12.56-1.151,24.786-1.151c10.682,0,16.144,0.865,18.897,1.643c-5.168,1.505-15.211,3.283-23.962,4.363
	c-1.175,0.145-2.188,0.896-2.67,1.977c-0.482,1.082-0.361,2.337,0.318,3.307c6.576,9.397,12.125,19.553,13.115,23.748
	c-6.075-1.842-22.676-12.276-36.173-22.01c-0.589-0.425-1.282-0.638-1.974-0.638c-0.686,0-1.372,0.209-1.958,0.626
	c-12.073,8.6-26.27,17.904-33.331,21.565c2.527-5.104,8.006-13.788,13.163-21.068c0.663-0.936,0.805-2.144,0.378-3.208
	c-0.427-1.064-1.365-1.839-2.491-2.057c-8.971-1.737-19.191-4.283-24.536-6.231C81.875,67.16,87.746,66.438,98.761,66.438z
	 M128,220.187c-40.232,0-83.222-17.843-83.222-67.922c0-31.473,17.379-59.83,45.393-74.145c2.51,0.604,4.88,1.134,6.832,1.555
	c-1.479,2.188-3.353,5.019-5.21,7.99c-7.984,12.774-8.073,15.959-7.529,17.942c0.349,1.272,1.184,2.259,2.352,2.779
	c0.56,0.25,1.184,0.376,1.854,0.376c1.482,0,4.566,0,23.527-12.446c6.411-4.208,12.524-8.456,15.546-10.578
	c2.934,2.07,8.786,6.141,15.067,10.172c16.755,10.755,22.064,12.001,24.599,12.001h0.002c1.929-0.001,3.107-0.773,3.755-1.422
	c3.122-3.122,1.811-8.933-4.524-20.057c-1.824-3.202-3.744-6.263-5.281-8.629c0.953-0.139,1.998-0.297,3.101-0.47
	c0.013,0.007,0.025,0.015,0.038,0.021c28.943,14.052,46.924,42.756,46.924,74.911C211.222,202.344,168.232,220.187,128,220.187z"/>
</svg>
