<?xml version="1.0" encoding="iso-8859-1"?>
<!-- Generator: Adobe Illustrator 17.1.0, SVG Export Plug-In . SVG Version: 6.00 Build 0)  -->
<!DOCTYPE svg PUBLIC "-//W3C//DTD SVG 1.1//EN" "http://www.w3.org/Graphics/SVG/1.1/DTD/svg11.dtd">
<svg version="1.1" id="Artwork" xmlns="http://www.w3.org/2000/svg" xmlns:xlink="http://www.w3.org/1999/xlink" x="0px" y="0px"
	 width="256px" height="256px" viewBox="0 0 256 256" style="enable-background:new 0 0 256 256;" xml:space="preserve">
<path style="fill:#999999;" d="M201.53,70.007c-7.442-8.973-17.941-11.155-25.438-11.406c-11.756-0.382-20.236,4.47-24.648,7.827
	c-2.263-1.635-4.031-2.343-4.621-2.552l-0.379-9.29c-0.001-0.023-0.002-0.046-0.004-0.069c-0.175-2.849-1.488-17.063-10.199-17.063
	h-14.512c-8.711,0-10.024,14.213-10.199,17.063c-0.001,0.023-0.003,0.047-0.004,0.07l-0.379,9.345
	c-0.834,0.313-3.019,1.261-5.658,3.409c-3.815-2.935-11.811-7.785-22.984-7.785c-1.312,0-2.651,0.067-3.978,0.2
	c-10.091,1.009-18.813,5.734-24.558,13.307c-7.156,9.433-9.485,22.727-6.735,38.446c6.438,36.795,16.62,74.861,16.919,75.974
	c0.15,0.584,2.012,7.567,6.778,14.755c6.645,10.021,15.749,15.629,26.327,16.218c1.114,0.062,2.205,0.094,3.244,0.094
	c5.907,0,10.586-0.958,15.173-3.107c0.24-0.113,0.462-0.254,0.665-0.415c3.251,1.545,7.047,2.399,11.506,2.399
	c4.468,0,8.521-0.876,12.149-2.595c0.296,0.265,0.637,0.483,1.018,0.632c4.767,1.867,10.306,2.819,17.429,2.997
	c0.259,0.006,0.519,0.01,0.774,0.01h0.001c10.474,0,19.47-5.465,26.013-15.803c4.527-7.153,6.362-14.245,6.59-15.174
	c0.563-1.952,11.308-39.502,16.932-76.051C211.569,93.122,209.139,79.182,201.53,70.007z M118.27,54.901
	c0.022-0.319,0.243-3.285,1.056-6.227c0.925-3.346,2.038-4.471,2.404-4.471h14.512c1.072,0,3.087,4.893,3.46,10.695l0.263,6.441
	c-3.643-0.799-7.35-1.203-11.07-1.203c-4.184,0-7.878,0.511-10.884,1.161L118.27,54.901z M100.503,211.797
	c-0.914,0-1.88-0.028-2.868-0.083c-20.369-1.134-26.882-25.673-26.944-25.915c-0.004-0.018-0.009-0.035-0.013-0.052
	c-0.103-0.381-10.346-38.553-16.794-75.404c-2.418-13.822-0.529-25.303,5.463-33.202c4.598-6.061,11.648-9.85,19.851-10.67
	c1.106-0.111,2.218-0.167,3.307-0.167c7.921,0,13.878,2.951,17.363,5.298c-6.118,9.221-9.217,21.741-9.217,37.282
	c0,3.037,0.121,6.217,0.361,9.451c0.726,9.803,2.934,39.633,4.739,52.469c1.992,14.168,4.789,29.812,12.651,40.119
	C106.356,211.441,103.814,211.797,100.503,211.797z M102.562,169.151c-1.75-12.451-3.935-41.986-4.653-51.693
	c-1.581-21.337,2.826-33.08,6.801-39.174c4.192-6.426,8.649-7.982,8.86-8.053l0.165-0.055c0.128-0.043,0.254-0.094,0.375-0.152
	l0.19-0.091c0.06-0.028,6.079-2.827,14.718-2.827c5.202,0,10.297,1.003,15.174,2.993l0.083,0.033
	c0.048,0.019,0.096,0.037,0.145,0.054l0.105,0.036c0.008,0.003,0.04,0.013,0.048,0.016c0.188,0.063,4.646,1.619,8.838,8.045
	c3.975,6.094,8.382,17.837,6.801,39.175c-0.718,9.706-2.903,39.242-4.653,51.692c-2.105,14.967-5.421,25.524-10.139,32.273
	c-4.412,6.311-9.996,9.25-17.575,9.25C113.307,210.674,106.927,200.196,102.562,169.151z M202.079,110.412
	c-5.678,36.904-16.654,74.893-16.764,75.272c-0.015,0.053-0.031,0.111-0.044,0.164c-0.062,0.259-6.389,25.871-26.055,25.87
	c-0.2,0-0.402-0.003-0.606-0.008c-3.879-0.096-7.19-0.437-10.097-1.05c8.733-10.689,11.997-26.636,13.857-39.855
	c1.794-12.756,4.001-42.525,4.727-52.306l0.012-0.163c1.849-24.953-3.774-39.574-9.664-47.883
	c3.933-2.552,10.198-5.388,18.422-5.105c6.113,0.204,14.626,1.926,20.467,8.968C202.658,81.941,204.591,94.086,202.079,110.412z"/>
</svg>
