<?xml version="1.0" encoding="iso-8859-1"?>
<!-- Generator: Adobe Illustrator 17.1.0, SVG Export Plug-In . SVG Version: 6.00 Build 0)  -->
<!DOCTYPE svg PUBLIC "-//W3C//DTD SVG 1.1//EN" "http://www.w3.org/Graphics/SVG/1.1/DTD/svg11.dtd">
<svg version="1.1" id="Artwork" xmlns="http://www.w3.org/2000/svg" xmlns:xlink="http://www.w3.org/1999/xlink" x="0px" y="0px"
	 width="256px" height="256px" viewBox="0 0 256 256" style="enable-background:new 0 0 256 256;" xml:space="preserve">
<path style="fill:#999999;" d="M210.545,77.206c-5.718-10.323-15.235-6.594-16.665-6.133c-11.539-10.82-28.051-16.751-46.789-16.751
	c-18.199,0-37.58,5.747-54.575,16.182c-17.655,10.842-31.856,26.15-39.985,43.106c-7.773,16.213-9.631,33.061-5.309,47.711
	c-4.261,4.66-5.043,11.66-1.65,17.184c2.624,4.272,7.193,6.823,12.222,6.823c1.314,0,2.602-0.175,3.85-0.521
	c11.542,10.894,28.101,16.867,46.911,16.868c0.002,0,0.003,0,0.006,0c18.458,0,37.328-5.596,54.567-16.182
	c17.644-10.835,31.838-26.132,39.97-43.075c7.756-16.161,9.635-32.955,5.373-47.578C213.066,90.22,213.794,83.073,210.545,77.206z
	 M201.385,94.808c4.561,13.443,3.008,29.315-4.372,44.693c-7.577,15.787-20.865,30.079-37.416,40.242
	c-15.946,9.792-34.069,15.184-51.035,15.184h-0.004c-17.846-0.001-33.348-5.817-43.65-16.375c-0.65-0.666-1.304-1.42-2.881-0.883
	c-0.458,0.156-7.914,2.69-11.417-2.28c-2.226-3.159-0.924-8.648,2.145-11.046c1.132-0.884,1.581-2.388,1.118-3.748
	c-4.58-13.445-2.631-28.675,4.748-44.066c7.575-15.8,20.868-30.102,37.43-40.271c15.946-9.793,34.073-15.185,51.042-15.185
	c17.819,0,33.307,5.801,43.612,16.335c1.047,1.071,2.676,1.323,3.998,0.619c1.111-0.591,8.046-3.052,10.616,3.074
	c1.722,4.105,0.628,7.543-2.675,9.86C201.416,91.822,200.903,93.389,201.385,94.808z"/>
</svg>
