<?xml version="1.0" encoding="iso-8859-1"?>
<!-- Generator: Adobe Illustrator 17.1.0, SVG Export Plug-In . SVG Version: 6.00 Build 0)  -->
<!DOCTYPE svg PUBLIC "-//W3C//DTD SVG 1.1//EN" "http://www.w3.org/Graphics/SVG/1.1/DTD/svg11.dtd">
<svg version="1.1" id="Artwork" xmlns="http://www.w3.org/2000/svg" xmlns:xlink="http://www.w3.org/1999/xlink" x="0px" y="0px"
	 width="256px" height="256px" viewBox="0 0 256 256" style="enable-background:new 0 0 256 256;" xml:space="preserve">
<path style="fill:#999999;" d="M228.939,55.818c-0.077-0.104-0.159-0.206-0.249-0.302c-2.628-2.82-6.041-4.901-9.912-6.042
	c-2.945-9.758-10.35-15.848-19.371-15.91c-0.05,0-0.098,0-0.148,0c-12.032,0-21.862,9.747-21.941,21.795
	c-0.02,3.043,0.566,5.971,1.739,8.707c-2.559,2.463-14.209,13.664-21.171,20.359l-2.305,2.217
	c-3.801-2.205-8.772-1.599-12.408,1.699c-2.6,2.353-21.753,5.09-39.958,5.022c-18.205-0.069-41.248,1.321-56.619,15.367
	c-29.26,26.742-34.309,69.025-11.253,94.255c10.947,11.976,26.172,18.872,42.872,19.417c0.712,0.023,1.422,0.035,2.132,0.035
	c17.158,0,33.628-6.775,46.585-19.213c18.229-17.496,22.674-26.417,28.303-37.712c2.596-5.209,5.538-11.114,10.312-18.75
	c3.591-5.743,6.604-10.352,9.025-14.055c4.785-7.32,7.421-11.351,8.321-14.669c0.546-2.012,0.419-3.692-0.092-5.144
	c2.854-2.972,9.46-9.873,14.752-15.402c3.237-3.382,5.981-6.249,7.07-7.383c2.742,1.175,5.683,1.752,8.706,1.739
	c12.098-0.08,21.875-9.989,21.795-22.09C235.086,64.314,232.851,59.461,228.939,55.818z M213.283,85.098c-0.036,0-0.071,0-0.107,0
	c-2.234,0-4.37-0.47-6.362-1.403l-0.03-0.016c-2.254-1.236-4.601-0.769-6.605,1.312c-0.539,0.559-3.676,3.838-7.502,7.834
	c-4.895,5.113-10.915,11.403-14.046,14.667c-1.37-0.987-3.292-0.816-4.46,0.462c-1.257,1.376-1.161,3.511,0.214,4.768
	c2.369,2.165,2.244,2.628,1.994,3.55c-0.62,2.285-3.193,6.221-7.456,12.742c-2.438,3.729-5.472,8.369-9.099,14.17
	c-4.946,7.912-7.966,13.972-10.63,19.318c-5.545,11.128-9.552,19.168-26.936,35.853c-12.171,11.683-27.733,17.825-43.823,17.302
	c-14.866-0.486-28.401-6.603-38.11-17.225c-20.544-22.482-15.688-60.487,10.824-84.719c13.577-12.406,40.61-13.668,53.777-13.568
	c22.725,0.911,36.716-1.314,42.779-6.802c1.334-1.21,3.355-1.858,4.884-0.595l8.956,8.025c1.39,1.242,3.523,1.123,4.765-0.267
	c1.242-1.39,1.123-3.523-0.267-4.766l-5.28-4.719l1.801-1.731c7.523-7.234,20.517-19.727,21.608-20.78
	c2.084-2.005,2.551-4.351,1.315-6.607l-0.017-0.031c-0.946-2.016-1.418-4.193-1.403-6.469c0.055-8.376,6.929-15.153,15.294-15.09
	c7.16,0.049,11.187,5.389,12.881,10.89c0.174,0.571,0.48,2.265,1.288,3.414c0.933,1.326,2.578,1.813,3.571,2.183
	c6.094,1.917,11.222,5.842,11.271,13.002C228.429,78.181,221.66,85.042,213.283,85.098z"/>
</svg>
