<?xml version="1.0" encoding="iso-8859-1"?>
<!-- Generator: Adobe Illustrator 17.1.0, SVG Export Plug-In . SVG Version: 6.00 Build 0)  -->
<!DOCTYPE svg PUBLIC "-//W3C//DTD SVG 1.1//EN" "http://www.w3.org/Graphics/SVG/1.1/DTD/svg11.dtd">
<svg version="1.1" id="Artwork" xmlns="http://www.w3.org/2000/svg" xmlns:xlink="http://www.w3.org/1999/xlink" x="0px" y="0px"
	 width="256px" height="256px" viewBox="0 0 256 256" style="enable-background:new 0 0 256 256;" xml:space="preserve">
<path style="fill:#999999;" d="M223.495,107.728c-2.883,0-8.665,0.015-8.76,0.006c-2.303-21.71-10.137-37.901-23.311-48.143
	c-17.658-13.729-38.954-12.125-43.976-11.514c-0.963-2.603-2.168-4.725-3.618-6.349c-2.741-3.072-6.397-4.506-10.564-4.149
	c-15.651,1.341-22.504,8.264-25.486,13.612c-1.049-1.045-2.302-2.122-3.759-3.101c-4.825-3.241-12.814-6.028-23.469-0.898
	c-10.387,5.001-13.946,11.461-15.104,16c-0.278,1.09-0.435,2.124-0.509,3.079c-1.251-0.302-2.664-0.527-4.196-0.58
	c-5.191-0.184-12.617,1.608-18.59,11.165c-7.647,12.235-3.838,24.536-0.815,30.813c-2.871-0.002-6.315,0-9.122,0
	c-1.864,0-3.081,0.971-3.081,2.834c0,23.013,0.65,41.838,8.828,57.197c7.267,13.649,20.109,24.116,42.295,34.247
	c-2.599,2.881-4.231,7.604-4.231,13.152c0,1.864,1.511,3.375,3.375,3.375h90.986c1.864,0,3.375-1.511,3.375-3.375
	c0-4.99-1.321-9.312-3.477-12.227c23.94-10.651,39.09-23.116,47.44-38.959c8.438-16.009,9.137-34.093,9.137-52.764
	C226.864,109.286,225.359,107.728,223.495,107.728z M187.337,64.964c11.487,8.961,18.408,23.331,20.602,42.736
	c-4.034-0.012-8.106-0.025-12.208-0.039c-0.002-0.139-0.011-0.279-0.031-0.421c-1.933-13.528-7.443-23.536-16.378-29.746
	c-10.468-7.275-22.775-7.296-29.031-6.697c0.083-6.239-0.284-11.613-1.097-16.108C154.757,54.185,172.776,53.606,187.337,64.964z
	 M149.814,81.023c0.088-1.157,0.163-2.288,0.228-3.399c4.878-0.555,16.28-0.971,25.473,5.444
	c7.188,5.016,11.695,13.285,13.414,24.57c-14.13-0.051-28.571,0.092-42.703,0.033C146.833,104.487,148.875,93.335,149.814,81.023z
	 M133.843,44.304c2.079-0.178,3.607,0.413,4.95,1.917c2.373,2.658,6.086,10.64,4.295,34.224
	c-1.058,13.932-3.567,26.479-3.592,26.604c-0.026,0.13-0.065,0.491-0.076,0.62c-5.465-0.023-10.962,0.022-16.453,0
	c1.677-26.396-5.574-42.812-10.466-50.475C113.419,54.104,117.412,45.712,133.843,44.304z M83.481,53.274
	c6.161-2.966,11.742-2.868,16.587,0.294c3.824,2.495,5.848,6.034,5.861,6.056c3.922,6.844,12.005,22.565,10.302,48.045
	c-8.341-0.033-16.649,0.028-24.905,0c-1.855-23.279-15.407-35.308-19.56-38.346C71.328,66.709,71.289,59.144,83.481,53.274z
	 M84.562,107.67c-12.211-0.039-23.934-0.044-35.508-0.059c-1.855-2.864-8.75-15.058-1.176-27.177
	c7.819-12.512,17.648-7.291,19.148-6.188C69.905,76.364,82.481,84.489,84.562,107.67z M162.353,198.929
	c-0.012,0.006-0.023,0.011-0.034,0.016h-14.43c-1.864,0-3.375,1.511-3.375,3.375c0,1.864,1.511,3.375,3.375,3.375h15.425
	c0.999,0,2.716,2.267,3.404,6.029H83.075c0.687-3.762,2.404-6.029,3.404-6.029h35.76c1.864,0,3.375-1.511,3.375-3.375
	c0-1.864-1.511-3.375-3.375-3.375H90.26c-0.008-0.003-0.015-0.008-0.023-0.011c-25.221-10.511-39.072-20.801-46.316-34.406
	c-6.492-12.192-7.914-26.776-8.027-50.586c32.906,0.01,181.536,0.581,184.208,0.581C221.638,146.67,216.169,173.121,162.353,198.929
	z"/>
</svg>
