<?xml version="1.0" encoding="iso-8859-1"?>
<!-- Generator: Adobe Illustrator 17.1.0, SVG Export Plug-In . SVG Version: 6.00 Build 0)  -->
<!DOCTYPE svg PUBLIC "-//W3C//DTD SVG 1.1//EN" "http://www.w3.org/Graphics/SVG/1.1/DTD/svg11.dtd">
<svg version="1.1" id="Artwork" xmlns="http://www.w3.org/2000/svg" xmlns:xlink="http://www.w3.org/1999/xlink" x="0px" y="0px"
	 width="256px" height="256px" viewBox="0 0 256 256" style="enable-background:new 0 0 256 256;" xml:space="preserve">
<path style="fill:#999999;" d="M185.301,33.428l-4.808-8.866c-0.887-1.635-2.927-2.245-4.566-1.363l-24.848,13.373l-1.577,0.866
	c-0.682,0.374-1.213,0.973-1.504,1.694l-0.653,1.619l-11.716,28.092c-3.72-0.89-7.532-1.34-11.369-1.34
	c-11.668,0-22.962,4.187-31.802,11.788c-8.274,7.115-13.94,16.797-16.084,27.422c-3.707,2.171-6.08,6.638-6.08,10.145
	c0,2.041,0.874,5.562,2.73,7.805l16.301,105.68c0.254,1.646,1.67,2.86,3.335,2.86h63.749c1.666,0,3.082-1.215,3.335-2.86
	l16.305-105.723c1.852-2.244,2.724-5.744,2.724-7.762c0-3.506-2.34-7.828-6.042-10.07c-0.201-0.212-0.43-0.397-0.681-0.551
	c-2.674-12.635-10.185-23.607-20.992-30.695l10.645-25.574l22.232-11.961c0.79-0.425,1.378-1.147,1.635-2.007
	C185.824,35.143,185.728,34.216,185.301,33.428z M153.512,226.455H95.552l-15.286-99.099h56.619c1.864,0,3.375-1.511,3.375-3.375
	c0-1.864-1.511-3.375-3.375-3.375H78.5c-0.082-0.075-0.168-0.147-0.258-0.215c-0.505-0.47-1.2-2.516-1.2-3.532
	c0-1.235,1.255-3.522,2.838-4.373H169.1c1.73,0.974,2.921,3.269,2.921,4.373c0,1-0.703,3.033-1.188,3.488
	c-0.105,0.08-0.203,0.168-0.298,0.259h-11.15c-1.864,0-3.375,1.511-3.375,3.375c0,1.864,1.511,3.375,3.375,3.375h9.41
	L153.512,226.455z M157.447,44.594c-0.683,0.367-1.219,0.959-1.517,1.675l-12.214,29.343c-0.653,1.569-0.037,3.38,1.437,4.225
	c9.921,5.686,17.002,14.992,19.842,25.899H83.518c4.774-18.46,21.326-31.483,40.739-31.483c4.192,0,8.348,0.623,12.353,1.852
	c1.659,0.509,3.437-0.325,4.105-1.927l13.089-31.403l22.358-12.038l1.59,2.932L157.447,44.594z"/>
</svg>
