<?xml version="1.0" encoding="iso-8859-1"?>
<!-- Generator: Adobe Illustrator 17.1.0, SVG Export Plug-In . SVG Version: 6.00 Build 0)  -->
<!DOCTYPE svg PUBLIC "-//W3C//DTD SVG 1.1//EN" "http://www.w3.org/Graphics/SVG/1.1/DTD/svg11.dtd">
<svg version="1.1" id="Artwork" xmlns="http://www.w3.org/2000/svg" xmlns:xlink="http://www.w3.org/1999/xlink" x="0px" y="0px"
	 width="256px" height="256px" viewBox="0 0 256 256" style="enable-background:new 0 0 256 256;" xml:space="preserve">
<g>
	<path style="fill:#999999;" d="M185.043,60.891c-1.95-0.782-4.058-1.488-6.269-2.097c-0.032-0.009-0.064-0.017-0.096-0.025
		c-13.489-3.295-27.137-3.899-50.678-3.919c-23.541,0.02-37.189,0.624-50.678,3.919c-0.032,0.008-0.064,0.016-0.096,0.025
		c-2.211,0.61-4.319,1.315-6.269,2.097c-14.847,5.976-24.07,18.231-24.07,31.983c0,10.699,6.283,21.564,15.663,27.053
		c0.984,0.563,1.997,1.074,3.012,1.519c0.014,0.006,0.029,0.013,0.044,0.019c1.685,0.711,1.685,0.711,1.758,2.395
		c0.104,2.394,0.105,28.509,0.002,71.646c-0.007,2.052,0.848,3.343,1.568,4.065c0.716,0.719,1.996,1.576,4.028,1.576H128h55.039
		c2.032,0,3.312-0.857,4.028-1.576c0.719-0.722,1.575-2.013,1.568-4.065c-0.103-43.136-0.102-69.252,0.002-71.646
		c0.073-1.684,0.073-1.684,1.758-2.395c0.014-0.006,0.029-0.012,0.044-0.019c1.015-0.445,2.028-0.956,3.012-1.519
		c9.38-5.488,15.663-16.353,15.663-27.053C209.113,79.122,199.89,66.867,185.043,60.891z M190.07,114.083
		c-0.743,0.425-1.534,0.824-2.325,1.172c-2.834,1.199-5.615,2.837-5.853,8.311c-0.146,3.362-0.071,45.292-0.011,70.829H128H74.119
		c0.06-25.538,0.135-67.468-0.011-70.829c-0.237-5.474-3.018-7.112-5.853-8.311c-0.791-0.348-1.582-0.747-2.325-1.172
		c-7.353-4.302-12.293-12.826-12.293-21.21c0-10.939,7.603-20.795,19.837-25.72c1.698-0.681,3.548-1.3,5.498-1.84
		C91.779,62.192,105.041,61.619,128,61.6c22.959,0.019,36.221,0.592,49.028,3.714c1.951,0.54,3.8,1.159,5.498,1.84
		c12.234,4.925,19.837,14.78,19.837,25.72C202.363,101.257,197.423,109.781,190.07,114.083z"/>
	<path style="fill:#999999;" d="M216.747,63.001c-6.133-8.165-14.795-14.097-24.399-16.713c-1.92-0.632-25.13-7.98-64.347-8.133
		c-39.218,0.153-62.428,7.501-64.347,8.133c-9.604,2.615-18.266,8.548-24.399,16.713c-6.106,8.13-9.469,18.143-9.469,28.196
		c0,14.717,7.132,28.639,19.077,37.239c0.163,0.118,0.346,0.24,0.543,0.371c1.063,0.705,1.83,1.214,1.83,3.56v69.278
		c0,8.932,7.266,16.199,16.198,16.199H128h60.567c8.932,0,16.198-7.267,16.198-16.199v-69.278c0-2.346,0.768-2.855,1.83-3.56
		c0.197-0.131,0.38-0.253,0.543-0.371c11.945-8.6,19.077-22.522,19.077-37.239C226.216,81.145,222.853,71.131,216.747,63.001z
		 M203.194,122.959c-0.1,0.073-0.211,0.145-0.33,0.224c-1.451,0.963-4.848,3.217-4.848,9.184v69.278c0,5.21-4.239,9.449-9.448,9.449
		H128H67.433c-5.21,0-9.448-4.239-9.448-9.449v-69.278c0-5.967-3.397-8.222-4.848-9.184c-0.119-0.079-0.23-0.151-0.33-0.224
		c-10.189-7.336-16.272-19.21-16.272-31.762c0-17.73,12.184-33.887,28.971-38.418c0.075-0.02,0.149-0.043,0.221-0.068
		C65.95,52.635,88.359,45.06,128,44.905c39.641,0.155,62.05,7.73,62.273,7.806c0.073,0.025,0.147,0.048,0.221,0.068
		c16.787,4.531,28.971,20.688,28.971,38.418C219.466,103.749,213.383,115.623,203.194,122.959z"/>
</g>
</svg>
