<?xml version="1.0" encoding="iso-8859-1"?>
<!-- Generator: Adobe Illustrator 17.1.0, SVG Export Plug-In . SVG Version: 6.00 Build 0)  -->
<!DOCTYPE svg PUBLIC "-//W3C//DTD SVG 1.1//EN" "http://www.w3.org/Graphics/SVG/1.1/DTD/svg11.dtd">
<svg version="1.1" id="Artwork" xmlns="http://www.w3.org/2000/svg" xmlns:xlink="http://www.w3.org/1999/xlink" x="0px" y="0px"
	 width="256px" height="256px" viewBox="0 0 256 256" style="enable-background:new 0 0 256 256;" xml:space="preserve">
<g>
	<path style="fill:#999999;" d="M124.695,104.596c0-6.434-4.023-11.475-9.16-11.475c-5.136,0-9.16,5.041-9.16,11.475
		s4.024,11.475,9.16,11.475C120.672,116.071,124.695,111.03,124.695,104.596z M115.536,109.321c-0.959,0-2.41-1.884-2.41-4.725
		s1.451-4.725,2.41-4.725c0.959,0,2.41,1.884,2.41,4.725S116.495,109.321,115.536,109.321z"/>
	<path style="fill:#999999;" d="M103.226,123.717c-5.136,0-9.16,5.04-9.16,11.475c0,6.434,4.023,11.475,9.16,11.475
		c5.136,0,9.16-5.041,9.16-11.475C112.386,128.758,108.362,123.717,103.226,123.717z M103.226,139.917
		c-0.959,0-2.41-1.884-2.41-4.725s1.45-4.725,2.41-4.725c0.959,0,2.41,1.884,2.41,4.725S104.185,139.917,103.226,139.917z"/>
	<path style="fill:#999999;" d="M119.136,135.192c0,6.311,3.87,11.276,8.864,11.466c4.994-0.19,8.864-5.156,8.864-11.466
		c0-6.311-3.87-11.276-8.864-11.466C123.006,123.916,119.136,128.882,119.136,135.192z M128,130.526
		c0.935,0.325,2.114,2.104,2.114,4.666c0,2.562-1.179,4.341-2.114,4.666c-0.935-0.325-2.114-2.104-2.114-4.666
		C125.886,132.63,127.065,130.852,128,130.526z"/>
	<path style="fill:#999999;" d="M102.391,154.183c-5.136,0-9.16,5.041-9.16,11.475c0,6.434,4.023,11.475,9.16,11.475
		c5.136,0,9.16-5.04,9.16-11.475C111.551,159.223,107.528,154.183,102.391,154.183z M102.391,170.383
		c-0.959,0-2.41-1.884-2.41-4.725s1.45-4.725,2.41-4.725c0.959,0,2.41,1.884,2.41,4.725S103.351,170.383,102.391,170.383z"/>
	<path style="fill:#999999;" d="M189.63,189.03h-9.138L164.013,72.763c-0.235-1.66-1.654-2.896-3.331-2.901l-8.454-0.027
		l-1.586-21.931c-0.128-1.765-1.597-3.132-3.366-3.132H128h-19.275c-1.769,0-3.239,1.367-3.366,3.132l-1.586,21.931l-8.454,0.027
		c-1.677,0.005-3.096,1.241-3.331,2.901L75.508,189.03H66.37c-1.864,0-3.375,1.511-3.375,3.375v15.449
		c0,1.864,1.511,3.375,3.375,3.375H128h61.63c1.864,0,3.375-1.511,3.375-3.375v-15.449
		C193.005,190.541,191.494,189.03,189.63,189.03z M111.865,51.521H128h16.135l1.323,18.292h-34.917L111.865,51.521z
		 M186.255,204.478H69.745v-8.699l73.093,0.004c1.864,0,3.375-1.511,3.375-3.375s-1.511-3.375-3.375-3.375l-60.512-0.004
		L98.26,76.603h59.48l15.935,112.427l-6.199,0.004c-1.864,0-3.375,1.511-3.375,3.375s1.511,3.375,3.375,3.375h18.78V204.478z"/>
	<path style="fill:#999999;" d="M149.624,104.596c0-6.434-4.024-11.475-9.16-11.475c-5.136,0-9.159,5.041-9.159,11.475
		s4.023,11.475,9.159,11.475C145.601,116.071,149.624,111.03,149.624,104.596z M140.464,109.321c-0.959,0-2.409-1.884-2.409-4.725
		s1.45-4.725,2.409-4.725c0.959,0,2.41,1.884,2.41,4.725S141.424,109.321,140.464,109.321z"/>
	<path style="fill:#999999;" d="M152.774,146.667c5.136,0,9.16-5.041,9.16-11.475c0-6.435-4.023-11.475-9.16-11.475
		c-5.136,0-9.16,5.04-9.16,11.475C143.614,141.627,147.638,146.667,152.774,146.667z M152.774,130.467
		c0.959,0,2.41,1.884,2.41,4.725s-1.45,4.725-2.41,4.725c-0.959,0-2.41-1.884-2.41-4.725S151.815,130.467,152.774,130.467z"/>
	<path style="fill:#999999;" d="M128.314,154.183c-0.105,0-0.21,0.005-0.314,0.01c-0.105-0.004-0.209-0.01-0.314-0.01
		c-5.136,0-9.16,5.041-9.16,11.475c0,6.434,4.024,11.475,9.16,11.475c0.105,0,0.21-0.005,0.314-0.01
		c0.105,0.004,0.209,0.01,0.314,0.01c5.136,0,9.16-5.04,9.16-11.475C137.474,159.223,133.451,154.183,128.314,154.183z
		 M128.314,170.383c-0.1,0-0.206-0.025-0.314-0.065c-0.108,0.04-0.214,0.065-0.314,0.065c-0.959,0-2.41-1.884-2.41-4.725
		s1.451-4.725,2.41-4.725c0.1,0,0.206,0.025,0.314,0.065c0.108-0.04,0.214-0.065,0.314-0.065c0.959,0,2.41,1.884,2.41,4.725
		S129.274,170.383,128.314,170.383z"/>
	<path style="fill:#999999;" d="M153.609,154.183c-5.136,0-9.16,5.041-9.16,11.475c0,6.434,4.024,11.475,9.16,11.475
		c5.136,0,9.16-5.04,9.16-11.475C162.768,159.223,158.745,154.183,153.609,154.183z M153.609,170.383
		c-0.959,0-2.41-1.884-2.41-4.725s1.451-4.725,2.41-4.725c0.959,0,2.41,1.884,2.41,4.725S154.568,170.383,153.609,170.383z"/>
</g>
</svg>
