<?xml version="1.0" encoding="iso-8859-1"?>
<!-- Generator: Adobe Illustrator 17.1.0, SVG Export Plug-In . SVG Version: 6.00 Build 0)  -->
<!DOCTYPE svg PUBLIC "-//W3C//DTD SVG 1.1//EN" "http://www.w3.org/Graphics/SVG/1.1/DTD/svg11.dtd">
<svg version="1.1" id="Artwork" xmlns="http://www.w3.org/2000/svg" xmlns:xlink="http://www.w3.org/1999/xlink" x="0px" y="0px"
	 width="256px" height="256px" viewBox="0 0 256 256" style="enable-background:new 0 0 256 256;" xml:space="preserve">
<g>
	<path style="fill:#999999;" d="M210.293,47.075c-10.389-9.839-22.59-9.746-41.053-9.611c-2.275,0.017-126.578,0.035-126.578,0.035
		c-2.305,0-4.465,1.231-5.627,3.197c-1.184,1.978-1.234,4.466-0.126,6.501c3.556,6.48,12.976,23.681,13.842,25.425
		c0.787,1.591,1.725,4.162,1.725,7.378v110.905v0.113v16.688c0,5.988,4.872,10.86,10.861,10.86h98.752
		c5.984,0,10.853-4.872,10.853-10.86v-1.283h9.627c4.537,0,8.228-4.148,8.228-9.245c0-5.101-3.691-9.25-8.228-9.25h-9.627V64.718
		c6.944-0.137,16.684-0.102,18.822,1.924c0.196,0.186,1.176,1.339,1.176,5.74v69.579c0,7.429,6.046,13.474,13.476,13.474
		c7.428,0,13.472-6.044,13.472-13.474V72.382C219.889,61.62,216.66,53.105,210.293,47.075z M162.089,211.816H63.337
		c-2.267,0-4.111-1.844-4.111-4.11v-13.313h83.282c1.864,0,3.375-1.511,3.375-3.375s-1.511-3.375-3.375-3.375H59.226V80
		c0-4.519-1.318-8.133-2.427-10.375c-1.054-2.12-12.265-22.562-13.809-25.375h119.098c2.262,0,4.103,1.843,4.103,4.108v139.285
		h-6.284c-1.864,0-3.375,1.511-3.375,3.375s1.511,3.375,3.375,3.375h6.284v13.313C166.193,209.972,164.352,211.816,162.089,211.816z
		 M173.257,194.677h9.312c0.603,0,1.478,0.974,1.478,2.5c0,1.523-0.875,2.495-1.478,2.495h-9.312V194.677z M213.139,141.961
		c0,3.707-3.016,6.724-6.722,6.724c-3.709,0-6.726-3.016-6.726-6.724V72.382c0-5.063-1.073-8.542-3.281-10.637
		c-3.824-3.625-12.126-3.987-23.467-3.775c0,0-0.038-10.134-0.038-13.776c15.757-0.095,24.797,0.253,32.747,7.783
		c4.968,4.705,7.487,11.571,7.487,20.406V141.961z"/>
	<path style="fill:#999999;" d="M118.593,59.166h-10.287c-5.986,0-10.856,4.873-10.856,10.862v95.523
		c0,5.987,4.87,10.858,10.856,10.858h10.287c5.986,0,10.856-4.871,10.856-10.858V70.028
		C129.449,64.039,124.579,59.166,118.593,59.166z M122.699,165.55c0,2.265-1.842,4.108-4.106,4.108h-10.287
		c-2.264,0-4.106-1.843-4.106-4.108V70.028c0-2.267,1.842-4.112,4.106-4.112h10.287c2.264,0,4.106,1.844,4.106,4.112V165.55z"/>
</g>
</svg>
