<?xml version="1.0" encoding="iso-8859-1"?>
<!-- Generator: Adobe Illustrator 17.1.0, SVG Export Plug-In . SVG Version: 6.00 Build 0)  -->
<!DOCTYPE svg PUBLIC "-//W3C//DTD SVG 1.1//EN" "http://www.w3.org/Graphics/SVG/1.1/DTD/svg11.dtd">
<svg version="1.1" id="Artwork" xmlns="http://www.w3.org/2000/svg" xmlns:xlink="http://www.w3.org/1999/xlink" x="0px" y="0px"
	 width="256px" height="256px" viewBox="0 0 256 256" style="enable-background:new 0 0 256 256;" xml:space="preserve">
<g>
	<path style="fill:#999999;" d="M127.96,56.78c-39.271,0-71.22,31.949-71.22,71.22c0,39.27,31.949,71.22,71.22,71.22
		c39.272,0,71.222-31.949,71.222-71.22C199.182,88.729,167.232,56.78,127.96,56.78z M127.96,192.47
		c-35.549,0-64.47-28.921-64.47-64.47c0-35.549,28.921-64.47,64.47-64.47c35.55,0,64.472,28.921,64.472,64.47
		C192.432,163.549,163.51,192.47,127.96,192.47z"/>
	<path style="fill:#999999;" d="M127.96,76.164c-28.581,0-51.834,23.253-51.834,51.836c0,28.584,23.252,51.839,51.834,51.839
		c28.583,0,51.837-23.255,51.837-51.839C179.798,99.418,156.544,76.164,127.96,76.164z M127.96,173.09
		c-24.859,0-45.084-20.227-45.084-45.089c0-24.861,20.224-45.086,45.084-45.086c24.861,0,45.087,20.225,45.087,45.086
		C173.048,152.863,152.822,173.09,127.96,173.09z"/>
	<path style="fill:#999999;" d="M229.22,129.538c-0.004-1.686-0.059-18.491-0.554-35.09c-0.306-10.262-0.72-18.452-1.228-24.343
		c-0.314-3.634-0.657-6.358-1.05-8.329c-0.342-1.716-1.143-5.734-4.625-5.734c-0.253,0-0.506,0.026-0.755,0.078
		c-2.156,0.446-3.624,2.133-6.623,10.944c-1.864,5.475-3.911,12.644-5.764,20.19c-2.205,8.977-7.201,31.141-5.981,43.042
		c0.801,7.811,4.332,9.45,7.154,9.45l0.165-0.002c1.332-0.034,2.39-0.051,3.235-0.051c0.976,0,1.583,0.021,2.286,0.046
		c0.094,0.003,0.19,0.007,0.289,0.01c-0.236,5.541-1.171,13.22-2.081,20.689c-1.323,10.868-2.692,22.106-2.224,28.756
		c0.559,7.945,5.936,10.764,10.371,10.764c3.126,0,6.318-1.332,8.538-3.564c2.013-2.024,3.114-4.655,3.101-7.409
		C233.432,180.836,229.508,133.045,229.22,129.538z M225.587,191.634c-0.966,0.971-2.404,1.574-3.753,1.574
		c-2.204,0-3.428-1.51-3.637-4.487c-0.422-6.004,0.906-16.915,2.191-27.467c1.185-9.735,2.305-18.93,2.178-24.897
		c-0.039-1.836-1.539-3.303-3.374-3.303c-1.732,0-8.675,0.664-9.059-0.067c-1.063-1.742-2.278-10.688,3.02-35.347
		c2.425-11.285,5.272-21.403,7.482-27.997c1.128,12.633,1.798,37.293,1.835,60.042c0,0.091,0.004,0.181,0.011,0.272
		c0.042,0.509,4.201,51.04,4.242,59.063C226.728,189.992,226.346,190.872,225.587,191.634z"/>
	<path style="fill:#999999;" d="M59.25,92.735c0-2.134-0.068-5.211-0.154-9.106C58.964,77.677,58.8,68.02,58.8,60.274
		c0-1.864-1.511-3.375-3.375-3.375s-3.375,1.511-3.375,3.375c0,7.82,0.165,17.519,0.298,23.504c0.023,1.046,0.045,2.05,0.065,3.002
		l-3.472,0.051V61.404c0-1.864-1.511-3.375-3.375-3.375s-3.375,1.511-3.375,3.375v25.527l-3.153,0.046V61.404
		c0-1.864-1.511-3.375-3.375-3.375s-3.375,1.511-3.375,3.375v25.672l-3.011,0.044V59.499c0-1.864-1.511-3.375-3.375-3.375
		s-3.375,1.511-3.375,3.375v32.825c0,8.19,6.004,13.787,15.58,14.887v19.335c-0.974,0.018-1.512,0.033-1.567,0.035
		c-1.633,0.048-2.997,1.258-3.239,2.874c-1.598,10.676-5.008,44.078-4.729,57.747c0.173,8.445,5.758,12.224,11.216,12.224
		c5.808,0,12.269-4.297,12.581-11.24c0.357-7.971-1.746-41.746-2.644-53.863c-0.163-2.206-0.285-3.849-0.342-4.694
		c-0.119-1.772-1.591-3.149-3.367-3.149c-0.399,0-0.784,0-1.159,0.002v-19.323C53.479,105.779,59.25,98.943,59.25,92.735z
		 M45.626,187.884c-0.129,2.867-3.122,4.792-5.837,4.792c-2.848,0-4.393-1.941-4.468-5.612c-0.236-11.585,2.46-41.023,4.249-53.791
		c0.904-0.013,2.012-0.025,3.307-0.033c0.036,0.488,0.075,1.017,0.117,1.582C43.807,145.787,45.965,180.314,45.626,187.884z
		 M29.421,93.869l22.997-0.338c-0.606,3.154-4.658,7.133-10.738,7.133C38.978,100.664,30.602,100.141,29.421,93.869z"/>
</g>
</svg>
