<?xml version="1.0" encoding="iso-8859-1"?>
<!-- Generator: Adobe Illustrator 17.1.0, SVG Export Plug-In . SVG Version: 6.00 Build 0)  -->
<!DOCTYPE svg PUBLIC "-//W3C//DTD SVG 1.1//EN" "http://www.w3.org/Graphics/SVG/1.1/DTD/svg11.dtd">
<svg version="1.1" id="Artwork" xmlns="http://www.w3.org/2000/svg" xmlns:xlink="http://www.w3.org/1999/xlink" x="0px" y="0px"
	 width="256px" height="256px" viewBox="0 0 256 256" style="enable-background:new 0 0 256 256;" xml:space="preserve">
<g>
	<path style="fill:#999999;" d="M83.226,167.438c-10.137,0-18.384-7.981-18.384-17.792c0-9.813,8.247-17.797,18.384-17.797
		c10.136,0,18.383,7.984,18.383,17.797C101.609,159.457,93.363,167.438,83.226,167.438z M83.226,138.6
		c-6.415,0-11.634,4.956-11.634,11.047c0,6.088,5.219,11.042,11.634,11.042c6.414,0,11.633-4.953,11.633-11.042
		C94.859,143.555,89.641,138.6,83.226,138.6z"/>
	<path style="fill:#999999;" d="M120.747,98.713c-9.2,0-16.407-5.561-16.407-12.659c0-7.098,7.207-12.658,16.407-12.658
		c9.2,0,16.407,5.56,16.407,12.658C137.154,93.152,129.947,98.713,120.747,98.713z M120.747,80.145
		c-5.691,0-9.657,3.114-9.657,5.908c0,3.148,4.513,5.909,9.657,5.909c5.144,0,9.657-2.761,9.657-5.909
		C130.404,83.259,126.438,80.145,120.747,80.145z"/>
	<path style="fill:#999999;" d="M83.226,167.438c-10.137,0-18.384-7.981-18.384-17.792c0-9.813,8.247-17.797,18.384-17.797
		c10.136,0,18.383,7.984,18.383,17.797C101.609,159.457,93.363,167.438,83.226,167.438z M83.226,138.6
		c-6.415,0-11.634,4.956-11.634,11.047c0,6.088,5.219,11.042,11.634,11.042c6.414,0,11.633-4.953,11.633-11.042
		C94.859,143.555,89.641,138.6,83.226,138.6z"/>
	
		<path style="fill:#999999;stroke:#000000;stroke-width:6.75;stroke-linecap:round;stroke-linejoin:round;stroke-miterlimit:10;" d="
		M66.958,96.834"/>
	<g>
		<path style="fill:#999999;" d="M233.066,96.928c-0.269-0.693-1.484-3.584-3.909-6.143c-17.343-18.326-38.352-31.268-62.443-38.466
			c-13.636-4.074-27.658-6.14-41.677-6.14c-2.832,0-5.378,0.846-7.178,2.387c-0.814,0.701-43.477,36.914-51.897,44.045
			c-1.146,0.975-1.923,2.007-2.31,3.069c-0.616,1.694,0.208,3.572,1.87,4.267c2.467,1.031,3.76,2.712,3.76,4.037
			c0,1.415-1.349,2.828-3.899,3.842c-1.851,0.734-4.013,1.122-6.249,1.122c-1.927,0-3.823-0.292-5.484-0.844
			c-0.044-0.015-1.526-0.586-2.698-0.586c-1.621,0-3.212,0.654-4.727,1.944c-0.282,0.24-1.096,0.905-2.232,1.833
			c-8.66,7.08-14.747,12.166-16.307,13.979c-1.918,2.227-3.024,4-3.401,4.64c-0.753,1.02-2.956,4.484-2.956,10.071v17.395
			c0,3.511,2.343,5.083,4.665,5.083c0.466,0,0.854-0.058,1.111-0.096l0.127-0.018c0.216-0.033,0.453-0.05,0.704-0.05
			c3.144,0,5.703,2.741,5.703,6.109c0,3.364-2.558,6.101-5.703,6.101c-0.22,0-0.44-0.014-0.635-0.038
			c-0.216-0.029-0.439-0.043-0.664-0.043c-2.609,0-5.309,1.927-5.309,5.152v24.19c0,3.449,2.577,6.051,5.994,6.051
			c0.403,0,0.817-0.037,1.227-0.108c2.521-0.436,89.257-15.065,146.652-24.746c26.15-4.411,47.25-7.969,53.905-9.093
			c2.324-0.365,5.094-1.712,5.094-6.05c0-0.191,0.017-2.092,0.045-5.157c0.115-12.705,0.421-46.454,0.421-59.952
			C234.669,101.123,233.345,97.625,233.066,96.928z M141.147,114.429c0.639-2.016,2.113-3.992,8.516-4.794
			c0.564-0.071,1.14-0.106,1.711-0.106c2.961,0,5.821,0.951,7.846,2.609l0.001,0.001l0.001,0c1.27,1.038,2.784,2.837,2.784,5.51
			c0,5.653-4.777,10.252-10.649,10.252c-5.871,0-10.647-4.599-10.647-10.252C140.709,115.743,140.861,115.444,141.147,114.429z
			 M48.267,116.521c1.187-0.971,2.038-1.667,2.334-1.919c0.173-0.147,0.785-0.138,0.918-0.094c2.341,0.778,4.974,1.19,7.615,1.19
			c3.08,0,6.101-0.552,8.741-1.598c5.296-2.107,8.458-5.948,8.458-10.274c0-2.651-1.234-5.141-3.448-7.156
			c-0.203-0.185-0.564-0.598-0.056-1.031c11.671-9.929,48.531-41.18,49.43-41.954c0.553-0.474,1.592-0.757,2.779-0.757
			c22.035,0,64.225,5.521,99.219,42.498c0.064,0.067,0.125,0.135,0.186,0.203l-3.077,0.525l-59.154,9.809
			c-3.054-2.038-6.916-3.185-10.836-3.185c-0.851,0-1.708,0.053-2.55,0.159c-4.47,0.56-10.477,1.957-13.293,7.45L35.773,126.93
			C39.574,123.628,45.768,118.565,48.267,116.521z M227.499,164.606c-0.021,2.272-0.035,3.912-0.042,4.702
			c-7.257,1.225-27.925,4.711-53.375,9.003c-58.408,9.851-137.538,23.198-146.001,24.635v-21.687
			c6.801-0.079,12.31-5.813,12.31-12.85c0-7.041-5.509-12.779-12.31-12.858v-17.365c0-2.413,0.627-2.701,2.434-3.317l103.444-17.377
			c0,0.052,0,0.105,0,0.158c0,9.375,7.804,17.002,17.397,17.002c9.594,0,17.359-7.627,17.399-17.002
			c0.015-3.408-1.259-5.676-1.278-5.716l54.975-9.117l5.12-0.804c0.196,0.866,0.346,1.821,0.346,2.703
			C227.919,118.182,227.614,151.909,227.499,164.606z"/>
		<path style="fill:#999999;" d="M120.747,98.713c9.2,0,16.407-5.561,16.407-12.659c0-7.098-7.207-12.658-16.407-12.658
			c-9.2,0-16.407,5.56-16.407,12.658C104.339,93.152,111.546,98.713,120.747,98.713z M120.747,80.145
			c5.691,0,9.657,3.114,9.657,5.908c0,3.148-4.513,5.909-9.657,5.909c-5.145,0-9.657-2.761-9.657-5.909
			C111.089,83.259,115.055,80.145,120.747,80.145z"/>
	</g>
</g>
</svg>
