<?xml version="1.0" encoding="iso-8859-1"?>
<!-- Generator: Adobe Illustrator 17.1.0, SVG Export Plug-In . SVG Version: 6.00 Build 0)  -->
<!DOCTYPE svg PUBLIC "-//W3C//DTD SVG 1.1//EN" "http://www.w3.org/Graphics/SVG/1.1/DTD/svg11.dtd">
<svg version="1.1" id="Artwork" xmlns="http://www.w3.org/2000/svg" xmlns:xlink="http://www.w3.org/1999/xlink" x="0px" y="0px"
	 width="256px" height="256px" viewBox="0 0 256 256" style="enable-background:new 0 0 256 256;" xml:space="preserve">
<path style="fill:#999999;" d="M219.792,182.727h-9.22c-0.813-24.915-10.883-45.08-28.882-58.409
	c0.006-1.255,0.045-2.71,0.091-4.386c0.37-13.376,1.059-38.276-14.239-54.003c-9.029-9.282-22.311-13.989-39.479-13.989
	c-0.021,0-0.042,0.001-0.064,0.001c-0.022,0-0.043-0.001-0.064-0.001c-17.168,0-30.45,4.707-39.479,13.989
	c-15.298,15.727-14.609,40.627-14.239,54.003c0.046,1.676,0.086,3.131,0.091,4.386c-6.587,4.677-15.832,14.388-20.913,25.181
	c-6.351,13.491-7.809,28.332-7.969,33.229h-9.22c-1.823,0-3.3,1.477-3.3,3.3v14.731c0,1.823,1.477,3.301,3.3,3.301h183.585
	c1.823,0,3.301-1.477,3.301-3.301v-14.731C223.093,184.204,221.615,182.727,219.792,182.727z M93.189,70.532
	c7.739-7.957,19.429-11.99,34.747-11.99c0.022,0,0.043,0.002,0.064,0.002c0.022,0,0.042-0.002,0.064-0.002
	c15.318,0,27.008,4.034,34.747,11.99c13.355,13.729,12.716,36.814,12.372,49.217c-0.002,0.087-0.005,0.166-0.007,0.251
	c-3.468-2.194-10.024-5.039-10.577-5.268c-5.586-2.32-14.353-5.963-26.9-7.035v-4.481c3.083-2.738,4.88-6.677,4.88-10.852
	c0-8.003-6.511-14.515-14.515-14.515c-0.022,0-0.043,0.002-0.064,0.002c-0.022,0-0.043-0.002-0.065-0.002
	c-8.003,0-14.514,6.512-14.514,14.515c0,4.175,1.796,8.114,4.879,10.852v4.481c-12.547,1.073-21.416,4.482-26.9,7.035
	c-2.586,1.204-7.756,3.598-10.577,5.268c-0.002-0.085-0.005-0.164-0.007-0.251C80.473,107.346,79.835,84.261,93.189,70.532z
	 M123.468,98.894c-2.158-1.481-3.446-3.922-3.446-6.53c0-4.364,3.55-7.914,7.913-7.914c0.022,0,0.043,0.004,0.065,0.004
	c0.022,0,0.043-0.004,0.064-0.004c4.364,0,7.913,3.55,7.913,7.914c0,2.608-1.288,5.049-3.446,6.53
	c-0.897,0.615-1.433,1.633-1.433,2.721v5.781c-0.226-0.002-2.533-0.268-6.196,0v-5.781
	C124.902,100.527,124.365,99.509,123.468,98.894z M125.579,113.991c0.796,0,4.044,0,4.841,0c9.87,0,17.505,1.737,23.442,3.7
	c-6.014,1.724-15.207,3.711-25.862,3.811c-10.655-0.101-19.849-2.088-25.862-3.811C108.074,115.728,115.709,113.991,125.579,113.991
	z M216.492,197.458H39.508v-8.13h9.163H170.47c1.823,0,3.301-1.477,3.301-3.301c0-1.823-1.478-3.3-3.301-3.3H52.029
	c0.722-20.894,8.647-47.297,40.332-61.249c0.052-0.021,0.108-0.044,0.16-0.065c2.015,0.827,10.263,4.004,21.907,5.688
	c3.947,0.57,8.544,0.991,13.572,1.025c5.029-0.034,9.625-0.455,13.572-1.025c11.645-1.684,19.893-4.862,21.907-5.688
	c0.053,0.021,0.108,0.044,0.16,0.065c31.685,13.953,39.61,40.355,40.332,61.249l-7.099-0.001c-1.823,0-3.3,1.478-3.3,3.301
	c0,1.823,1.477,3.3,3.3,3.3l19.62,0V197.458z"/>
</svg>
