<?xml version="1.0" encoding="iso-8859-1"?>
<!-- Generator: Adobe Illustrator 17.1.0, SVG Export Plug-In . SVG Version: 6.00 Build 0)  -->
<!DOCTYPE svg PUBLIC "-//W3C//DTD SVG 1.1//EN" "http://www.w3.org/Graphics/SVG/1.1/DTD/svg11.dtd">
<svg version="1.1" id="Artwork" xmlns="http://www.w3.org/2000/svg" xmlns:xlink="http://www.w3.org/1999/xlink" x="0px" y="0px"
	 width="256px" height="256px" viewBox="0 0 256 256" style="enable-background:new 0 0 256 256;" xml:space="preserve">
<path style="fill:#999999;" d="M163.326,76.722l0.504,0.354c1.027,0.721,2.371,0.812,3.487,0.236
	c1.116-0.576,1.819-1.724,1.827-2.979c0.015-2.535-0.093-25.002-8.351-33.31c-2.265-2.278-5.046-3.43-8.067-3.312
	c-4.334,0.164-9.736,0.372-15.455,0.596l0.095-14.475c-0.046-1.849-1.573-3.31-3.419-3.292h-11.894
	c-1.847-0.018-3.374,1.443-3.419,3.292l0.095,14.475c-5.719-0.224-11.121-0.432-15.455-0.596c-3.02-0.118-5.801,1.033-8.067,3.312
	c-8.258,8.307-8.366,30.775-8.351,33.31c0.007,1.255,0.711,2.403,1.827,2.979c1.116,0.576,2.459,0.485,3.487-0.236l0.504-0.354
	c-5.169,20.487-17.594,72.027-17.568,109.656c0.009,12.718,4.358,23.672,12.486,32.992c10.708,12.278,26.827,15.598,39.383,16.081
	c0.343,0.013,1.707,0.013,2.05,0c12.557-0.483,28.675-3.803,39.383-16.081c8.129-9.32,12.477-20.274,12.486-32.992
	C180.92,148.749,168.495,97.209,163.326,76.722z M99.996,45.78c1.183-1.19,2.196-1.327,2.856-1.327
	c0.053,0,12.074,0.46,19.035,0.733c0.912,0.035,1.783-0.293,2.442-0.911c0.659-0.618,1.042-1.475,1.065-2.379L125.3,27.335h5.4
	l-0.093,14.562c0.022,0.903,0.406,1.76,1.065,2.379c0.659,0.618,1.53,0.946,2.442,0.911c6.961-0.274,18.982-0.733,19.035-0.733
	c0.659,0,1.672,0.138,2.856,1.327c3.937,3.958,6.128,21.858,6.128,21.858l-18.385-12.9c-0.589-0.413-1.266-0.612-1.936-0.612
	c-1.024,0-2.034,0.465-2.696,1.342L128,70.192l-11.115-14.725c-0.662-0.877-1.672-1.342-2.696-1.342
	c-0.67,0-1.347,0.199-1.936,0.612l-18.385,12.9C93.868,67.638,96.059,49.738,99.996,45.78z M128.765,228.705
	c-0.256,0.01-1.274,0.01-1.53,0c-21.897-0.842-45.329-14.89-44.929-42.332c0.626-42.934,16.513-106.678,18.896-115.635l12.26-8.603
	l11.877,15.734c0.631,0.836,1.615,1.331,2.662,1.341c1.047-0.01,2.03-0.505,2.662-1.341l11.877-15.734l12.26,8.603
	c2.383,8.957,18.27,72.7,18.896,115.635C174.094,213.815,150.663,227.863,128.765,228.705z"/>
</svg>
