<?xml version="1.0" encoding="iso-8859-1"?>
<!-- Generator: Adobe Illustrator 17.1.0, SVG Export Plug-In . SVG Version: 6.00 Build 0)  -->
<!DOCTYPE svg PUBLIC "-//W3C//DTD SVG 1.1//EN" "http://www.w3.org/Graphics/SVG/1.1/DTD/svg11.dtd">
<svg version="1.1" id="Artwork" xmlns="http://www.w3.org/2000/svg" xmlns:xlink="http://www.w3.org/1999/xlink" x="0px" y="0px"
	 width="256px" height="256px" viewBox="0 0 256 256" style="enable-background:new 0 0 256 256;" xml:space="preserve">
<g>
	<path style="fill:#999999;" d="M128.001,31.938c-52.97,0-96.065,43.093-96.065,96.062c0,52.968,43.095,96.061,96.065,96.061
		c52.969,0,96.062-43.093,96.062-96.061C224.064,75.032,180.97,31.938,128.001,31.938z M128.001,216.51
		c-48.806,0-88.513-39.705-88.513-88.51c0-48.805,39.707-88.511,88.513-88.511c48.805,0,88.51,39.706,88.51,88.511
		C216.512,176.805,176.806,216.51,128.001,216.51z"/>
	<path style="fill:#999999;" d="M184.88,70.464c-14.023-13.996-35.278-23.484-56.694-23.484c-21.418,0-41.553,8.34-56.695,23.484
		c-15.144,15.142-23.485,35.276-23.485,56.694c0,21.419,8.34,41.554,23.484,56.695c15.142,15.145,35.278,23.486,56.696,23.486
		c21.416,0,41.551-8.341,56.693-23.485c15.144-15.14,23.485-35.275,23.485-56.696C208.364,114.002,207.045,92.586,184.88,70.464z
		 M179.54,178.513c-13.717,13.719-31.955,21.274-51.353,21.274c-19.401,0-37.639-7.555-51.356-21.274
		c-13.718-13.716-21.272-31.954-21.272-51.355c0-19.4,7.554-37.637,21.273-51.353c13.716-13.718,31.955-21.272,51.355-21.272
		c19.308,0,40.587,9.731,51.159,21.079c13.3,14.277,21.467,30.326,21.467,51.547C200.812,146.56,193.257,164.799,179.54,178.513z"/>
	<path style="fill:#999999;" d="M116.527,132.621c-0.755-1.823-2.59-2.911-4.909-2.911H68.299c-1.857,0-3.605,0.78-4.797,2.139
		c-1.173,1.339-1.71,3.138-1.471,4.946c1.533,11.386,6.03,22.234,13.005,31.374c1.203,1.575,3.011,2.479,4.962,2.479
		c1.681,0,3.277-0.67,4.495-1.886l30.626-30.618C116.755,136.507,117.282,134.442,116.527,132.621z M80.164,162.411
		c-5.393-7.446-8.976-16.086-10.432-25.149h35.588L80.164,162.411z"/>
	<path style="fill:#999999;" d="M68.299,125.754h43.319c3.44,0,4.628-2.22,4.91-2.901c0.282-0.679,1.012-3.083-1.412-5.511
		l-30.625-30.58c-1.225-1.224-2.83-1.898-4.518-1.898c-1.943,0-3.743,0.899-4.937,2.465c-6.976,9.14-11.473,19.987-13.006,31.376
		c-0.237,1.792,0.296,3.582,1.462,4.912C64.681,124.976,66.434,125.754,68.299,125.754z M80.153,93.103l25.136,25.099H69.737
		C71.196,109.157,74.773,100.537,80.153,93.103z"/>
	<path style="fill:#999999;" d="M117.842,114.689c1.443,1.445,2.886,1.748,3.842,1.748c2.309,0,4.647-1.803,4.647-5.248V67.875
		c0-3.548-1.514-7.041-7.126-6.27c-11.414,1.569-22.283,6.029-31.417,13.002c-1.444,1.102-2.341,2.756-2.461,4.538
		c-0.121,1.81,0.563,3.603,1.879,4.919L117.842,114.689z M118.78,69.299v35.649L93.553,79.731
		C101.005,74.334,109.671,70.751,118.78,69.299z"/>
	<path style="fill:#999999;" d="M121.687,139.079c-0.955,0-2.397,0.303-3.837,1.744l-30.656,30.631
		c-1.308,1.309-1.989,3.096-1.869,4.901c0.119,1.786,1.016,3.445,2.467,4.556c9.144,6.976,20.005,11.472,31.407,13.002
		c0.47,0.063,0.87,0.093,1.258,0.093c1.141,0,4.418-0.357,5.511-4.241c0.788-3.015,0.362-45.438,0.362-45.438
		C126.332,140.881,123.995,139.079,121.687,139.079z M118.78,186.218c-9.103-1.45-17.771-5.037-25.23-10.438l25.23-25.209V186.218z"
		/>
	<path style="fill:#999999;" d="M188.195,129.71h-43.319c-2.319,0-4.154,1.088-4.909,2.911c-0.755,1.822-0.228,3.886,1.409,5.523
		l30.626,30.618c1.218,1.217,2.814,1.886,4.495,1.886c1.951,0,3.759-0.904,4.962-2.479c6.975-9.14,11.472-19.989,13.005-31.374
		c0.239-1.808-0.298-3.608-1.471-4.946C191.8,130.49,190.052,129.71,188.195,129.71z M176.33,162.411l-25.156-25.149h35.588
		C185.306,146.325,181.723,154.965,176.33,162.411z"/>
	<path style="fill:#999999;" d="M139.966,122.854c0.282,0.68,1.47,2.901,4.91,2.901h43.319c1.865,0,3.618-0.779,4.808-2.136
		c1.166-1.33,1.699-3.12,1.462-4.912c-1.533-11.39-6.03-22.236-13.006-31.376c-1.194-1.566-2.994-2.465-4.937-2.465
		c-1.688,0-3.293,0.674-4.518,1.898l-30.625,30.58C138.953,119.77,139.684,122.175,139.966,122.854z M176.341,93.103
		c5.38,7.433,8.957,16.053,10.416,25.099h-35.552L176.341,93.103z"/>
	<path style="fill:#999999;" d="M134.809,116.437c0.956,0,2.4-0.303,3.842-1.748l30.636-30.625c1.316-1.317,2-3.109,1.879-4.919
		c-0.12-1.782-1.017-3.436-2.461-4.538c-9.134-6.974-20.004-11.434-31.417-13.002c-5.612-0.771-7.126,2.722-7.126,6.27v43.315
		C130.162,114.635,132.5,116.437,134.809,116.437z M137.714,69.299c9.108,1.452,17.775,5.035,25.227,10.431l-25.227,25.217V69.299z"
		/>
	<path style="fill:#999999;" d="M138.643,140.823c-1.44-1.441-2.882-1.744-3.837-1.744c-2.308,0-4.645,1.802-4.645,5.247
		c0,0-0.426,42.423,0.362,45.438c1.093,3.884,4.37,4.241,5.511,4.241c0.388,0,0.788-0.03,1.258-0.093
		c11.403-1.53,22.264-6.026,31.407-13.002c1.451-1.11,2.348-2.769,2.467-4.556c0.12-1.805-0.561-3.591-1.869-4.901L138.643,140.823z
		 M137.714,186.218V150.57l25.23,25.209C155.485,181.18,146.817,184.767,137.714,186.218z"/>
</g>
</svg>
