<?xml version="1.0" encoding="iso-8859-1"?>
<!-- Generator: Adobe Illustrator 17.1.0, SVG Export Plug-In . SVG Version: 6.00 Build 0)  -->
<!DOCTYPE svg PUBLIC "-//W3C//DTD SVG 1.1//EN" "http://www.w3.org/Graphics/SVG/1.1/DTD/svg11.dtd">
<svg version="1.1" id="Artwork" xmlns="http://www.w3.org/2000/svg" xmlns:xlink="http://www.w3.org/1999/xlink" x="0px" y="0px"
	 width="256px" height="256px" viewBox="0 0 256 256" style="enable-background:new 0 0 256 256;" xml:space="preserve">
<path style="fill:#999999;" d="M216.011,128c0-48.529-39.481-88.011-88.011-88.011c-48.53,0-88.012,39.481-88.012,88.011
	c0,0.707,0.011,1.426,0.031,2.14v0.001l0,0.007v0.014l0,0.007c0.557,23.047,9.953,44.625,26.458,60.763
	c16.539,16.171,38.388,25.077,61.523,25.077c22.012,0,43.08-8.169,59.323-23.001c16.133-14.732,26.172-34.772,28.269-56.429
	l0.001-0.007v-0.002C215.693,135.549,216.011,131.039,216.011,128z M128.001,47.765c44.241,0,80.235,35.993,80.235,80.235
	c0,0.24-0.005,0.48-0.007,0.721c-0.007,0.408-0.019,0.94-0.039,1.549c-6.001-2.808-16.718-6.917-30.888-6.917
	c-0.98,0-8.84,0.261-11.769,0.642c-2.007-18.938-18.072-33.742-37.533-33.742c-18.781,0-34.398,13.789-37.269,31.775
	c-5.957-1.631-12.069-2.457-18.231-2.457c-8.353,0-16.762,1.564-24.64,4.551C49.889,81.675,85.058,47.765,128.001,47.765z
	 M157.962,128.739c-0.392,16.143-13.776,29.232-29.961,29.232c-16.527,0-29.972-13.445-29.972-29.97
	c0-0.338,0.014-0.672,0.025-1.007l0.007-0.213c0,0-0.001-0.029-0.001-0.043c0.664-15.942,13.836-28.708,29.938-28.708
	c16.526,0,29.972,13.445,29.972,29.97c0,0.071-0.004,0.142-0.006,0.213l-0.007,0.214
	C157.955,128.532,157.957,128.636,157.962,128.739z M128.001,208.234c-42.344,0-77.756-33.748-80.107-75.738
	c7.766-3.374,16.22-5.148,24.605-5.148c6.028,0,12.005,0.89,17.806,2.649c1.042,19.889,17.551,35.749,37.696,35.749
	c9.98,0,19.39-3.857,26.496-10.862c6.321-6.23,10.18-14.316,11.058-23.044c2.945-0.432,8.976-0.651,9.03-0.653
	c0.903-0.038,1.817-0.057,2.717-0.057c14.981,0,25.733,5.191,30.235,7.48C202.304,178.498,168.592,208.234,128.001,208.234z"/>
</svg>
