<?xml version="1.0" encoding="iso-8859-1"?>
<!-- Generator: Adobe Illustrator 17.1.0, SVG Export Plug-In . SVG Version: 6.00 Build 0)  -->
<!DOCTYPE svg PUBLIC "-//W3C//DTD SVG 1.1//EN" "http://www.w3.org/Graphics/SVG/1.1/DTD/svg11.dtd">
<svg version="1.1" id="Artwork" xmlns="http://www.w3.org/2000/svg" xmlns:xlink="http://www.w3.org/1999/xlink" x="0px" y="0px"
	 width="256px" height="256px" viewBox="0 0 256 256" style="enable-background:new 0 0 256 256;" xml:space="preserve">
<path style="fill:#999999;" d="M198.326,27.146l-51.693-3.197c-1.418-0.09-2.743,0.725-3.307,2.032l-1.304,3.023l-21.591,48.702
	H82.717c-1.557,0-2.912,1.065-3.279,2.577l-11.207,46.086H57.882c-1.864,0-3.375,1.511-3.375,3.375v15.021
	c0,1.864,1.511,3.375,3.375,3.375h8.757l10.116,80.961c0.211,1.689,1.647,2.957,3.349,2.957h0.002l71.887-0.052
	c1.662-0.001,3.076-1.212,3.332-2.854l12.662-81.011h8.849c1.864,0,3.375-1.511,3.375-3.375v-15.021
	c0-1.864-1.511-3.375-3.375-3.375h-10.218l-8.699-45.916c-0.302-1.593-1.694-2.747-3.316-2.747h-15.43
	c3.626-8.459,12.591-29.378,15.821-36.932c10.042,0.54,42.252,2.894,42.608,2.92c0.921,0.063,1.826-0.244,2.51-0.863
	c0.684-0.618,1.085-1.489,1.11-2.41l0.27-9.813C201.542,28.788,200.141,27.258,198.326,27.146z M173.462,141.39h-17.466
	c-1.864,0-3.375,1.511-3.375,3.375c0,1.864,1.511,3.375,3.375,3.375h5.159l-12.053,77.117l-66.019,0.048l-9.641-77.165h57.411
	c1.864,0,3.375-1.511,3.375-3.375c0-1.864-1.511-3.375-3.375-3.375H61.257v-8.271h112.205V141.39z M159.692,126.068H75.25
	L85.37,84.456h66.438L159.692,126.068z M194.571,36.705c-9.831-0.712-36.852-2.65-41.67-2.782c-1.382-0.045-2.654,0.775-3.198,2.051
	c-1.934,4.541-14.562,33.834-17.954,41.749l-3.983-0.034l20.44-45.98l0.378-0.876l46.07,2.849L194.571,36.705z"/>
</svg>
