<?xml version="1.0" encoding="iso-8859-1"?>
<!-- Generator: Adobe Illustrator 17.1.0, SVG Export Plug-In . SVG Version: 6.00 Build 0)  -->
<!DOCTYPE svg PUBLIC "-//W3C//DTD SVG 1.1//EN" "http://www.w3.org/Graphics/SVG/1.1/DTD/svg11.dtd">
<svg version="1.1" id="Artwork" xmlns="http://www.w3.org/2000/svg" xmlns:xlink="http://www.w3.org/1999/xlink" x="0px" y="0px"
	 width="256px" height="256px" viewBox="0 0 256 256" style="enable-background:new 0 0 256 256;" xml:space="preserve">
<g>
	<path style="fill:#999999;" d="M103.2,82.719c-0.998,1.544-0.556,3.604,0.988,4.602c0.559,0.362,1.185,0.534,1.804,0.534
		c1.092,0,2.161-0.537,2.798-1.522c0.518-0.802,12.569-19.807,1.256-34.23c-7.766-9.901,3.209-23.403,3.375-23.605
		c1.176-1.41,0.988-3.507-0.421-4.685c-1.41-1.181-3.509-0.992-4.689,0.417c-0.148,0.177-3.641,4.391-5.872,10.267
		c-3.128,8.242-2.31,15.75,2.368,21.713C113.18,66.885,103.297,82.567,103.2,82.719z"/>
	<path style="fill:#999999;" d="M148.509,82.719c-0.998,1.544-0.556,3.604,0.988,4.602c0.559,0.362,1.185,0.534,1.804,0.534
		c1.092,0,2.161-0.537,2.798-1.522c0.518-0.802,12.569-19.807,1.256-34.23c-7.766-9.901,3.209-23.403,3.375-23.605
		c1.176-1.41,0.988-3.507-0.421-4.685c-1.41-1.181-3.51-0.992-4.689,0.417c-0.147,0.177-3.641,4.391-5.872,10.267
		c-3.128,8.242-2.31,15.75,2.368,21.713C158.489,66.885,148.606,82.567,148.509,82.719z"/>
	<path style="fill:#999999;" d="M125.193,86.285c-1.165,1.422-0.956,3.519,0.466,4.685c0.619,0.506,1.365,0.753,2.107,0.753
		c0.963,0,1.919-0.416,2.577-1.22c0.169-0.206,4.162-5.131,6.37-12.244c3.021-9.731,1.309-18.86-4.952-26.399
		c-9.041-10.888,3.31-27.065,3.499-27.309c1.132-1.447,0.878-3.538-0.568-4.671c-1.446-1.134-3.539-0.881-4.673,0.566
		c-0.654,0.835-15.879,20.613-3.379,35.667C138.156,69.981,125.723,85.632,125.193,86.285z"/>
	<path style="fill:#999999;" d="M207.402,106.982H128H48.598c-1.838,0-3.329,1.49-3.329,3.328v12.803
		c0,1.724,1.31,3.141,2.989,3.311c0.179,0.031,11.027,0.049,11.027,0.049c-0.244,7.096,0.55,26.024,14.15,41.321
		c4.829,5.432,10.745,9.807,17.707,13.125l-19.104,51.42c-0.64,1.724,0.238,3.64,1.961,4.28c0.382,0.142,0.774,0.209,1.159,0.209
		c1.351,0,2.622-0.83,3.121-2.17l19.014-51.18c8.016,2.883,17.207,4.561,27.528,5.027v41.142c0,1.788,1.411,3.242,3.18,3.321
		c1.769-0.078,3.18-1.533,3.18-3.321v-41.142c10.321-0.467,19.512-2.145,27.528-5.027l19.014,51.18
		c0.498,1.34,1.769,2.17,3.121,2.17c0.385,0,0.777-0.068,1.159-0.209c1.723-0.641,2.601-2.556,1.961-4.28l-19.104-51.42
		c6.962-3.318,12.878-7.693,17.707-13.125c13.6-15.297,14.394-34.225,14.15-41.321c0,0,10.848-0.018,11.027-0.049
		c1.679-0.17,2.989-1.587,2.989-3.311V110.31C210.731,108.471,209.24,106.982,207.402,106.982z M177.539,163.428
		c-10.033,11.246-25.613,17.427-46.359,18.416v-12.209c0-1.788-1.411-3.243-3.18-3.321c-1.769,0.078-3.18,1.534-3.18,3.321v12.209
		c-20.746-0.989-36.326-7.169-46.359-18.416c-12.131-13.598-12.696-31.056-12.499-36.955H128h62.039
		C190.235,132.371,189.67,149.83,177.539,163.428z M204.073,119.784H128H51.927v-6.144H128h76.073V119.784z"/>
</g>
</svg>
