<?xml version="1.0" encoding="iso-8859-1"?>
<!-- Generator: Adobe Illustrator 17.1.0, SVG Export Plug-In . SVG Version: 6.00 Build 0)  -->
<!DOCTYPE svg PUBLIC "-//W3C//DTD SVG 1.1//EN" "http://www.w3.org/Graphics/SVG/1.1/DTD/svg11.dtd">
<svg version="1.1" id="Artwork" xmlns="http://www.w3.org/2000/svg" xmlns:xlink="http://www.w3.org/1999/xlink" x="0px" y="0px"
	 width="256px" height="256px" viewBox="0 0 256 256" style="enable-background:new 0 0 256 256;" xml:space="preserve">
<g>
	<path style="fill:#999999;" d="M161.968,82.36c-0.459-1.378-1.749-2.307-3.201-2.308h-0.002c-1.659,0-3.148,0.676-4.538,2.248
		c-1.26-12.146-3.512-23.767-6.5-33.176c-4.927-15.518-11.123-23.386-18.415-23.386c-6.87,0-13.321,8.294-19.173,24.652
		c-3.437,9.606-6.32,21.224-8.062,32.168c-1.374-1.698-2.92-2.505-4.735-2.505H97.34c-1.452,0-2.742,0.93-3.201,2.308
		c-8.873,26.619-13.323,49.929-13.227,69.282c0.078,15.674,3.118,28.844,9.037,39.142c7.418,12.908,17.36,17.873,22.054,19.587
		l0.247,16.568c0.027,1.844,1.53,3.325,3.375,3.325h23.83c1.818,0,3.31-1.441,3.373-3.258l0.548-16.641
		c4.741-1.75,15.03-6.209,22.642-19.594c5.926-10.422,8.978-23.668,9.07-39.369C175.201,132.045,170.787,108.817,161.968,82.36z
		 M116.494,52.663c5.698-15.927,10.738-20.176,12.818-20.176c2.791,0,7.604,4.892,11.982,18.679
		c3.905,12.298,6.507,28.617,7.16,44.842c-2.338,8.859-4.697,22.021-7.536,40.965c-4.482,29.895-11.087,41.041-13.378,43.319
		c-2.291-2.277-8.896-13.424-13.378-43.319c-0.339-2.265-0.682-4.596-1.029-6.96c-2.263-15.406-3.94-26.239-5.909-34.257
		C107.453,93.868,112.08,64.999,116.494,52.663z M160.278,187.205c-8.438,15.027-20.425,17.182-20.913,17.295
		c-1.507,0.329-2.6,1.638-2.653,3.18l-0.517,15.832h-17.245l-0.234-15.694c-0.024-1.579-1.139-2.93-2.685-3.253
		c-0.118-0.025-11.889-2.631-20.23-17.145c-8.243-14.344-14.22-42.732,2.83-97.023c0.814,2.226,1.833,5.737,2.987,11.267
		c1.785,8.559,3.336,19.118,4.837,29.329c0.348,2.371,0.692,4.709,1.032,6.98c3.416,22.782,10.717,49.387,20.053,49.387
		c9.336,0,16.637-26.604,20.053-49.387c1.617-10.783,3.525-23.136,5.72-33.279c1.632-7.543,3.038-11.957,4.089-14.53
		C174.367,144.104,168.448,172.656,160.278,187.205z"/>
	<path style="fill:#999999;" d="M119.991,75.855c1.864,0,3.375-1.511,3.375-3.375v-1.734c0-1.864-1.511-3.375-3.375-3.375
		c-1.864,0-3.375,1.511-3.375,3.375v1.734C116.616,74.344,118.127,75.855,119.991,75.855z"/>
	<path style="fill:#999999;" d="M137.466,91.103v-1.735c0-1.864-1.511-3.375-3.375-3.375c-1.864,0-3.375,1.511-3.375,3.375v1.735
		c0,1.864,1.511,3.375,3.375,3.375C135.955,94.478,137.466,92.967,137.466,91.103z"/>
	<path style="fill:#999999;" d="M138.891,72.386c1.864,0,3.375-1.511,3.375-3.375v-1.735c0-1.864-1.511-3.375-3.375-3.375
		c-1.864,0-3.375,1.511-3.375,3.375v1.735C135.516,70.875,137.027,72.386,138.891,72.386z"/>
	<path style="fill:#999999;" d="M136.489,112.394c-1.864,0-3.375,1.511-3.375,3.375v1.735c0,1.864,1.511,3.375,3.375,3.375
		c1.864,0,3.375-1.511,3.375-3.375v-1.735C139.864,113.905,138.353,112.394,136.489,112.394z"/>
	<path style="fill:#999999;" d="M123.966,155.744v1.735c0,1.864,1.511,3.375,3.375,3.375c1.864,0,3.375-1.511,3.375-3.375v-1.735
		c0-1.864-1.511-3.375-3.375-3.375C125.477,152.369,123.966,153.88,123.966,155.744z"/>
	<path style="fill:#999999;" d="M120.216,130.844v1.735c0,1.864,1.511,3.375,3.375,3.375c1.864,0,3.375-1.511,3.375-3.375v-1.735
		c0-1.864-1.511-3.375-3.375-3.375C121.727,127.469,120.216,128.98,120.216,130.844z"/>
	<path style="fill:#999999;" d="M131.391,53.078c1.864,0,3.375-1.511,3.375-3.375v-1.735c0-1.864-1.511-3.375-3.375-3.375
		c-1.864,0-3.375,1.511-3.375,3.375v1.735C128.016,51.567,129.527,53.078,131.391,53.078z"/>
	<path style="fill:#999999;" d="M119.991,107.688c1.864,0,3.375-1.511,3.375-3.375v-1.735c0-1.864-1.511-3.375-3.375-3.375
		c-1.864,0-3.375,1.511-3.375,3.375v1.735C116.616,106.177,118.127,107.688,119.991,107.688z"/>
</g>
</svg>
