<?xml version="1.0" encoding="iso-8859-1"?>
<!-- Generator: Adobe Illustrator 17.1.0, SVG Export Plug-In . SVG Version: 6.00 Build 0)  -->
<!DOCTYPE svg PUBLIC "-//W3C//DTD SVG 1.1//EN" "http://www.w3.org/Graphics/SVG/1.1/DTD/svg11.dtd">
<svg version="1.1" id="Artwork" xmlns="http://www.w3.org/2000/svg" xmlns:xlink="http://www.w3.org/1999/xlink" x="0px" y="0px"
	 width="256px" height="256px" viewBox="0 0 256 256" style="enable-background:new 0 0 256 256;" xml:space="preserve">
<path style="fill:#999999;" d="M194.495,140.022c-0.602-0.616-1.415-0.973-2.272-1.009c4.957-13.653,3.297-25.034,0.87-32.404
	c-2.878-8.741-7.4-13.866-7.592-14.08c-0.625-0.7-1.515-1.108-2.453-1.126c-0.196-0.003-3.258-0.042-7.776,0.954
	c-1.888-24.104-18.7-35.01-19.456-35.488c-0.744-0.471-1.645-0.632-2.506-0.448c-0.047,0.01-0.189,0.043-0.404,0.1
	c-7.595-17.158-26.328-25.416-27.14-25.766c-0.988-0.428-2.121-0.357-3.05,0.189c-0.681,0.401-15.954,9.55-22.73,26.085
	c-1.487-0.383-2.428-0.51-2.597-0.531c-0.844-0.103-1.696,0.113-2.385,0.61c-0.719,0.517-16.913,12.456-17.283,36.746
	c-3.852-0.496-6.362-0.311-6.535-0.297c-0.936,0.075-1.798,0.536-2.38,1.272c-0.181,0.229-4.474,5.732-6.803,14.805
	c-1.978,7.708-2.852,19.504,3.429,33.188c-0.52,0.016-0.812,0.033-0.834,0.034c-0.908,0.054-1.755,0.473-2.35,1.161
	c-0.595,0.688-0.887,1.587-0.811,2.493c0.051,0.594,1.333,14.713,10.044,28.985c7.888,12.923,23.496,28.255,53.273,29.093
	c-0.182,5.058,0.385,11.464,2.845,18.651c0.479,1.401,1.79,2.283,3.193,2.283c0.363,0,0.731-0.059,1.093-0.183
	c1.764-0.604,2.704-2.522,2.1-4.286c-2.198-6.42-2.647-12.131-2.457-16.528c32.015-1.392,47.719-18,55.26-31.8
	c8.21-15.024,8.65-29.649,8.665-30.264C195.476,141.552,195.13,140.673,194.495,140.022z M184.784,139.48
	c-7.188,0.773-18.741,2.802-30.406,8.134c-3.176-4.465-7.146-8.171-10.982-11.115c0.685-4.277,1.956-8.417,3.891-12.626
	c4.944-10.785,12.411-18.385,22.192-22.588c5.171-2.222,9.679-2.869,11.925-3.056C184.536,102.544,193.925,118.13,184.784,139.48z
	 M119.456,132.463c-0.962-4.044-2.349-7.53-4.651-11.84c-2.325-4.351-4.868-7.925-7.584-10.973c0.033-0.235,0.029-0.426,0.049-0.617
	c1.949-18.972,14.663-27.837,18.9-30.288c4.465,2.365,21.237,12.838,21.237,29.901c0.028,1.039,0.016,1.818,0.016,1.818
	c-2.424,3.132-4.29,6.272-6.27,10.592c-1.7,3.696-2.979,7.472-3.829,11.271c-4.352-2.676-7.654-4.097-7.966-4.228
	c-0.905-0.382-1.932-0.352-2.813,0.085C126.257,128.326,123.339,129.796,119.456,132.463z M168.631,94.348
	c-0.492,0.188-0.991,0.387-1.495,0.599c-4.116,1.733-9.046,4.523-13.832,8.98c-3.04-12.671-10.222-20.958-16.256-25.931
	c6.166-9.979,13.422-13.493,16.354-14.563C157.066,66.261,167.74,76.034,168.631,94.348z M124.673,37.723
	c4.38,2.259,16.662,9.451,22.02,21.438c-4.337,2.437-10.106,6.912-15.141,14.9c-2.304-1.414-3.894-2.108-4.128-2.208
	c-0.875-0.372-1.867-0.356-2.732,0.041c-0.22,0.102-1.682,0.794-3.791,2.19c-4.7-6.954-9.354-11.104-14.62-14.63
	C111.072,47.916,120.945,40.293,124.673,37.723z M97.871,63.459c0.939,0.224,2.024,0.249,4.349,1.404
	c2.325,1.155,9.043,6.927,13.337,13.38c-5.541,5.008-11.977,13.248-14.351,25.664c-4.909-3.952-9.831-6.34-13.926-7.779
	c-0.962-0.338-1.9-0.631-2.811-0.888C84.272,76.808,94.462,66.415,97.871,63.459z M68.469,111.603
	c1.357-5.456,3.566-9.431,4.776-11.333c2.259,0.052,6.791,0.424,12.08,2.327c10.016,3.603,17.932,10.738,23.526,21.207
	c2.921,5.469,3.919,8.993,4.648,13.215c-3.798,3.236-7.733,7.311-10.759,12.154c-11.337-4.366-22.477-5.782-29.709-6.21
	c-0.003-0.005-0.004-0.011-0.007-0.015C67.432,132.477,65.899,121.931,68.469,111.603z M180.746,169.707
	c-9.572,17.343-25.824,26.763-48.325,28.026c0.345-1.5,0.657-2.341,0.667-2.367c0.682-1.735-0.172-3.694-1.906-4.376
	c-1.735-0.68-3.694,0.172-4.376,1.906c-0.075,0.192-0.753,1.971-1.315,4.961c-21.717-0.457-37.901-9.084-48.117-25.667
	c-5.448-8.843-7.747-17.814-8.659-22.638c6.445,0.1,20.422,1.072,34.156,6.96c1.622,0.696,3.506,0.023,4.322-1.542
	c5.505-10.56,16.999-17.741,20.969-19.989c4.098,1.997,15.974,8.442,22.119,18.688c0.908,1.515,2.832,2.072,4.409,1.279
	c13.281-6.673,27.213-8.503,33.684-9.004C187.74,150.933,185.918,160.337,180.746,169.707z"/>
</svg>
