<?xml version="1.0" encoding="iso-8859-1"?>
<!-- Generator: Adobe Illustrator 17.1.0, SVG Export Plug-In . SVG Version: 6.00 Build 0)  -->
<!DOCTYPE svg PUBLIC "-//W3C//DTD SVG 1.1//EN" "http://www.w3.org/Graphics/SVG/1.1/DTD/svg11.dtd">
<svg version="1.1" id="Artwork" xmlns="http://www.w3.org/2000/svg" xmlns:xlink="http://www.w3.org/1999/xlink" x="0px" y="0px"
	 width="256px" height="256px" viewBox="0 0 256 256" style="enable-background:new 0 0 256 256;" xml:space="preserve">
<g>
	<path style="fill:#999999;" d="M108.43,75.152c1.658,0,3.286-0.454,4.712-1.315c4.306-2.602,5.694-8.222,3.094-12.527
		c-0.555-0.92-0.258-2.121,0.661-2.676c0.307-0.185,0.643-0.279,0.998-0.279c0.695,0,1.321,0.352,1.677,0.94
		c1.642,2.72,4.637,4.409,7.816,4.409c1.658,0,3.287-0.454,4.713-1.315c4.305-2.601,5.693-8.22,3.094-12.527
		c-3.633-6.017-10.269-9.755-17.319-9.755c-3.665,0-7.265,1.004-10.411,2.903c-9.534,5.757-12.608,18.196-6.852,27.73
		C102.255,73.462,105.25,75.152,108.43,75.152z M110.955,48.79c2.093-1.263,4.486-1.931,6.921-1.931c4.7,0,9.122,2.488,11.54,6.493
		c0.676,1.121,0.315,2.584-0.805,3.26c-0.377,0.228-0.789,0.343-1.223,0.343c-0.842,0-1.604-0.429-2.037-1.147
		c-1.564-2.592-4.421-4.202-7.456-4.202c-1.58,0-3.132,0.432-4.487,1.251c-4.105,2.479-5.429,7.836-2.951,11.943
		c0.677,1.121,0.315,2.584-0.805,3.26c-0.377,0.228-0.788,0.343-1.223,0.343c-0.842,0-1.604-0.429-2.038-1.149
		C102.56,60.906,104.607,52.623,110.955,48.79z"/>
	<path style="fill:#999999;" d="M161.277,57.438c0.699,0.073,1.408,0.11,2.109,0.11h0.001c10.37,0,19.001-7.782,20.076-18.1
		c0.254-2.424-0.451-4.803-1.986-6.696c-1.535-1.893-3.715-3.075-6.139-3.328c-0.317-0.033-0.639-0.05-0.957-0.05
		c-4.683,0-8.581,3.516-9.069,8.178c-0.102,0.978-0.951,1.745-1.931,1.745c-0.069,0-0.138-0.004-0.21-0.011
		c-0.515-0.054-0.979-0.306-1.308-0.711c-0.329-0.406-0.48-0.913-0.427-1.427c0.254-2.424-0.453-4.801-1.988-6.695
		c-1.535-1.893-3.716-3.075-6.14-3.328c-0.316-0.033-0.636-0.05-0.953-0.05c-4.681,0-8.58,3.515-9.069,8.177
		c-0.56,5.358,1.004,10.619,4.406,14.814C151.094,54.259,155.918,56.878,161.277,57.438z M150,35.953
		c0.127-1.214,1.14-2.129,2.355-2.129c0.084,0,0.169,0.005,0.254,0.014c0.631,0.065,1.197,0.373,1.597,0.865
		c0.399,0.493,0.583,1.111,0.517,1.743c-0.241,2.308,0.433,4.574,1.898,6.38c1.464,1.806,3.542,2.933,5.848,3.174
		c0.303,0.032,0.61,0.048,0.913,0.048c4.465,0,8.181-3.351,8.644-7.794c0.136-1.298,1.29-2.257,2.611-2.115
		c0.631,0.065,1.197,0.373,1.597,0.865c0.399,0.492,0.582,1.111,0.516,1.744c-0.716,6.87-6.461,12.052-13.364,12.051
		c-0.467,0-0.941-0.025-1.408-0.073c-3.565-0.373-6.776-2.117-9.042-4.911C150.67,43.019,149.628,39.517,150,35.953z"/>
	<path style="fill:#999999;" d="M88.165,56.3c2.839-4.594,3.72-10.013,2.482-15.256c-2.164-9.16-10.247-15.557-19.656-15.557
		c-1.556,0-3.118,0.182-4.642,0.543c-2.373,0.56-4.385,2.01-5.666,4.083c-1.281,2.073-1.678,4.521-1.118,6.893
		c0.977,4.14,4.627,7.031,8.877,7.031c0.704,0,1.412-0.083,2.103-0.246c1.037-0.246,2.103,0.433,2.343,1.448
		c0.119,0.504,0.033,1.027-0.241,1.471c-0.274,0.444-0.703,0.754-1.208,0.873c-2.372,0.56-4.384,2.011-5.665,4.084
		c-1.281,2.074-1.678,4.522-1.118,6.893c0.978,4.138,4.627,7.029,8.874,7.029h0c0.705,0,1.412-0.083,2.102-0.246
		C80.875,64.105,85.326,60.893,88.165,56.3z M82.423,52.751c-1.891,3.06-4.854,5.199-8.343,6.023
		c-0.182,0.043-0.367,0.065-0.55,0.065h0c-1.103,0-2.051-0.753-2.306-1.832c-0.146-0.617-0.043-1.253,0.291-1.792
		c0.334-0.54,0.857-0.918,1.474-1.063c2.259-0.533,4.177-1.916,5.399-3.894c1.223-1.978,1.602-4.312,1.068-6.571
		c-0.931-3.944-4.412-6.699-8.464-6.699c-0.671,0-1.345,0.079-2,0.234c-0.182,0.043-0.367,0.065-0.55,0.065
		c-1.104,0-2.053-0.753-2.308-1.832c-0.145-0.617-0.042-1.255,0.291-1.794c0.334-0.54,0.857-0.917,1.475-1.063
		c1.017-0.24,2.057-0.362,3.091-0.362c6.264,0,11.646,4.26,13.087,10.359C84.902,46.084,84.314,49.691,82.423,52.751z"/>
	<path style="fill:#999999;" d="M196.684,207.481l-0.002-0.04c-0.001-0.11-0.007-0.219-0.019-0.327
		c-0.003-0.028-0.009-0.054-0.012-0.082c-0.013-0.096-0.029-0.191-0.05-0.284c0,0-0.002-0.018-0.004-0.027
		c-0.029-0.125-2.91-12.736-2.91-31.479v-41.086c0-18.693,2.782-31.424,2.81-31.548l0.003-0.018c0.023-0.106,0.04-0.214,0.053-0.323
		c0.001-0.014,0.005-0.027,0.006-0.04c0.012-0.117,0.019-0.235,0.019-0.355v-0.017v-0.002V82.22c0-1.864-1.511-3.375-3.375-3.375
		h-9.434c0.209-7.608-3.928-14.849-10.718-18.441c-1.311-0.693-2.785-1.06-4.263-1.06c-3.393,0-6.485,1.861-8.071,4.858
		c-2.351,4.446-0.648,9.978,3.799,12.331c0.827,0.438,1.198,1.424,0.91,2.311H81.44c-1.864,0-3.375,1.511-3.375,3.375v19.652
		l0.001,0.018c0,0,0.003,0.048,0.004,0.072c0.003,0.099,0.008,0.198,0.019,0.294c0.004,0.032,0.01,0.065,0.015,0.097
		c0.013,0.091,0.028,0.18,0.048,0.268c0.003,0.012,0.004,0.025,0.007,0.037c0.03,0.126,3.012,12.836,3.012,31.498v41.086
		c0,18.677-2.881,31.355-2.91,31.479c-0.003,0.011-0.003,0.022-0.006,0.032c-0.019,0.087-0.033,0.175-0.046,0.264
		c-0.004,0.033-0.011,0.066-0.015,0.1c-0.011,0.099-0.016,0.2-0.018,0.301c0,0.022-0.004,0.043-0.004,0.064v0.003v19.652
		c0,1.864,1.511,3.375,3.375,3.375h111.761c1.864,0,3.375-1.511,3.375-3.375v-19.652V207.481z M115.227,210.861v12.902h-11.825
		v-12.902H115.227z M121.977,210.861h11.825v12.902h-11.825V210.861z M140.552,210.861h11.364v12.902h-11.364V210.861z
		 M158.666,210.861h11.826v12.902h-11.826V210.861z M85.636,204.111c0.915-5.362,2.284-15.599,2.284-28.869v-41.086
		c0-13.269-1.417-23.528-2.366-28.909h103.588c-0.882,5.36-2.206,15.622-2.206,28.909v41.086c0,13.269,1.369,23.506,2.285,28.869
		H85.636z M170.384,85.595v12.902h-11.826V85.595H170.384z M151.809,98.497h-11.364V85.595h11.364V98.497z M133.695,98.497H121.87
		V85.595h11.825V98.497z M115.12,98.497h-11.825V85.595h11.825V98.497z M189.827,98.497h-12.692V85.595h12.692V98.497z
		 M166.682,67.359c0.413-0.78,1.219-1.265,2.105-1.265c0.387,0,0.76,0.093,1.107,0.276c4.022,2.128,6.646,6.186,7.074,10.629h-4.787
		c-0.39-2.661-1.996-5.101-4.509-6.431C166.515,69.955,166.071,68.516,166.682,67.359z M84.815,85.595h11.729v12.902H84.815V85.595z
		 M84.923,210.861h11.729v12.902H84.923V210.861z M189.934,223.763h-12.692v-12.902h12.692V223.763z"/>
	<path style="fill:#999999;" d="M171.719,134.074h-7.479c-1.864,0-3.375,1.511-3.375,3.375c0,1.864,1.511,3.375,3.375,3.375h4.104
		v27.095h-61.434v-27.095h39.106c1.864,0,3.375-1.511,3.375-3.375c0-1.864-1.511-3.375-3.375-3.375h-42.481
		c-1.864,0-3.375,1.511-3.375,3.375v33.845c0,1.864,1.511,3.375,3.375,3.375h68.184c1.864,0,3.375-1.511,3.375-3.375v-33.845
		C175.094,135.585,173.583,134.074,171.719,134.074z"/>
</g>
</svg>
