<?xml version="1.0" encoding="iso-8859-1"?>
<!-- Generator: Adobe Illustrator 17.1.0, SVG Export Plug-In . SVG Version: 6.00 Build 0)  -->
<!DOCTYPE svg PUBLIC "-//W3C//DTD SVG 1.1//EN" "http://www.w3.org/Graphics/SVG/1.1/DTD/svg11.dtd">
<svg version="1.1" id="Artwork" xmlns="http://www.w3.org/2000/svg" xmlns:xlink="http://www.w3.org/1999/xlink" x="0px" y="0px"
	 width="256px" height="256px" viewBox="0 0 256 256" style="enable-background:new 0 0 256 256;" xml:space="preserve">
<g>
	<path style="fill:#999999;" d="M234.264,130.97c0-5.927-2.972-11.723-7.95-15.505c-4.785-3.635-10.881-5.002-17.001-3.88
		c-11.945-17.478-31.963-45.058-80.75-45.417c-0.056-0.003-0.111-0.008-0.167-0.008c-0.133,0-0.263,0.003-0.396,0.004
		c-0.133,0-0.263-0.004-0.396-0.004c-0.056,0-0.112,0.005-0.167,0.008c-48.788,0.359-68.805,27.938-80.75,45.417
		c-6.119-1.125-12.216,0.246-17.001,3.88c-4.978,3.782-7.95,9.578-7.95,15.505c0,9.899,8.058,15.771,17.22,17.289l16.101,27.697
		c0.532,0.914,1.51,1.477,2.568,1.477h4.461c0.032,0.286,0.106,0.572,0.226,0.849l4.224,9.768c0.47,1.087,1.541,1.791,2.726,1.791
		h115.365c1.069,0,2.055-0.574,2.583-1.503l5.544-9.768c0.205-0.361,0.325-0.748,0.369-1.136h5.888c1.058,0,2.036-0.563,2.568-1.477
		l16.176-27.824C226.618,146.433,234.264,140.613,234.264,130.97z M197.301,171.494h-18.429c-1.64,0-2.97,1.33-2.97,2.97
		c0,1.64,1.33,2.97,2.97,2.97h7.696l-3.671,6.468H71.213l-2.797-6.468h86.631c1.64,0,2.97-1.33,2.97-2.97
		c0-1.64-1.33-2.97-2.97-2.97H59.333L46.03,148.609c14.067-0.555,23.414-6.185,27.643-9.399c3.364,3.654,11.083,9.447,26.197,9.447
		c15.391,0,24.266-5.625,28.129-8.899c3.618,3.055,12.577,8.899,28.131,8.899c15.115,0,22.832-5.793,26.196-9.446
		c4.291,3.261,13.85,9.011,28.265,9.421L197.301,171.494z M212.225,142.718c-18.197,0-28.149-9.777-28.24-9.868
		c-0.664-0.677-1.612-0.998-2.55-0.858c-0.938,0.138-1.755,0.715-2.197,1.553c-0.048,0.092-5.045,9.173-23.109,9.173
		c-14.467,0-22.139-5.529-24.767-7.906c-0.21-0.19-1.143-1.215-1.506-1.506c-1.28-1.026-3.15-0.82-4.175,0.46
		c-0.072,0.089-7.388,8.952-25.813,8.952c-17.789,0-22.916-8.827-23.11-9.173c-0.442-0.839-1.259-1.416-2.197-1.553
		c-0.938-0.138-1.886,0.182-2.55,0.858c-0.097,0.098-9.898,9.868-28.239,9.868c-5.568,0-16.099-2.455-16.099-11.748
		c0-4.081,2.095-8.109,5.603-10.775c3.899-2.962,8.844-3.815,13.923-2.401c1.226,0.34,2.533-0.137,3.25-1.188l0.244-0.359
		C62.647,98.716,80.694,72.251,128,72.102c47.306,0.148,65.352,26.613,77.303,44.144l0.245,0.359
		c0.717,1.051,2.025,1.528,3.25,1.188c5.078-1.414,10.023-0.561,13.923,2.401c3.509,2.666,5.603,6.694,5.603,10.775
		C228.324,140.263,217.794,142.718,212.225,142.718z"/>
	<path style="fill:#999999;" d="M128,83.381c-5.881,0-8.514,9.712-8.514,19.338c0,9.625,2.633,19.337,8.514,19.337
		c5.881,0,8.514-9.712,8.514-19.337C136.514,93.093,133.881,83.381,128,83.381z M128,115.747c-0.998-1.461-2.574-5.937-2.574-13.028
		c0-7.091,1.576-11.567,2.574-13.029c0.998,1.462,2.574,5.938,2.574,13.029C130.574,109.81,128.998,114.285,128,115.747z"/>
	<path style="fill:#999999;" d="M102.206,85.896c-0.76-0.431-1.609-0.649-2.524-0.649c-5.088,0-10.947,7.151-14.418,13.275
		c-2.311,4.078-3.955,8.26-4.627,11.775c-1.117,5.838,0.742,8.25,2.499,9.246c0.76,0.43,1.609,0.649,2.524,0.649
		c5.09,0,10.947-7.15,14.417-13.273c2.312-4.078,3.955-8.26,4.628-11.776C105.822,89.304,103.963,86.891,102.206,85.896z
		 M94.909,103.989c-3.496,6.17-7.074,9.286-8.663,10.065c-0.147-1.764,0.689-6.435,4.185-12.604
		c3.501-6.178,7.084-9.295,8.664-10.07C99.243,93.143,98.409,97.816,94.909,103.989z"/>
	<path style="fill:#999999;" d="M170.158,98.521c-3.471-6.124-9.329-13.275-14.418-13.275c-0.915,0-1.765,0.218-2.525,0.649
		c-5.116,2.901-2.617,12.648,2.13,21.021c3.469,6.122,9.327,13.273,14.417,13.274h0.001c0.915,0,1.765-0.218,2.523-0.648
		c1.81-1.024,3.699-3.53,2.42-9.646C173.989,106.47,172.374,102.43,170.158,98.521z M169.166,114.048
		c-1.594-0.787-5.165-3.904-8.654-10.061c-3.497-6.169-4.333-10.84-4.186-12.604c1.589,0.78,5.167,3.897,8.664,10.066
		c1.921,3.389,3.306,6.821,3.9,9.663C169.187,112.526,169.215,113.48,169.166,114.048z"/>
</g>
</svg>
