<?xml version="1.0" encoding="iso-8859-1"?>
<!-- Generator: Adobe Illustrator 17.1.0, SVG Export Plug-In . SVG Version: 6.00 Build 0)  -->
<!DOCTYPE svg PUBLIC "-//W3C//DTD SVG 1.1//EN" "http://www.w3.org/Graphics/SVG/1.1/DTD/svg11.dtd">
<svg version="1.1" id="Artwork" xmlns="http://www.w3.org/2000/svg" xmlns:xlink="http://www.w3.org/1999/xlink" x="0px" y="0px"
	 width="256px" height="256px" viewBox="0 0 256 256" style="enable-background:new 0 0 256 256;" xml:space="preserve">
<path style="fill:#999999;" d="M169.762,69.173c0.155-1.458,0.237-2.937,0.237-4.435c0-22.935-18.659-41.593-41.593-41.593
	c-22.935,0-41.593,18.659-41.593,41.593c0,0.762,0.022,1.518,0.063,2.269c-13.67,6.051-22.713,19.782-22.713,34.852
	c0,17.885,12.679,33.558,30.148,37.266c2.617,0.556,5.293,0.838,7.952,0.838c9.36,0,18.424-3.498,25.372-9.694
	c7.036,6.605,16.357,10.337,26.078,10.337c2.309,0,4.598-0.215,6.851-0.627l-18.259,75.931c-0.011,0.046-0.021,0.092-0.03,0.138
	c-0.058,0.298-0.133,0.604-0.229,0.938c-0.016,0.057-0.031,0.115-0.045,0.173c-1.56,5.266-6.485,8.944-11.978,8.944
	c-5.495,0-10.419-3.677-11.975-8.941c-0.007-0.023-0.014-0.047-0.022-0.07c-0.006-0.023-0.012-0.047-0.018-0.071
	c-0.103-0.374-0.177-0.684-0.234-0.973c-0.013-0.069-0.029-0.137-0.047-0.204l-17.279-66.008c-0.472-1.803-2.316-2.884-4.12-2.41
	c-1.803,0.472-2.882,2.316-2.41,4.12l17.254,65.913c0.082,0.402,0.184,0.826,0.31,1.292l0.036,0.153
	c0.035,0.148,0.08,0.291,0.133,0.43c2.481,7.975,9.996,13.521,18.37,13.521c8.369,0,15.884-5.543,18.37-13.515
	c0.063-0.163,0.114-0.332,0.152-0.506l0.022-0.102c0.126-0.451,0.23-0.88,0.316-1.307l19.145-79.616
	c14.3-5.798,23.785-19.752,23.785-35.304c0-0.168,0.005-0.383,0.011-0.639C192.287,81.2,180.676,72.653,169.762,69.173z
	 M128.406,29.895c19.212,0,34.843,15.631,34.843,34.843c0,19.213-15.63,34.843-34.843,34.843c-19.213,0-34.843-15.631-34.843-34.843
	C93.563,45.526,109.193,29.895,128.406,29.895z M102.263,133.214c-2.189,0-4.392-0.232-6.55-0.691
	c-14.37-3.051-24.801-15.947-24.801-30.664c0-11.748,6.677-22.51,16.944-27.844c4.227,18.484,20.802,32.316,40.549,32.316
	c1.712,0,3.399-0.106,5.057-0.308c-0.635,6.333-3.295,11.857-8.24,17.175C119.306,129.564,110.937,133.214,102.263,133.214z
	 M185.076,101.714c-0.007,0.317-0.013,0.583-0.013,0.791c0,13.313-8.444,25.208-21.014,29.598
	c-3.328,1.164-6.806,1.754-10.337,1.754c-7.991,0-15.652-3.07-21.44-8.498c5.079-6.286,7.732-13.12,8.059-20.772
	c13.627-4.086,24.336-14.984,28.154-28.724C179.792,79.776,185.373,88.455,185.076,101.714z"/>
</svg>
