<?xml version="1.0" encoding="iso-8859-1"?>
<!-- Generator: Adobe Illustrator 17.1.0, SVG Export Plug-In . SVG Version: 6.00 Build 0)  -->
<!DOCTYPE svg PUBLIC "-//W3C//DTD SVG 1.1//EN" "http://www.w3.org/Graphics/SVG/1.1/DTD/svg11.dtd">
<svg version="1.1" id="Artwork" xmlns="http://www.w3.org/2000/svg" xmlns:xlink="http://www.w3.org/1999/xlink" x="0px" y="0px"
	 width="256px" height="256px" viewBox="0 0 256 256" style="enable-background:new 0 0 256 256;" xml:space="preserve">
<path style="fill:#999999;" d="M223.823,100.013c-2.732,0-5.821,0.001-8.449,0c-1.111-9.839-7.904-19.823-17.683-22.58
	c-0.904-12.096-11.035-21.66-23.358-21.66c-2.145,0-4.246,0.286-6.279,0.854c-3.74-8.26-12.066-13.774-21.344-13.774
	c-6.9,0-13.293,2.99-17.68,8.055c-4.384-5.559-11.147-8.946-18.406-8.946c-10.025,0-18.679,6.234-21.992,15.33
	c-2.638-1-5.45-1.519-8.304-1.519c-12.429,0-22.628,9.732-23.379,21.976c-9.684,2.962-16.464,11.897-16.526,22.245
	c-2.663-0.002-5.304-0.003-7.911-0.003c-1.864,0-3.375,1.511-3.375,3.375c0,22.528,0.662,42.478,8.798,58.49
	c7.305,14.377,20.51,25.544,42.34,35.638c-2.607,2.88-4.246,7.61-4.246,13.168c0,1.864,1.511,3.375,3.375,3.375h90.986
	c1.864,0,3.375-1.511,3.375-3.375c0-4.993-1.322-9.317-3.48-12.233c23.853-10.674,39.013-23.588,47.471-40.357
	c8.412-16.679,9.109-35.089,9.109-54.06C226.864,102.149,225.688,100.013,223.823,100.013z M60.908,83.727
	c1.686-0.299,2.881-1.814,2.779-3.523c-0.022-0.376-0.033-0.706-0.033-1.007c0-9.194,7.479-16.674,16.673-16.674
	c3.095,0,6.119,0.856,8.742,2.476c0.958,0.592,2.148,0.666,3.173,0.199c1.024-0.467,1.749-1.415,1.93-2.526
	c1.322-8.089,8.241-13.96,16.45-13.96c6.524,0,12.485,3.844,15.187,9.793c0.535,1.178,1.696,1.946,2.99,1.978
	c1.294,0.029,2.491-0.678,3.084-1.828c2.876-5.583,8.557-9.051,14.826-9.051c7.48,0,14.09,5.033,16.073,12.239
	c0.262,0.953,0.929,1.743,1.824,2.162c0.895,0.418,1.928,0.424,2.829,0.014c2.178-0.992,4.499-1.495,6.897-1.495
	c9.194,0,16.674,7.48,16.674,16.674c0,0.284-0.007,0.566-0.022,0.847c-0.088,1.784,1.229,3.328,3.005,3.522
	c7.46,0.815,13.33,8.673,14.548,16.447c0,0-160.324-0.012-161.365-0.012C47.237,91.964,52.993,85.132,60.908,83.727z
	 M162.353,194.492c-0.012,0.005-0.023,0.011-0.034,0.016h-14.43c-1.864,0-3.375,1.511-3.375,3.375c0,1.864,1.511,3.375,3.375,3.375
	h15.425c0.999,0,2.716,2.267,3.404,6.029H83.075c0.687-3.762,2.404-6.029,3.404-6.029h35.76c1.864,0,3.375-1.511,3.375-3.375
	c0-1.864-1.511-3.375-3.375-3.375H90.26c-0.008-0.003-0.015-0.008-0.023-0.011c-24.696-10.293-38.971-21.302-46.286-35.699
	c-7.069-13.911-7.984-31.801-8.06-52.056c33.135,0.01,181.531,0.002,184.203,0.002C219.825,144.113,214.416,173.041,162.353,194.492
	z"/>
</svg>
