<?xml version="1.0" encoding="iso-8859-1"?>
<!-- Generator: Adobe Illustrator 17.1.0, SVG Export Plug-In . SVG Version: 6.00 Build 0)  -->
<!DOCTYPE svg PUBLIC "-//W3C//DTD SVG 1.1//EN" "http://www.w3.org/Graphics/SVG/1.1/DTD/svg11.dtd">
<svg version="1.1" id="Artwork" xmlns="http://www.w3.org/2000/svg" xmlns:xlink="http://www.w3.org/1999/xlink" x="0px" y="0px"
	 width="256px" height="256px" viewBox="0 0 256 256" style="enable-background:new 0 0 256 256;" xml:space="preserve">
<path style="fill:#999999;" d="M205.981,97.012c-8.202-12.28-19.662-22.401-33.309-29.457c1.061-1.319,2.208-2.645,3.334-3.946
	c2.773-3.206,5.641-6.521,7.301-9.833c2.247-4.482,2.047-8.493-0.592-11.922c-1.064-1.382-3.106-3.03-6.79-3.03
	c-7.157,0-17.816,6.632-23.497,10.556c-2.199-5.101-8.245-12.626-16.807-12.626c-8.421,0-14.863,6.424-18.678,10.155
	c-5.123-4.639-16.565-14.095-24.688-14.095c-2.508,0-4.69,0.856-6.31,2.476c-2.352,2.352-4.562,6.592-1.733,13.437
	c1.656,4.007,4.621,8.038,7.237,11.595c0.617,0.838,1.22,1.659,1.778,2.442c-0.095,0.035-0.188,0.074-0.283,0.11
	c-0.778,0.266-1.492,0.543-2.135,0.829C76.48,69.448,64.063,78.44,54.618,89.986C43.449,103.638,37.26,119.91,36.72,137.042
	c-0.704,22.287,8.172,43.524,24.992,59.797c16.732,16.189,39.339,25.527,63.658,26.294c1.071,0.034,2.156,0.051,3.226,0.051h0.001
	c23.665,0,46.061-8.245,63.058-23.216c17.128-15.086,26.939-35.387,27.627-57.165C219.79,126.637,215.191,110.802,205.981,97.012z
	 M212.535,142.591c-1.307,41.409-38.177,73.845-83.939,73.844c-0.999,0-2.012-0.016-3.013-0.048
	c-22.638-0.714-43.654-9.379-59.178-24.399c-15.435-14.934-23.581-34.372-22.939-54.733c0.925-29.302,19.798-54.84,48.747-66.846
	c0.858-0.318,2.191-0.855,3.811-1.481c10.706-3.424,34.947-4.807,54.418-1.414c1.835,0.319,3.584-0.909,3.904-2.745
	c0.32-1.836-0.909-3.584-2.746-3.904c-17.451-3.041-38.168-2.4-51.391,0.154c-0.96-1.479-2.116-3.055-3.323-4.696
	c-5.2-7.071-9.254-13.174-6.169-16.259c0.232-0.232,0.617-0.499,1.537-0.499c5.586,0,16.744,8.902,22.464,14.512
	c0.671,0.659,1.586,1.008,2.525,0.963c0.939-0.045,1.817-0.479,2.422-1.198c2.42-2.875,8.895-10.337,15.955-10.337
	c7.274,0,11.817,11.945,11.845,12.059c0.272,1.105,1.082,1.999,2.155,2.377c1.073,0.378,2.265,0.191,3.17-0.5
	c6.013-4.588,17.611-11.867,23.134-11.867c0.518,0,1.188,0.069,1.442,0.398c2.183,2.836-0.986,6.886-6.466,13.221
	c-2.157,2.494-4.388,5.073-6.162,7.742c-0.545,0.82-0.705,1.837-0.437,2.785c0.267,0.948,0.935,1.731,1.829,2.145
	C195.248,85.361,213.463,113.122,212.535,142.591z"/>
</svg>
