<?xml version="1.0" encoding="iso-8859-1"?>
<!-- Generator: Adobe Illustrator 17.1.0, SVG Export Plug-In . SVG Version: 6.00 Build 0)  -->
<!DOCTYPE svg PUBLIC "-//W3C//DTD SVG 1.1//EN" "http://www.w3.org/Graphics/SVG/1.1/DTD/svg11.dtd">
<svg version="1.1" id="Artwork" xmlns="http://www.w3.org/2000/svg" xmlns:xlink="http://www.w3.org/1999/xlink" x="0px" y="0px"
	 width="256px" height="256px" viewBox="0 0 256 256" style="enable-background:new 0 0 256 256;" xml:space="preserve">
<path style="fill:#999999;" d="M212.807,86.64h-11.834c-2.46-12.106-7.268-23.462-14.122-33.07
	c-10.568-14.814-24.622-23.534-39.574-24.557c-9.595-0.656-33.684-0.531-50.076,14.778C86.625,53.67,81.261,67.96,81.257,86.266
	C63.68,86.447,49.45,93.03,40.074,105.343c-7.802,10.246-12.099,24.352-12.099,39.72v78.744c0,1.864,1.511,3.375,3.375,3.375
	c0,0,97.779,0,97.886,0c1.092,0,2.163-0.529,2.813-1.506c0,0,7.52-11.029,8.718-13.105c1.198-2.076,2.831-1.885,5.142-1.249
	c2.312,0.636,3.687,1.016,3.687,1.016c1.015,0.278,2.104,0.069,2.941-0.57c0.838-0.639,1.33-1.631,1.33-2.685v-44.176
	c0-19.325-4.115-36.27-11.899-49.005c-9.296-15.209-23.493-24.502-42.197-27.623c-0.382-0.065-7.989-1.486-11.776-1.788
	c0.004-0.069,0.011-0.138,0.011-0.207c0-16.369,4.644-29.006,13.801-37.559c14.458-13.503,36.29-13.574,45.008-12.977
	c12.899,0.882,25.166,8.604,34.539,21.743c6.054,8.486,10.375,18.473,12.72,29.149h-11.354l-0.059,0
	c-5.392,0-14.518,3.676-14.518,17.457v60.811c0,1.864,1.511,3.375,3.375,3.375h53.129c1.864,0,3.375-1.511,3.375-3.375v-59.21
	C228.024,92.874,223.046,86.64,212.807,86.64z M34.726,220.431v-75.369c0-25.165,12.419-52.055,47.275-52.055
	c28.45,0,42.876,16.188,42.876,48.115c0,24.594,0.211,67.059,0.275,79.309H34.726z M147.118,164.907v39.746l-5.415-1.491
	c-1.408-0.386-2.9,0.172-3.706,1.385l-6.13,9.215c-0.084-16.939-0.241-51.438-0.241-72.64c0-15.516-3.28-27.984-9.75-37.107
	C143.317,118.937,147.118,146.959,147.118,164.907z M221.274,161.532h-46.379v-57.436c0-10.191,6.471-10.707,7.73-10.708
	c0.032,0.001,0.065,0.001,0.097,0.001h12.559c0.55,3.978,0.834,8.023,0.834,12.099c0,0.247,0.028,0.488,0.079,0.72
	c0.039,1.831,1.531,3.303,3.371,3.303h6.057c1.502,0,2.688,0,2.688,4.654v33.304h-20.451v-34.124c0-3.113,1.282-3.556,1.704-3.702
	c1.761-0.609,2.696-2.531,2.087-4.292c-0.609-1.762-2.53-2.696-4.293-2.088c-1.879,0.65-6.249,2.932-6.249,10.082v37.499
	c0,1.864,1.511,3.375,3.375,3.375h27.201c1.864,0,3.375-1.511,3.375-3.375v-36.679c0-7.461-3.264-11.404-9.438-11.404h-2.8
	c-0.09-3.15-0.334-6.279-0.731-9.373h10.716c3.574,0,8.467,0,8.467,12.307V161.532z"/>
</svg>
