<?xml version="1.0" encoding="iso-8859-1"?>
<!-- Generator: Adobe Illustrator 17.1.0, SVG Export Plug-In . SVG Version: 6.00 Build 0)  -->
<!DOCTYPE svg PUBLIC "-//W3C//DTD SVG 1.1//EN" "http://www.w3.org/Graphics/SVG/1.1/DTD/svg11.dtd">
<svg version="1.1" id="Artwork" xmlns="http://www.w3.org/2000/svg" xmlns:xlink="http://www.w3.org/1999/xlink" x="0px" y="0px"
	 width="256px" height="256px" viewBox="0 0 256 256" style="enable-background:new 0 0 256 256;" xml:space="preserve">
<path style="fill:#999999;" d="M184.363,60.694c-21.511-3.614-37.621,3.969-46.495,9.347c-0.032-5.269-0.034-12.801,0.152-17.448
	c0.029-0.741,0.339-1.07,3.113-2.365c1.86-0.868,4.174-1.949,6.225-3.904c3.439-3.288,1.893-11.012,0.665-15.324
	c-0.259-0.912-0.891-1.672-1.739-2.096c-0.848-0.423-1.836-0.47-2.72-0.129c-0.226,0.087-5.592,2.168-11.084,5.465
	c-8.075,4.847-12.275,9.867-12.485,14.919c-0.265,6.365-0.225,14.377-0.14,20.104c-7.187-4.321-21.06-10.263-42.042-9.272
	c-16.03,0.757-29.581,6.93-39.187,17.853c-9.601,10.917-14.521,25.782-14.227,42.971c0.269,21.79,9.569,44.503,25.512,62.316
	c14.62,16.334,33.108,26.481,48.248,26.481c4.58,0,8.487-0.057,11.831-0.178l-0.471,2.325c-0.009,0.046-0.018,0.092-0.025,0.139
	c-0.408,2.56,0.643,5.096,2.745,6.618c1.556,1.125,3.462,1.53,5.282,1.181l0.675,2.619c0.74,2.872,3.225,4.929,6.164,5.118
	c0.155,0.011,0.307,0.015,0.46,0.015c2.609,0,4.943-1.452,6.1-3.746c1.804,1.111,4.046,1.332,6.093,0.521
	c1.745-0.692,3.08-2.029,3.777-3.677c2.356,0.597,4.843-0.092,6.56-1.842c1.544-1.574,3.206-5.211,2.308-7.945
	c-0.054-0.164-0.12-0.323-0.198-0.476c0,0-1.224-0.666-2.8-1.475c3.324,0.511,7.017,0.905,11.026,0.905
	c15.542,0,33.994-8.527,48.157-22.253c16.337-15.834,25.483-36.585,25.754-58.416C232.252,90.759,215.035,65.846,184.363,60.694z
	 M126.738,49.44c0.171-4.086,8.447-9.477,15.622-12.815c0.359,2.218,0.456,4.196,0.184,4.959c-1.224,1.107-2.769,1.828-4.265,2.527
	c-2.871,1.34-6.803,3.176-7.003,8.212c-0.222,5.563-0.183,15.046-0.139,20.204c0,0.004,0.001,0.009,0.001,0.013l-4.474,0.004
	C126.553,67.099,126.421,57.033,126.738,49.44z M224.848,128.946c-0.248,20.035-8.666,39.095-23.702,53.668
	c-12.952,12.552-29.604,20.35-43.459,20.35c-5.333,0-10.172-0.786-14.203-1.554c-1.831-0.35-3.598,0.852-3.947,2.683
	c-0.144,0.755-0.021,1.497,0.298,2.135c0.004,0.009,0.004,0.016,0.009,0.025l3.279,6.456c-0.111,0.419-0.395,1.044-0.59,1.269
	c-0.024,0.025-0.058,0.035-0.091,0.024l-3.495-1.072c-1.023-0.314-2.136-0.123-2.996,0.513c-0.861,0.637-1.369,1.644-1.369,2.714
	v1.709c0,0.037-0.022,0.07-0.055,0.084c-0.035,0.013-0.073,0.005-0.098-0.022l-2.295-2.439c-0.79-0.839-1.953-1.217-3.086-1.003
	c-1.133,0.215-2.077,0.992-2.506,2.063l-1.639,4.097c-0.015,0.038-0.051,0.055-0.089,0.055h0c-0.037-0.002-0.07-0.03-0.08-0.066
	l-1.658-6.438c-0.256-0.994-0.951-1.818-1.888-2.238c-0.937-0.42-2.014-0.39-2.928,0.08l-1.97,1.016
	c-0.031,0.016-0.067,0.013-0.093-0.005c-0.023-0.016-0.036-0.041-0.038-0.068l0.803-3.966c4.22-0.389,7.083-0.983,9.082-1.826
	c1.717-0.724,2.522-2.704,1.798-4.422c-0.724-1.717-2.704-2.522-4.421-1.798c-4.024,1.698-16.345,1.894-25.262,1.894
	c-26.061,0-66.451-36.794-67.012-82.147C30.61,89.295,49.052,68.106,78.13,66.734c28.678-1.353,42.781,11.515,42.91,11.636
	c0.627,0.597,1.46,0.929,2.326,0.929h0.004l11.62-0.011c0.669-0.001,1.323-0.2,1.878-0.573c6.241-4.191,22.818-15.323,46.378-11.363
	C220.253,73.567,225.195,108.6,224.848,128.946z"/>
</svg>
