<?xml version="1.0" encoding="iso-8859-1"?>
<!-- Generator: Adobe Illustrator 17.1.0, SVG Export Plug-In . SVG Version: 6.00 Build 0)  -->
<!DOCTYPE svg PUBLIC "-//W3C//DTD SVG 1.1//EN" "http://www.w3.org/Graphics/SVG/1.1/DTD/svg11.dtd">
<svg version="1.1" id="Artwork" xmlns="http://www.w3.org/2000/svg" xmlns:xlink="http://www.w3.org/1999/xlink" x="0px" y="0px"
	 width="256px" height="256px" viewBox="0 0 256 256" style="enable-background:new 0 0 256 256;" xml:space="preserve">
<path style="fill:#999999;" d="M210.712,141.919c-0.178-1.414-1.225-2.564-2.617-2.873l-31.676-7.039
	c-0.007-0.001-0.014-0.001-0.02-0.003c-0.013-0.003-0.025-0.007-0.037-0.01l-17.807-3.632c-1.827-0.373-3.609,0.806-3.981,2.632
	c-0.373,1.826,0.806,3.609,2.632,3.981l8.329,1.698l-17.694,8.992c10.695-69.806,16.153-110.463,16.208-110.875
	c0.247-1.844-1.045-3.539-2.887-3.792l-10.432-1.429c-1.83-0.249-3.534,1.027-3.799,2.863L129.28,155.098l-1.528,0.777l-3.379-1.651
	c0.108-0.336,0.168-0.694,0.164-1.067c-0.57-62.436-2.164-126.251-2.181-126.888c-0.023-0.904-0.407-1.761-1.068-2.379
	c-0.661-0.619-1.544-0.951-2.445-0.909l-10.51,0.432c-1.837,0.076-3.276,1.608-3.236,3.446l2.614,119.225l-17.548-8.573
	l12.069-2.338c1.83-0.355,3.026-2.125,2.672-3.955c-0.355-1.831-2.128-3.025-3.955-2.672l-21.07,4.081
	c-0.153,0.029-0.299,0.072-0.443,0.121c-0.173,0.009-0.347,0.029-0.518,0.065l-30.983,6.57c-1.415,0.3-2.481,1.468-2.651,2.904
	s0.593,2.821,1.899,3.444l26.65,12.708l6.406,53.229c0.145,1.209,0.931,2.245,2.055,2.713l44.191,18.38
	c0.093,0.039,0.187,0.071,0.282,0.101c0.01,0.003,0.019,0.007,0.029,0.011c0.147,0.045,0.295,0.076,0.443,0.101
	c0.029,0.004,0.058,0.009,0.087,0.013c0.152,0.021,0.303,0.035,0.454,0.035c0.01,0,0.019-0.002,0.029-0.002
	c0.134-0.001,0.268-0.012,0.402-0.029c0.036-0.005,0.072-0.009,0.108-0.015c0.139-0.022,0.276-0.052,0.413-0.092
	c0.021-0.006,0.04-0.014,0.061-0.02c0.071-0.022,0.142-0.044,0.211-0.071l47.319-18.38c1.132-0.439,1.94-1.453,2.117-2.654
	l8.114-55.088l22.336-11.319C210.161,144.706,210.89,143.333,210.712,141.919z M153.135,36.714l3.77,0.516
	c-1.552,11.335-7.077,51.08-16.472,112.2l-3.796,1.929L153.135,36.714z M111.92,30.022l3.773-0.155
	c0.332,13.889,1.567,67.735,2.075,121.129l-3.23-1.578L111.92,30.022z M79.182,139.658l39.857,19.472l-16.186,5.668l-43.781-20.876
	L79.182,139.658z M81.047,161.879l20.156,9.611c0.458,0.218,0.955,0.329,1.453,0.329c0.376,0,0.753-0.063,1.115-0.19l20.636-7.225
	v60.184l-37.7-15.681L81.047,161.879z M172.048,208.831l-40.892,15.883v-60.367l21.6,7.294c0.826,0.279,1.728,0.227,2.516-0.143
	l23.932-11.255L172.048,208.831z M180.399,152.222l-26.77,12.589l-17.161-5.795l39.669-20.158l21.294,4.732L180.399,152.222z"/>
</svg>
