<?xml version="1.0" encoding="iso-8859-1"?>
<!-- Generator: Adobe Illustrator 17.1.0, SVG Export Plug-In . SVG Version: 6.00 Build 0)  -->
<!DOCTYPE svg PUBLIC "-//W3C//DTD SVG 1.1//EN" "http://www.w3.org/Graphics/SVG/1.1/DTD/svg11.dtd">
<svg version="1.1" id="Artwork" xmlns="http://www.w3.org/2000/svg" xmlns:xlink="http://www.w3.org/1999/xlink" x="0px" y="0px"
	 width="256px" height="256px" viewBox="0 0 256 256" style="enable-background:new 0 0 256 256;" xml:space="preserve">
<path style="fill:#999999;" d="M194.543,166.116c-3.664-9.089-10.176-18.405-18.336-26.231
	c-11.702-11.223-14.83-27.069-17.59-41.049c-1.859-9.421-3.615-18.32-7.741-25.03c-3.594-5.846-6.467-9.454-13.193-10.923
	c0.016-0.733,0.035-1.633,0.053-2.652l0,0c0-0.007,0-0.015,0-0.022c0-0.028,0.001-0.054,0.001-0.081h0
	c0.065-5.141,0.173-12.431,0.356-17.007c0.023-0.591,0.17-0.859,2.886-2.127c1.786-0.834,4.009-1.872,5.986-3.756
	c3.342-3.195,1.858-10.636,0.676-14.787c-0.259-0.912-0.891-1.672-1.739-2.096c-0.848-0.423-1.836-0.47-2.72-0.129
	c-0.216,0.083-5.353,2.076-10.61,5.231c-7.759,4.658-11.795,9.493-11.998,14.373c-0.283,6.776-0.202,15.022-0.109,20.354l0,0
	c0.018,1.039,0.037,1.955,0.054,2.7c-6.727,1.469-11.802,5.077-15.396,10.923c-4.126,6.71-5.882,15.609-7.741,25.03
	c-2.76,13.981-5.887,29.827-17.59,41.049c-8.16,7.826-14.672,17.141-18.336,26.231c-4.191,10.399-4.634,20.238-1.279,28.455
	c3.999,9.793,14.981,21.083,43.706,24.29v0c0.018,0.002,0.046,0.005,0.07,0.008c0.008,0.001,0.017,0.002,0.025,0.003v0
	c0.743,0.083,3.712,0.422,4.247,0.474c-0.033,0.121-0.068,0.24-0.1,0.365l-0.964,3.733c-0.631,2.442,0.435,4.954,2.717,6.4
	c1.767,1.117,4.019,1.445,6.104,0.904l0.515,1.236c0.945,2.271,3.337,3.842,6.098,4.003c0.157,0.009,0.313,0.014,0.468,0.014
	c2.487,0,4.792-1.158,6.034-3.026l0.011,0.007c1.953,1.283,4.579,1.578,6.852,0.768c1.407-0.501,2.549-1.372,3.309-2.459
	l0.994,0.188c2.373,0.451,4.8-0.179,6.489-1.688c1.989-1.778,2.553-4.476,1.442-6.778l-1.446-3.422
	c0.693-0.09,4.138-0.557,5.278-0.72c28.79-3.194,39.791-14.498,43.794-24.301C199.176,186.354,198.734,176.514,194.543,166.116z
	 M127.318,40.11c0.159-3.809,7.881-8.854,14.654-12.026c0.307,1.97,0.389,3.713,0.158,4.432c-1.141,1.023-2.534,1.674-4.005,2.36
	c-2.777,1.296-6.581,3.072-6.776,7.975c-0.191,4.765-0.302,12.221-0.366,17.389l0,0c-0.009,0.524-0.018,1.018-0.027,1.467
	L128,61.739l-0.753-0.031c-0.01-0.483-0.02-1.013-0.029-1.58C127.126,54.867,127.044,46.691,127.318,40.11z M189.572,192.019
	c-4.667,11.431-18.55,17.69-40.385,20.372c-0.574,0.048-5.471,0.576-7.397,0.967c-1.998,0.406-3.124,1.719-3.049,3.5
	c-0.025,0.469,0.045,0.951,0.229,1.417l2.699,6.591c-0.048-0.003-4.108-0.769-4.108-0.769c-0.986-0.187-2.007,0.076-2.781,0.717
	c-0.774,0.641-0.896,2.112-1.083,2.9c-0.187,0.787-2.984-1.753-3.735-2.245c-0.751-0.493-1.669-0.666-2.547-0.481
	c-0.879,0.185-1.68,0.653-2.137,1.468c-0.457,0.815-1.448,2.795-2.214,2.795c-0.766,0-2.037-3.945-2.037-3.945
	c-0.674-1.616-2.471-2.448-4.14-1.917c0,0-2.827,0.868-2.962,0.861l0.736-2.85c0.127-0.49,0.338-1.089,0.533-1.547
	c2.7,0.132,11.592,0.179,12.074,0.17c1.864-0.035,3.346-1.573,3.312-3.437c-0.035-1.864-1.593-3.355-3.437-3.312
	c-0.462,0.009-12.41-0.24-20.634-0.912c-21.715-1.773-35.436-8.964-40.082-20.342c-6.073-14.875,4.683-34.456,18.037-47.263
	c13.24-12.697,16.587-29.654,19.539-44.614c3.935-19.94,6.996-31.235,23.995-31.271c16.999,0.037,20.06,11.331,23.995,31.271
	c2.953,14.961,6.3,31.917,19.539,44.614C184.889,157.563,195.645,177.144,189.572,192.019z"/>
</svg>
