<?xml version="1.0" encoding="iso-8859-1"?>
<!-- Generator: Adobe Illustrator 17.1.0, SVG Export Plug-In . SVG Version: 6.00 Build 0)  -->
<!DOCTYPE svg PUBLIC "-//W3C//DTD SVG 1.1//EN" "http://www.w3.org/Graphics/SVG/1.1/DTD/svg11.dtd">
<svg version="1.1" id="Artwork" xmlns="http://www.w3.org/2000/svg" xmlns:xlink="http://www.w3.org/1999/xlink" x="0px" y="0px"
	 width="256px" height="256px" viewBox="0 0 256 256" style="enable-background:new 0 0 256 256;" xml:space="preserve">
<path style="fill:#999999;" d="M229.973,130.276l-21.123-10.749l10.746-21.128c0.644-1.266,0.427-2.8-0.544-3.836
	c-0.971-1.037-2.486-1.355-3.792-0.797l-31.218,13.36c-4.018-9.925-10.983-18.274-20.332-24.286
	c-10.175-6.545-22.49-9.916-35.659-9.745h-0.004c-0.014,0-0.029,0-0.043,0c-0.018,0-0.034,0-0.052,0h-0.004
	c-13.158-0.164-25.483,3.2-35.658,9.745c-9.349,6.013-16.318,14.36-20.336,24.285L40.74,93.766c-1.306-0.558-2.822-0.24-3.792,0.797
	c-0.971,1.037-1.188,2.57-0.544,3.836l10.746,21.128l-21.123,10.749c-1.225,0.623-1.949,1.927-1.832,3.295
	c0.117,1.369,1.053,2.531,2.365,2.937l17.593,5.444L36.77,157.2c-0.634,1.31-0.358,2.878,0.686,3.891
	c0.645,0.627,1.494,0.954,2.353,0.954c0.53,0,1.064-0.125,1.557-0.381l29.773-15.489c7.669,21.63,28.851,36.352,55.253,36.72
	c0.016,0,0.032,0,0.048,0c0.229,0,0.453-0.023,0.669-0.067c0.193,0.038,0.391,0.063,0.594,0.066c0.566,0.01,1.129,0.015,1.689,0.015
	c17.513,0,32.099-4.946,42.262-14.349c6.346-5.872,10.931-13.394,13.598-22.184l29.385,15.287c0.492,0.256,1.026,0.381,1.557,0.381
	c0.859,0,1.708-0.327,2.353-0.954c1.043-1.014,1.32-2.582,0.686-3.891l-7.383-15.249l17.593-5.444
	c1.313-0.406,2.248-1.568,2.365-2.937C231.922,132.202,231.198,130.899,229.973,130.276z M206.1,136.664
	c-0.94,0.291-1.706,0.977-2.098,1.879s-0.371,1.93,0.058,2.816l4.657,9.619l-21.619-11.247c-0.073-0.038-0.149-0.07-0.224-0.102
	c0.526-2.896,0.869-5.902,1.019-9.011c0.089-1.862-1.347-3.444-3.209-3.533c-1.865-0.094-3.444,1.348-3.533,3.209
	c-1.426,29.721-20.875,46.428-53.329,45.853c-0.02,0-0.041,0-0.062,0c-0.229,0-0.452,0.023-0.669,0.066
	c-0.197-0.039-0.399-0.063-0.607-0.066c-28.665-0.399-50.381-19.683-51.637-45.853c-0.089-1.862-1.684-3.297-3.533-3.209
	c-1.862,0.089-3.299,1.671-3.209,3.533c0.147,3.063,0.541,6.042,1.158,8.924l-21.982,11.436l4.657-9.619
	c0.429-0.886,0.45-1.914,0.058-2.816s-1.158-1.588-2.098-1.879l-13.396-4.145l16.716-8.506c1.661-0.846,2.322-2.877,1.477-4.538
	l-8.057-15.841l25.93,11.098c3.718,1.562,4.503-1.958,4.533-2.051c0.001-0.004,0.004-0.007,0.005-0.011
	c6.581-20.283,26.533-33.182,50.845-32.825c0.015,0,0.031,0,0.046,0h0h0H128h0.001c0.015,0,0.031,0,0.046,0
	c24.305-0.324,44.265,12.542,50.845,32.825c0.463,1.427,2.47,3.099,4.514,2.069c0.008-0.003,25.954-11.105,25.954-11.105
	l-8.057,15.841c-0.845,1.661-0.184,3.693,1.477,4.538l16.716,8.506L206.1,136.664z"/>
</svg>
