<?xml version="1.0" encoding="iso-8859-1"?>
<!-- Generator: Adobe Illustrator 17.1.0, SVG Export Plug-In . SVG Version: 6.00 Build 0)  -->
<!DOCTYPE svg PUBLIC "-//W3C//DTD SVG 1.1//EN" "http://www.w3.org/Graphics/SVG/1.1/DTD/svg11.dtd">
<svg version="1.1" id="Artwork" xmlns="http://www.w3.org/2000/svg" xmlns:xlink="http://www.w3.org/1999/xlink" x="0px" y="0px"
	 width="256px" height="256px" viewBox="0 0 256 256" style="enable-background:new 0 0 256 256;" xml:space="preserve">
<g>
	<path style="fill:#999999;" d="M201.962,67.434c0.841-1.462,1.528-3.007,2.052-4.611c4.211-12.888-2.847-26.801-15.735-31.014
		c-4.129-1.348-8.508-1.58-12.727-0.682c-3.203-3.119-7.127-5.493-11.39-6.887c-9.424-3.079-19.835-1.157-27.551,5.001
		c-2.775-2.246-5.912-3.948-9.348-5.071c-11.911-3.893-25.14,0.484-33.107,10.894c-7.295-0.794-14.487,2.038-19.227,7.53
		c-12.289,1.953-21.384,12.505-21.384,25.111c0,4.072,0.987,8.03,2.942,11.805c-6.778,4.376-11.027,12.353-11.027,21.072
		c0,6.641,2.54,12.925,7.153,17.697c4.468,4.622,10.41,7.339,16.787,7.692c3.501,4.172,8.519,6.551,13.875,6.551
		c0.39,0,0.855-0.007,1.362-0.044c0.647,0.79,1.341,1.529,2.069,2.224c10.87,23.197,13.164,63.349,13.164,93.073
		c0,3.012,2.45,5.462,5.462,5.462h31.3c3.014,0,5.466-2.45,5.466-5.462c0-43.873,20.382-79.109,30.894-94.356
		c3.455,1.679,6.925,2.528,10.357,2.528c14.023,0,25.432-11.409,25.432-25.432c0-3.011-0.522-5.954-1.554-8.762
		c0.724-1.396,1.343-2.872,1.846-4.4C212.536,86.754,209.738,75.248,201.962,67.434z M202.661,95.25
		c-0.437,1.331-0.99,2.61-1.644,3.807c-1.134,1.84-0.831,3.435-0.323,4.502c0.889,2.216,1.34,4.555,1.34,6.954
		c0,10.302-8.38,18.682-18.682,18.682c-3.07,0-6.282-1.019-9.555-3.03c-1.659-1.089-5.22-3.8-6.124-4.796
		c-1.253-1.381-3.388-1.484-4.767-0.232c-1.381,1.252-1.484,3.387-0.232,4.767c0.975,1.074,2.9,2.621,4.609,3.901
		c-5.511,8.003-12.711,19.892-18.891,34.805c-8.477,20.456-12.861,41.265-13.036,61.875h-28.735
		c-0.061-26.929-2.045-61.854-10.391-86.132c2.511,0.808,5.175,1.238,7.921,1.238c0.594,0,1.187-0.022,1.776-0.062
		c0.54,1.321,1.155,2.735,1.793,4.2c1.932,4.438,4.122,9.469,5.092,13.835c0.337,1.561,1.726,2.678,3.309,2.678
		c0.054,0,0.109-0.001,0.164-0.004c2.527-0.123,3.126-2.438,3.351-3.309c0.137-0.529,0.314-1.271,0.528-2.205
		c0.428-1.874,0.954-4.32,1.482-6.889c0.454-2.208,1.362-6.722,2.009-10.544c1.897,0.446,3.846,0.675,5.809,0.675
		c0.581,0,1.16-0.025,1.737-0.064v23.335c0,1.545,1.049,2.893,2.548,3.272c0.276,0.07,0.553,0.103,0.827,0.103
		c1.218,0,2.37-0.662,2.969-1.771c6.364-11.782,16.927-31.1,18.347-33.085c0.581-0.696,0.781-1.885,0.781-2.61
		c0-1.764-1.511-3.375-3.375-3.375c-1.492,0-2.998-0.183-4.463-0.541c-0.581-0.144-1.107-0.297-1.625-0.473
		c-1.255-0.42-3.054-0.237-4.25,1.124c-0.279,0.32-0.552,0.636-0.819,0.945c-2.292,2.658-3.807,4.415-6.636,5.38
		c-1.945,0.67-3.978,1.01-6.041,1.01c-2.445,0-4.859-0.488-7.107-1.415c-0.101-0.048-0.204-0.091-0.31-0.129
		c-0.725-0.314-1.434-0.672-2.118-1.078c-0.013-0.007-0.028-0.016-0.041-0.024c-1.38-0.796-2.99-0.686-4.195,0.278
		c-1.945,1.549-4.178,2.674-6.638,3.344c-1.578,0.431-3.227,0.65-4.903,0.65c-4.678,0-9.033-1.662-12.362-4.638
		c-0.052-0.049-0.105-0.096-0.16-0.141c-0.76-0.696-1.466-1.46-2.107-2.291l-0.028-0.036c-0.629-0.817-1.94-2.519-4.899-2.043
		c-0.418,0.069-0.924,0.077-1.318,0.077c-3.489,0-6.766-1.638-8.975-4.473c-1.057-1.378-2.277-1.991-4.081-2.048
		c-10.099-0.32-18.01-8.521-18.01-18.669c0-7.15,3.792-13.572,9.687-16.375c1.456-0.709,1.979-1.866,2.16-2.493
		c0.345-1.191,0.117-2.446-0.682-3.74c-2.043-3.281-3.08-6.736-3.08-10.27c0-9.617,7.203-17.606,16.754-18.583
		c0.935-0.096,1.787-0.577,2.352-1.327c3.361-4.462,8.922-6.747,14.501-5.961c2.188,0.313,3.981-0.459,5.333-2.294
		c6.194-8.4,16.613-11.999,25.93-8.954c3.118,1.019,5.914,2.655,8.315,4.868c1.419,1.302,3.959,2.035,6.44-0.18
		c6.017-5.345,14.501-7.115,22.143-4.618c3.512,1.148,6.597,3.065,9.17,5.698c0.018,0.018,0.035,0.036,0.053,0.053
		c1.075,1.053,2.62,2.165,5.044,1.467c3.245-0.815,6.651-0.693,9.851,0.351c9.349,3.056,14.47,13.151,11.415,22.502
		c-0.529,1.617-1.286,3.151-2.23,4.526c-1.332,1.891-1.129,4.242,0.493,5.718c0.02,0.019,0.041,0.037,0.062,0.055
		C202.861,77.031,205.504,86.542,202.661,95.25z M112.656,140.133c1.523-0.538,2.976-1.216,4.352-2.025
		c-0.42,2.492-0.996,5.52-1.583,8.448c-0.508-1.201-1.02-2.378-1.517-3.519C113.472,142.034,113.048,141.06,112.656,140.133z
		 M137.949,138.498c4.158-1.489,6.524-4.05,8.908-6.806c0.119,0.031,0.846,0.195,1.088,0.247c-2.455,4.257-6.136,10.923-9.996,18
		V138.498z"/>
	<path style="fill:#999999;" d="M173.953,72.575c-2.693-0.5-5.437-0.387-8.038,0.303c-1.67-10.017-9.502-18.299-19.812-20.212
		c-12.591-2.337-25.017,5.518-28.3,17.877c-0.479,1.802,0.594,3.65,2.395,4.128c1.801,0.478,3.65-0.594,4.129-2.395
		c2.383-8.97,11.412-14.668,20.545-12.974c8.723,1.618,15.002,9.512,14.607,18.362c-0.056,1.245,0.579,2.419,1.651,3.054
		c1.072,0.635,2.407,0.628,3.472-0.019c2.435-1.479,5.317-2.008,8.121-1.488c6.282,1.165,10.445,7.225,9.28,13.507
		c-0.255,1.376-0.747,2.676-1.461,3.863c-0.961,1.597-0.446,3.671,1.151,4.632c0.545,0.328,1.145,0.484,1.738,0.484
		c1.145,0,2.261-0.582,2.895-1.635c1.133-1.882,1.912-3.939,2.315-6.113c0.893-4.816-0.142-9.692-2.915-13.729
		C182.95,76.184,178.77,73.469,173.953,72.575z"/>
	<path style="fill:#999999;" d="M116.998,88.732c-4.851-4.459-11.137-6.763-17.731-6.486c-6.583,0.277-12.664,3.101-17.123,7.952
		c-4.106,4.469-6.414,10.27-6.499,16.335c-0.026,1.864,1.464,3.396,3.328,3.422c0.016,0,0.032,0,0.048,0
		c1.842,0,3.348-1.48,3.374-3.328c0.062-4.404,1.738-8.617,4.719-11.862c3.239-3.524,7.656-5.575,12.437-5.776
		c4.779-0.198,9.355,1.472,12.879,4.711c1.593,1.464,2.891,3.175,3.86,5.086c0.842,1.663,2.873,2.327,4.536,1.485
		c1.662-0.843,2.327-2.874,1.484-4.536C120.975,93.101,119.188,90.745,116.998,88.732z"/>
</g>
</svg>
