<?xml version="1.0" encoding="iso-8859-1"?>
<!-- Generator: Adobe Illustrator 17.1.0, SVG Export Plug-In . SVG Version: 6.00 Build 0)  -->
<!DOCTYPE svg PUBLIC "-//W3C//DTD SVG 1.1//EN" "http://www.w3.org/Graphics/SVG/1.1/DTD/svg11.dtd">
<svg version="1.1" id="Artwork" xmlns="http://www.w3.org/2000/svg" xmlns:xlink="http://www.w3.org/1999/xlink" x="0px" y="0px"
	 width="256px" height="256px" viewBox="0 0 256 256" style="enable-background:new 0 0 256 256;" xml:space="preserve">
<g>
	<path style="fill:#999999;" d="M237.023,151.363c-0.203-0.95-1.072-3.16-4.763-3.16h-8.238c-1.864,0-3.375,1.511-3.375,3.375
		c0,1.864,1.511,3.375,3.375,3.375h0.11c-7.46,4.101-19.829,10.073-31.117,15.129h-14.066c-1.864,0-3.375,1.511-3.375,3.375
		c0,1.864,1.511,3.375,3.375,3.375h7.717l-3.776,4.949h-110.3l-3.435-4.949h88.943c1.864,0,3.375-1.511,3.375-3.375
		c0-1.864-1.511-3.375-3.375-3.375h-95.37c-11.226-5.057-23.526-11.031-30.93-15.129h175.463c1.864,0,3.375-1.511,3.375-3.375
		c0-1.864-1.511-3.375-3.375-3.375H23.747c-3.693,0-4.565,2.211-4.769,3.161c-0.638,2.979,1.914,5.06,7.511,8.33
		c3.334,1.948,8.01,4.409,13.897,7.313c9.958,4.912,20.132,9.484,20.234,9.53c0.05,0.022,0.102,0.039,0.152,0.059l7.278,10.486
		c0.631,0.909,1.666,1.451,2.773,1.451h113.736c1.052,0,2.045-0.491,2.683-1.328l8.275-10.847c1.99-0.895,11.055-4.989,19.955-9.353
		c5.925-2.905,10.63-5.365,13.986-7.313C235.09,156.423,237.658,154.344,237.023,151.363z"/>
	<path style="fill:#999999;" d="M96.899,133.961c-1.012,1.565-0.564,3.655,1.002,4.667c0.566,0.366,1.201,0.541,1.829,0.541
		c1.107,0,2.192-0.544,2.837-1.543c0.541-0.837,13.119-20.673,1.321-35.715c-8.209-10.465,3.419-24.714,3.538-24.857
		c1.191-1.43,1-3.555-0.428-4.749c-1.43-1.196-3.559-1.006-4.754,0.424c-0.154,0.184-3.8,4.583-6.13,10.72
		c-3.261,8.592-2.41,16.416,2.463,22.629C107.393,117.316,97.002,133.801,96.899,133.961z"/>
	<path style="fill:#999999;" d="M144.343,133.961c-1.012,1.565-0.564,3.655,1.002,4.667c0.566,0.366,1.201,0.541,1.829,0.541
		c1.107,0,2.192-0.544,2.837-1.543c0.541-0.837,13.119-20.673,1.321-35.715c-8.192-10.444,3.372-24.657,3.537-24.856
		c1.192-1.43,1.001-3.556-0.427-4.75c-1.43-1.196-3.559-1.006-4.754,0.424c-0.154,0.184-3.8,4.583-6.13,10.72
		c-3.261,8.592-2.409,16.416,2.463,22.629C154.837,117.316,144.446,133.801,144.343,133.961z"/>
	<path style="fill:#999999;" d="M119.921,137.705c-1.181,1.442-0.969,3.569,0.472,4.75c0.628,0.514,1.384,0.764,2.137,0.764
		c0.977,0,1.946-0.422,2.613-1.236c0.176-0.215,4.344-5.357,6.65-12.785c3.152-10.152,1.366-19.675-5.164-27.54
		c-9.532-11.479,3.483-28.505,3.662-28.735c1.147-1.467,0.89-3.586-0.576-4.735c-1.467-1.149-3.588-0.893-4.738,0.574
		c-0.683,0.871-16.572,21.514-3.54,37.209C133.554,120.563,120.479,137.017,119.921,137.705z"/>
</g>
</svg>
