<?xml version="1.0" encoding="iso-8859-1"?>
<!-- Generator: Adobe Illustrator 17.1.0, SVG Export Plug-In . SVG Version: 6.00 Build 0)  -->
<!DOCTYPE svg PUBLIC "-//W3C//DTD SVG 1.1//EN" "http://www.w3.org/Graphics/SVG/1.1/DTD/svg11.dtd">
<svg version="1.1" id="Artwork" xmlns="http://www.w3.org/2000/svg" xmlns:xlink="http://www.w3.org/1999/xlink" x="0px" y="0px"
	 width="256px" height="256px" viewBox="0 0 256 256" style="enable-background:new 0 0 256 256;" xml:space="preserve">
<path style="fill:#999999;" d="M231.432,109.984c-0.417-1.445-1.716-2.4-3.219-2.4c-0.007,0-20.603,0-20.603,0
	c-2.608-5.476-10.767-21.845-22.703-38.557c-19.354-27.096-38.48-41.051-56.86-41.514V27.51c-0.015,0-0.031,0.002-0.047,0.002
	c-0.015,0-0.031-0.002-0.046-0.002v0.004c-18.381,0.463-37.506,14.418-56.86,41.514c-11.937,16.712-20.096,33.081-22.703,38.557
	c-12.565,0-20.621,0-20.628,0c-1.503,0-2.777,0.955-3.194,2.4c-0.383,1.326-9.173,32.78,7.983,59.298
	c8.663,13.373,28.333,30.061,40.597,39.783h0.009c2.008,1.585,3.799,2.969,5.279,4.099c-2.845,2.562-4.682,6.916-4.682,11.951
	c0,1.864,1.511,3.375,3.375,3.375h101.433c1.864,0,3.375-1.511,3.375-3.375c0-5.103-1.888-9.503-4.798-12.051
	c1.535-1.173,3.395-2.614,5.478-4.261h0c0.029-0.023,0.061-0.048,0.09-0.072c0.113-0.089,0.223-0.176,0.336-0.266h-0.001
	c12.294-9.761,31.841-25.961,40.406-39.183C240.606,142.764,231.815,111.31,231.432,109.984z M128,34.265
	c33.496,0.987,63.751,56.731,72.05,73.353c-10.126,0.063-134.007,0.03-144.133-0.033C64.216,90.962,94.504,35.252,128,34.265z
	 M217.782,165.614c-9.912,15.303-36.73,35.955-46.236,43.189h0.033c-1.188,0.902-2.071,1.561-2.561,1.924h-11.625
	c-1.864,0-3.375,1.511-3.375,3.375c0,1.864,1.511,3.375,3.375,3.375h13.806c1.321,0,2.796,1.711,3.526,4.264H80.966
	c0.731-2.552,2.205-4.264,3.527-4.264h50.4c1.864,0,3.375-1.511,3.375-3.375c0-1.864-1.511-3.375-3.375-3.375H86.429
	c-0.549-0.406-1.591-1.183-3.007-2.261h-0.036c-10.102-7.728-35.515-27.949-45.168-42.851c-12.861-19.878-9.336-43.7-7.742-51.303
	c5.587,0.034,189.462,0.034,195.049,0C227.118,121.914,230.643,145.736,217.782,165.614z"/>
</svg>
