<?xml version="1.0" encoding="iso-8859-1"?>
<!-- Generator: Adobe Illustrator 17.1.0, SVG Export Plug-In . SVG Version: 6.00 Build 0)  -->
<!DOCTYPE svg PUBLIC "-//W3C//DTD SVG 1.1//EN" "http://www.w3.org/Graphics/SVG/1.1/DTD/svg11.dtd">
<svg version="1.1" id="Artwork" xmlns="http://www.w3.org/2000/svg" xmlns:xlink="http://www.w3.org/1999/xlink" x="0px" y="0px"
	 width="256px" height="256px" viewBox="0 0 256 256" style="enable-background:new 0 0 256 256;" xml:space="preserve">
<path style="fill:#999999;" d="M229.808,136.622h-7.514c0.001-0.095,0.004-0.19,0.004-0.286c0-11.117-5.237-28.832-12.736-43.079
	c-9.601-18.243-21.248-28.29-32.796-28.29c-11.547,0-23.194,10.047-32.795,28.29c-7.499,14.247-12.736,31.962-12.736,43.079
	c0,0.095,0.003,0.19,0.004,0.286h-6.54c0.043-0.702,0.065-1.409,0.065-2.12c0-11.117-5.237-28.832-12.736-43.08
	c-9.601-18.243-21.248-28.289-32.796-28.289c-11.547,0-23.194,10.047-32.795,28.289c-7.499,14.248-12.736,31.963-12.736,43.08
	c0,0.711,0.023,1.418,0.065,2.12h-7.576c-1.864,0-3.375,1.511-3.375,3.375v49.495c0,1.864,1.511,3.375,3.375,3.375h203.616
	c1.864,0,3.375-1.511,3.375-3.375v-49.495C233.183,138.133,231.672,136.622,229.808,136.622z M176.767,71.717
	c20.032,0,38.781,44.433,38.781,64.619c0,18.135-17.397,32.889-38.781,32.889c-21.384,0-38.781-14.754-38.781-32.889
	C137.985,116.15,156.735,71.717,176.767,71.717z M79.233,69.883c20.032,0,38.781,44.433,38.781,64.619
	c0,18.135-17.397,32.889-38.781,32.889c-21.384,0-38.781-14.754-38.781-32.889C40.452,114.316,59.202,69.883,79.233,69.883z
	 M226.433,186.117H29.567v-42.745h5.285c4.639,17.601,22.777,30.769,44.381,30.769c21.604,0,39.742-13.168,44.381-30.769h8.34
	c3.825,18.512,22.464,32.603,44.813,32.603s40.988-14.091,44.813-32.603h4.854V186.117z"/>
</svg>
