<?xml version="1.0" encoding="iso-8859-1"?>
<!-- Generator: Adobe Illustrator 17.1.0, SVG Export Plug-In . SVG Version: 6.00 Build 0)  -->
<!DOCTYPE svg PUBLIC "-//W3C//DTD SVG 1.1//EN" "http://www.w3.org/Graphics/SVG/1.1/DTD/svg11.dtd">
<svg version="1.1" id="Artwork" xmlns="http://www.w3.org/2000/svg" xmlns:xlink="http://www.w3.org/1999/xlink" x="0px" y="0px"
	 width="256px" height="256px" viewBox="0 0 256 256" style="enable-background:new 0 0 256 256;" xml:space="preserve">
<g>
	<path style="fill:#999999;" d="M227.679,119.269c-0.261-0.672-1.424-3.43-3.737-5.872c-15.902-16.803-35.044-28.824-56.933-35.773
		c0.314-1.725,0.486-3.499,0.486-5.313c0-7.763-3.005-14.835-7.908-20.123c3.472-2.686,4.387-3.381,6.128-3.87
		c2.201-0.619,3.493-0.046,4.567,0.356c2.842,1.064,4.079-2.55,2.663-4.601c-1.115-1.615-2.819-2.527-4.816-2.718
		c-2.937-0.281-6.351,1.261-9.281,3.103c0.093-5.187-0.909-11.376-5.56-14.366c-1.568-1.008-3.657-0.554-4.664,1.014
		c-1.008,1.568-0.554,3.656,1.014,4.664c2.201,1.415,2.686,6.095,2.36,10.506c-4.203-2.29-9.018-3.593-14.131-3.593
		c-16.337,0-29.629,13.291-29.629,29.629c0,2.955,0.44,5.807,1.249,8.502c-74.76,63.079-76.087,64.691-76.636,65.257
		c-5.191,5.366-6.064,8.729-6.064,14.05v60.415c0,3.369,2.517,5.909,5.856,5.909h0c0.392,0,0.794-0.036,1.192-0.105
		c2.377-0.411,80.824-13.643,138.104-23.304c25.138-4.24,45.486-7.672,51.855-8.747c2.27-0.357,4.975-1.671,4.975-5.907
		c0-0.184,0.441-48.883,0.441-61.669C229.212,123.275,227.944,119.929,227.679,119.269z M137.867,49.432
		c12.615,0,22.879,10.263,22.879,22.879c0,12.615-10.263,22.879-22.879,22.879c-12.615,0-22.879-10.263-22.879-22.879
		C114.988,59.696,125.251,49.432,137.867,49.432z M137.867,101.94c12.155,0,22.62-7.36,27.183-17.856
		c19.435,6.185,36.59,16.585,51.08,30.972c0.966,0.959,3.118,2.866-0.836,3.543c-24.902,4.265-167.465,27.735-169.233,28.076
		c-1.938,0.373-4.413,0.673-1.404-2.055c8.626-7.42,27.511-23.484,67.649-57.354C117.456,96.036,126.982,101.94,137.867,101.94z
		 M216.038,188.753c-9.541,1.489-25.966,4.38-45.22,7.628c-49.745,8.39-115.41,19.752-133.456,22.516
		c-2.463,0.377-3.792-1.331-3.741-4.576c0.227-14.306,0.84-53.232,0.84-55.798c0-3.148,3.308-3.628,3.308-3.628
		s177.203-29.273,179.714-29.762c2.511-0.489,4.729-0.4,4.729,2.868c0,2.644-0.117,39.671-0.165,54.075
		C222.035,185.469,221.348,187.924,216.038,188.753z"/>
	<path style="fill:#999999;" d="M97.583,133.249c7.987,0,14.243-4.993,14.243-11.366c0-6.374-6.256-11.366-14.243-11.366
		c-7.987,0-14.244,4.993-14.244,11.366C83.34,128.256,89.596,133.249,97.583,133.249z M97.583,117.266
		c4.416,0,7.493,2.433,7.493,4.616c0,2.183-3.077,4.616-7.493,4.616c-4.416,0-7.494-2.433-7.494-4.616
		C90.09,119.699,93.167,117.266,97.583,117.266z"/>
	<path style="fill:#999999;" d="M173.62,117.922c7.987,0,14.244-4.993,14.244-11.366c0-6.374-6.257-11.366-14.244-11.366
		c-7.987,0-14.243,4.993-14.243,11.366C159.377,112.93,165.633,117.922,173.62,117.922z M173.62,101.94
		c4.416,0,7.494,2.433,7.494,4.616c0,2.183-3.078,4.616-7.494,4.616c-4.416,0-7.493-2.433-7.493-4.616
		C166.127,104.373,169.204,101.94,173.62,101.94z"/>
	<path style="fill:#999999;" d="M134.479,126.607c7.987,0,14.243-4.993,14.243-11.366c0-6.374-6.256-11.366-14.243-11.366
		c-7.987,0-14.244,4.993-14.244,11.366C120.236,121.615,126.492,126.607,134.479,126.607z M134.479,110.625
		c4.416,0,7.493,2.433,7.493,4.616c0,2.183-3.078,4.616-7.493,4.616c-4.416,0-7.494-2.433-7.494-4.616
		C126.986,113.058,130.063,110.625,134.479,110.625z"/>
	<path style="fill:#999999;" d="M42.279,179.774c1.305,0,2.547-0.761,3.099-2.034c0.03-0.07,3.182-7.028,8.924-8.989
		c2.984-1.019,6.187-0.549,9.792,1.439c7.676,4.232,11.574,5.686,14.914,5.568c4.048-0.147,6.427-2.658,9.182-5.565
		c1.146-1.209,2.444-2.579,4.099-4.084c7.581-6.892,10.816-4.785,15.712-1.597c5.057,3.293,11.984,7.802,22.345-2.214
		c8.522-8.239,12.909-6.065,18.463-3.312c5.387,2.671,12.765,6.327,21.797-4.462c8.741-10.441,13.178-9.413,20.565-4.806
		c11.043,6.887,22.096,0.094,26.399-4.46c1.277-1.351,1.215-3.476-0.131-4.758c-1.346-1.282-3.48-1.228-4.767,0.114
		c-0.357,0.372-8.84,9.045-17.928,3.377c-11.553-7.205-19.498-5.523-29.312,6.201c-5.621,6.714-8.295,5.388-13.623,2.747
		c-5.995-2.972-14.206-7.042-26.152,4.507c-6.494,6.278-9.15,4.549-13.971,1.411c-5.275-3.434-12.499-8.138-23.936,2.259
		c-1.841,1.673-3.292,3.205-4.458,4.435c-2.446,2.581-3.337,3.419-4.527,3.463c-2.328,0.086-7.078-2.345-11.41-4.733
		c-5.29-2.916-10.415-3.561-15.233-1.915c-8.629,2.947-12.764,12.296-12.936,12.693c-0.741,1.71,0.045,3.698,1.755,4.439
		C41.376,179.684,41.831,179.774,42.279,179.774z"/>
	<path style="fill:#999999;" d="M213.951,165.114c-0.356,0.372-8.84,9.046-17.929,3.377c-11.553-7.205-19.496-5.523-29.312,6.201
		c-5.621,6.714-8.296,5.388-13.623,2.747c-5.995-2.972-14.205-7.043-26.153,4.507c-6.493,6.278-9.149,4.55-13.97,1.411
		c-5.275-3.434-12.499-8.138-23.936,2.259c-1.841,1.673-3.292,3.205-4.458,4.435c-2.446,2.581-3.337,3.42-4.527,3.463
		c-2.329,0.086-7.078-2.345-11.41-4.733c-5.29-2.916-10.415-3.56-15.233-1.915c-8.629,2.947-12.764,12.296-12.936,12.693
		c-0.739,1.706,0.043,3.684,1.747,4.429c0.439,0.192,0.896,0.283,1.347,0.282c1.299,0,2.538-0.755,3.096-2.018
		c0.031-0.07,3.167-7.052,8.959-9.009c2.976-1.006,6.169-0.532,9.762,1.449c7.676,4.232,11.582,5.688,14.913,5.568
		c4.048-0.147,6.427-2.658,9.183-5.565c1.145-1.209,2.444-2.579,4.099-4.084c7.581-6.892,10.816-4.785,15.712-1.597
		c5.057,3.293,11.983,7.802,22.345-2.214c8.524-8.24,12.909-6.065,18.464-3.312c5.386,2.671,12.765,6.327,21.796-4.461
		c8.741-10.441,13.177-9.414,20.565-4.807c11.043,6.888,22.097,0.094,26.399-4.46c1.277-1.351,1.215-3.476-0.131-4.758
		C217.372,163.719,215.239,163.773,213.951,165.114z"/>
</g>
</svg>
