<?xml version="1.0" encoding="iso-8859-1"?>
<!-- Generator: Adobe Illustrator 17.1.0, SVG Export Plug-In . SVG Version: 6.00 Build 0)  -->
<!DOCTYPE svg PUBLIC "-//W3C//DTD SVG 1.1//EN" "http://www.w3.org/Graphics/SVG/1.1/DTD/svg11.dtd">
<svg version="1.1" id="Artwork" xmlns="http://www.w3.org/2000/svg" xmlns:xlink="http://www.w3.org/1999/xlink" x="0px" y="0px"
	 width="256px" height="256px" viewBox="0 0 256 256" style="enable-background:new 0 0 256 256;" xml:space="preserve">
<g>
	<path style="fill:#999999;" d="M192.478,73.899c-16.2-11.918-36.047-18.217-57.396-18.217c-18.445,0-36.029,4.672-49.035,11.119
		c-0.027-0.013-0.051-0.028-0.079-0.04c-0.906-0.409-22.306-9.906-32.932,0.159c-1.353,1.282-1.411,3.418-0.129,4.771
		c1.281,1.353,3.418,1.411,4.771,0.129c4.684-4.437,14.265-2.743,20.733-0.695C73,74.637,68.914,78.435,66.61,82.164
		c-4.434-0.627-21.042-2.203-31.286,7.419c-1.359,1.276-1.426,3.412-0.149,4.771c0.664,0.707,1.561,1.064,2.461,1.064
		c0.828,0,1.658-0.303,2.31-0.915c7.277-6.835,19.657-6.312,24.498-5.798c-0.064,2.202,0.597,4.265,1.984,6.048
		c2.204,2.834,4.845,5.103,7.799,6.925c-5.599,2.882-14.984,6.651-24.211,5.536c-1.847-0.224-3.532,1.095-3.756,2.945
		c-0.224,1.851,1.095,3.532,2.945,3.756c1.409,0.17,2.813,0.248,4.206,0.248c12.644,0,24.264-6.447,28.317-8.963
		c7.03,2.453,15.02,3.316,22.9,3.562c-6.017,5.689-18.879,14.367-42.3,15.868c-1.86,0.119-3.272,1.724-3.152,3.584
		c0.114,1.787,1.599,3.159,3.365,3.159c0.072,0,0.145-0.002,0.219-0.007c32.849-2.106,47.036-17.42,50.897-22.542
		c3.556-0.045,7.119-0.151,10.592-0.257c4.433-0.134,8.62-0.261,12.665-0.261c8.81,0,15.241,0.692,19.738,2.284
		c0.025,0.01,0.051,0.019,0.076,0.029c5.725,2.05,8.293,5.575,8.633,11.013c0.582,9.321-2.358,17.238-8.91,23.887
		c-0.205,0.165-0.39,0.35-0.549,0.555c-4.73,4.607-11.235,8.593-19.554,12.003c-2.56,1.049-5.206,2.003-7.901,2.877
		c-5.549-0.859-37.351-5.665-53.768-5.665c-6.819,0-11.276,0.691-12.423,4.132c-0.526,1.58-0.355,3.232,0.495,4.777
		c1.593,2.894,5.901,5.291,10.303,7.087c-0.744,0.118-1.439,0.236-2.075,0.355c-2.734,0.512-6.479,1.212-7.173,4.27
		c-0.187,0.825-0.351,2.922,2.168,4.552l0.911,0.592c8.086,5.268,29.567,19.263,60.074,19.263c17.024,0,34.378-4.361,51.579-12.961
		c5.789-2.895,11.663-7.021,17.094-11.919c0.073-0.06,0.143-0.124,0.21-0.19c3.661-3.322,7.119-6.991,10.202-10.881
		c6.347-8.008,14.189-20.803,15.513-36.287C222.758,114.006,218.69,93.181,192.478,73.899z M214.904,126.4
		c-11.803,10.006-35.331,2.883-42.812,0.243c0.117-1.767,0.121-3.576,0.005-5.43c-0.298-4.769-1.884-8.674-4.716-11.695
		c7.795-1.82,14.03-5.345,18.589-10.547c4.669-5.327,6.6-11.328,7.385-15.809C208.653,95.961,215.89,110.479,214.904,126.4z
		 M124.043,101.822c-4.475,0.136-9.103,0.276-13.618,0.276c-14.704,0-30.796-1.365-38.67-11.489
		c-0.313-0.403-1.145-1.472,0.073-3.961c4.829-9.874,31.871-24.217,63.254-24.217c19.296,0,37.243,5.497,52.021,15.915
		c-0.096,2.307-0.618,6.941-3.069,11.595c-4.451,8.453-13.095,13.192-25.68,14.107c-6.578-2.185-14.815-2.491-21.441-2.491
		C132.766,101.558,128.529,101.686,124.043,101.822z M74.679,162.041c8.087,0,20.399,1.262,31.175,2.598l-21.12,3.366
		c-6.056-1.564-12.038-3.953-14.707-5.765C71.063,162.129,72.554,162.041,74.679,162.041z M175.517,181.32
		c-16.255,8.128-32.593,12.249-48.56,12.249c-24.53,0-42.956-9.777-52.477-15.67c2.581-0.398,5.749-0.805,8.717-1.187
		c14.788-1.901,37.136-4.773,55.711-12.387c7.309-2.996,13.421-6.488,18.332-10.46c4.202,8.897,11.273,15.49,20.702,19.205
		c2.612,1.029,5.112,1.722,7.315,2.187C182.019,177.666,178.732,179.712,175.517,181.32z M192.228,169.42
		c-4.789-0.281-22.659-2.547-29.766-20.448c4.233-4.642,7.085-9.83,8.554-15.544c5.449,1.86,15.89,4.867,26.452,4.867
		c5.561,0,11.152-0.844,16.066-3.119C210.279,148.186,201.931,160.333,192.228,169.42z"/>
	<path style="fill:#999999;" d="M107.005,73.684c-5.876,0-10.656,4.78-10.656,10.656c0,5.876,4.78,10.656,10.656,10.656
		c5.876,0,10.656-4.78,10.656-10.656C117.661,78.464,112.881,73.684,107.005,73.684z M107.005,88.246
		c-2.154,0-3.906-1.752-3.906-3.906c0-2.154,1.753-3.906,3.906-3.906c2.154,0,3.906,1.752,3.906,3.906
		C110.911,86.494,109.159,88.246,107.005,88.246z"/>
</g>
</svg>
