<?xml version="1.0" encoding="iso-8859-1"?>
<!-- Generator: Adobe Illustrator 17.1.0, SVG Export Plug-In . SVG Version: 6.00 Build 0)  -->
<!DOCTYPE svg PUBLIC "-//W3C//DTD SVG 1.1//EN" "http://www.w3.org/Graphics/SVG/1.1/DTD/svg11.dtd">
<svg version="1.1" id="Artwork" xmlns="http://www.w3.org/2000/svg" xmlns:xlink="http://www.w3.org/1999/xlink" x="0px" y="0px"
	 width="256px" height="256px" viewBox="0 0 256 256" style="enable-background:new 0 0 256 256;" xml:space="preserve">
<path style="fill:#999999;" d="M191.752,29.591h-12.704c-5.548,0-10.062,4.513-10.062,10.061v4.346c0,2.938,1.266,5.585,3.28,7.426
	L162.207,65.2l-51.952,0.109c-1.864,0.004-3.372,1.518-3.368,3.382c0.004,1.862,1.514,3.368,3.375,3.368c0.002,0,0.005,0,0.007,0
	l6.322-0.013v18.313H67.661c-1.02,0-1.986,0.461-2.627,1.256c-5.715,7.083-7.832,14.633-6.294,22.442
	c2.177,11.051,11.335,20.141,18.598,25.803H57.562c-1.864,0-3.375,1.511-3.375,3.375v15.15c0,1.864,1.511,3.375,3.375,3.375h16.575
	v44.1H57.561c-1.864,0-3.375,1.511-3.375,3.375v13.8c0,1.864,1.511,3.375,3.375,3.375h121.801c1.864,0,3.375-1.511,3.375-3.375
	v-13.8c0-1.864-1.511-3.375-3.375-3.375h-16.575v-44.1h16.575c1.864,0,3.375-1.511,3.375-3.375v-15.15
	c0-1.864-1.511-3.375-3.375-3.375h-16.769c7.263-5.662,16.421-14.752,18.598-25.803c1.538-7.808-0.579-15.359-6.294-22.442
	c-0.641-0.795-1.606-1.256-2.627-1.256h-48.93V72.032l40.59-0.085c1.075-0.002,2.085-0.516,2.718-1.385l11.807-16.17
	c0.081-0.111,0.466-0.333,0.592-0.333h12.704c5.548,0,10.062-4.514,10.062-10.062v-4.346
	C201.814,34.104,197.3,29.591,191.752,29.591z M156.037,205.86h-5.625c-1.864,0-3.375,1.511-3.375,3.375
	c0,1.864,1.511,3.375,3.375,3.375h25.575v7.05H60.936v-7.05h66.553c1.864,0,3.375-1.511,3.375-3.375
	c0-1.864-1.511-3.375-3.375-3.375H80.887v-44.1h75.15V205.86z M175.987,155.01H60.937v-8.4h27.424h63.209h24.416V155.01z
	 M174.57,112.738c-2.717,13.841-20.129,24.873-23.907,27.121H89.268c-3.778-2.248-21.191-13.28-23.908-27.121
	c-1.058-5.392,0.239-10.518,3.963-15.629h101.284C174.332,102.22,175.628,107.346,174.57,112.738z M195.064,43.998
	c0,1.826-1.486,3.312-3.312,3.312h-12.704c-1.826,0-3.312-1.486-3.312-3.312v-4.346c0-1.825,1.486-3.311,3.312-3.311h12.704
	c1.826,0,3.312,1.485,3.312,3.311V43.998z"/>
</svg>
