<?xml version="1.0" encoding="iso-8859-1"?>
<!-- Generator: Adobe Illustrator 17.1.0, SVG Export Plug-In . SVG Version: 6.00 Build 0)  -->
<!DOCTYPE svg PUBLIC "-//W3C//DTD SVG 1.1//EN" "http://www.w3.org/Graphics/SVG/1.1/DTD/svg11.dtd">
<svg version="1.1" id="Artwork" xmlns="http://www.w3.org/2000/svg" xmlns:xlink="http://www.w3.org/1999/xlink" x="0px" y="0px"
	 width="256px" height="256px" viewBox="0 0 256 256" style="enable-background:new 0 0 256 256;" xml:space="preserve">
<path style="fill:#999999;" d="M128,66.532c-22.734,0-40.717,5.94-60.018,16.978c-24.26,15.271-38.508,37.894-38.508,55.191
	c0,14.006,10.562,26.98,29.74,36.532c18.43,9.179,42.858,14.234,68.786,14.234c25.928,0,50.357-5.055,68.787-14.234
	c19.177-9.552,29.739-22.526,29.739-36.532C226.526,109.97,187.229,66.532,128,66.532z M126.761,109.974
	c-6.085-6.323-13.396-11.796-21.851-16.302c3.13-2.26,6.463-4.403,10.007-6.42c3.932-2.239,7.767-4.109,11.322-5.662
	c3.843,1.637,8.046,3.652,12.367,6.112c3.41,1.941,6.627,3.997,9.653,6.162C139.953,98.333,132.76,103.739,126.761,109.974z
	 M107.219,75.245c0.23,0.106,4.528,1.044,10.258,2.991c-1.865,0.934-3.773,1.943-5.71,3.041c-4.897,2.776-9.453,5.814-13.654,9.089
	c-6.741-2.985-12.945-4.906-17.724-6.117C88.773,80.088,97.802,77.052,107.219,75.245z M141.754,81.728
	c-2.31-1.31-4.579-2.495-6.781-3.572c6.334-2.218,11.094-3.251,11.321-3.355c10.005,1.678,19.606,4.729,28.498,9.042
	c-5.034,1.189-12.061,3.248-19.755,6.689C150.937,87.366,146.508,84.423,141.754,81.728z M128.631,73.289
	c-0.788,0.307-1.596,0.63-2.424,0.97c-0.784-0.315-1.551-0.614-2.297-0.897C125.269,73.312,128.42,73.288,128.631,73.289z
	 M193.777,169.191c-17.514,8.723-40.874,13.527-65.777,13.527c-24.903,0-48.263-4.804-65.777-13.527
	c-16.765-8.35-25.998-19.179-25.998-30.49c0-12.709,9.641-29.05,24.562-41.632c3.371-2.843,6.939-5.447,10.672-7.807
	c3.071,0.501,11.195,2.083,20.857,5.984c-12.093,10.98-20.608,24.221-25.015,39.104c-0.529,1.787,0.49,3.665,2.278,4.194
	c0.32,0.095,0.643,0.14,0.96,0.14c1.456,0,2.8-0.95,3.235-2.417c4.38-14.794,12.854-27.523,25.268-38.016
	c0.281,0.138,13.892,5.42,23.291,16.743c-6.729,8.341-11.548,17.934-14.267,28.577c-0.461,1.806,0.628,3.644,2.435,4.105
	c0.28,0.072,0.561,0.106,0.838,0.106c1.505,0,2.878-1.015,3.267-2.54c2.399-9.391,6.467-17.769,12.157-25.098
	c5.69,7.328,9.757,15.706,12.157,25.098c0.39,1.526,1.762,2.54,3.267,2.54c0.277,0,0.558-0.034,0.838-0.106
	c1.806-0.461,2.896-2.3,2.435-4.105c-2.719-10.642-7.537-20.236-14.266-28.575c6.028-6.341,13.452-11.765,22.254-16.231
	c0.232-0.118,0.464-0.23,0.696-0.346c12.597,10.547,21.186,23.37,25.606,38.298c0.435,1.467,1.778,2.417,3.235,2.417
	c0.317,0,0.64-0.045,0.96-0.14c1.787-0.529,2.807-2.407,2.278-4.194c-4.449-15.023-13.08-28.375-25.354-39.415
	c12.391-5.048,22.941-6.393,23.139-6.456c3.928,2.447,7.675,5.161,11.207,8.14c14.921,12.582,24.563,28.923,24.563,41.632
	C219.776,150.013,210.542,160.841,193.777,169.191z"/>
</svg>
