<?xml version="1.0" encoding="iso-8859-1"?>
<!-- Generator: Adobe Illustrator 17.1.0, SVG Export Plug-In . SVG Version: 6.00 Build 0)  -->
<!DOCTYPE svg PUBLIC "-//W3C//DTD SVG 1.1//EN" "http://www.w3.org/Graphics/SVG/1.1/DTD/svg11.dtd">
<svg version="1.1" id="Artwork" xmlns="http://www.w3.org/2000/svg" xmlns:xlink="http://www.w3.org/1999/xlink" x="0px" y="0px"
	 width="256px" height="256px" viewBox="0 0 256 256" style="enable-background:new 0 0 256 256;" xml:space="preserve">
<g>
	<path style="fill:#999999;" d="M148.764,75.393c0.116-1.312,0.265-5.845-2.699-9.091c-2.81-3.068-6.393-3.313-25.257-3.313
		c-1.864,0-3.375,1.511-3.375,3.375c0,1.864,1.511,3.375,3.375,3.375c10.533,0,19.328,0.084,20.276,1.119
		c0.817,0.895,1.069,2.67,0.957,3.933c-0.083,0.913-0.212,7.316,0.051,9.131c0.678,4.743,0.825,9.519,0.337,10.871
		c-0.446,1.229-0.951,2.624-5.137,2.331c-1.518-0.103-5.42-0.165-10.436-0.165c-3.781,0-6.486,0.135-8.461,0.233
		c-1.003,0.05-1.796,0.089-2.338,0.089c-0.628,0-1.163-0.044-1.632-0.135c-3.088-0.6-4.654-2.304-4.654-5.066
		c0-1.133,0.183-2.53,0.376-4.008c0.207-1.587,0.443-3.385,0.492-5.21c0.051-1.863-1.419-3.415-3.282-3.465
		c-1.848-0.056-3.415,1.418-3.466,3.282c-0.04,1.478-0.243,3.024-0.438,4.519c-0.223,1.702-0.433,3.311-0.433,4.883
		c0,6,3.877,10.48,10.118,11.692c0.899,0.174,1.853,0.259,2.918,0.259c0.71,0,1.576-0.043,2.673-0.098
		c1.905-0.095,4.513-0.225,8.126-0.225c5.744,0,8.965,0.08,9.973,0.149c6.23,0.432,10.14-1.779,11.948-6.768
		c1.304-3.608,0.433-11.078-0.003-14.128C148.634,81.938,148.685,76.337,148.764,75.393z"/>
	<path style="fill:#999999;" d="M95.58,163.169c0.116-1.312,0.265-5.845-2.699-9.091c-2.014-2.199-4.995-3.313-8.86-3.313
		c-0.058,0-0.116,0.002-0.174,0.004c-0.069,0.004-6.932,0.356-10.851,0.356c-1.335,0-3.063-0.106-4.735-0.208
		c-4.365-0.267-7.154-0.389-9.08,0.172c-1.789,0.521-2.815,2.392-2.296,4.181c0.52,1.789,2.393,2.817,4.182,2.3
		c0.942-0.274,4.597-0.049,6.781,0.085c1.772,0.109,3.605,0.221,5.147,0.221c3.886,0,10.227-0.315,11.106-0.36
		c1.292,0.008,2.969,0.214,3.798,1.119c0.817,0.895,1.069,2.67,0.957,3.934c-0.083,0.914-0.211,7.317,0.051,9.13
		c0.678,4.743,0.825,9.519,0.337,10.871c-0.446,1.229-0.948,2.624-5.139,2.331c-1.522-0.103-5.423-0.165-10.436-0.165
		c-3.781,0-6.486,0.135-8.462,0.233c-1.003,0.05-1.796,0.089-2.338,0.089c-0.628,0-1.161-0.044-1.632-0.136
		c-3.089-0.6-4.655-2.304-4.655-5.066c0-1.133,0.183-2.529,0.376-4.007c0.208-1.588,0.443-3.387,0.492-5.209
		c0.006-0.214,0.009-0.428,0.011-0.642c0.009-1.864-1.495-3.382-3.359-3.391c-0.006,0-0.011,0-0.016,0
		c-1.856,0-3.366,1.501-3.375,3.359c-0.001,0.162-0.003,0.323-0.008,0.488c-0.04,1.478-0.242,3.024-0.438,4.52
		c-0.223,1.702-0.433,3.31-0.433,4.882c0,6,3.877,10.48,10.118,11.692c0.899,0.174,1.854,0.259,2.918,0.259
		c0.71,0,1.576-0.043,2.673-0.098c1.905-0.095,4.513-0.225,8.126-0.225c5.74,0,8.963,0.08,9.973,0.149
		c6.233,0.432,10.14-1.779,11.949-6.769c1.303-3.609,0.432-11.078-0.003-14.127C95.449,169.716,95.5,164.113,95.58,163.169z"/>
	<path style="fill:#999999;" d="M236.069,182.551c-0.518-3.959-1.053-8.053-1.164-12.106c-0.124-4.534,0.279-9.142,0.669-13.598
		c0.324-3.706,0.63-7.206,0.63-10.524c0-8.995-4.808-14.085-8.842-16.77c-4.305-2.866-9.082-3.907-11.243-3.907l-0.658,0.011
		c-14.541,0.276-26.033,0.427-32.358,0.427c-3.013,0-6.688-0.08-10.372-0.192c2.742-2.256,4.802-5.354,6.25-9.35
		c3.016-8.35,0.559-27.845-0.267-33.628c-0.454-3.134-0.259-18.369-0.057-20.593c0.248-2.819,0.581-12.54-5.55-19.253
		c-4.116-4.495-10.442-6.775-18.801-6.775c-0.058,0-0.116,0.002-0.174,0.004c-0.178,0.009-17.878,0.918-28.051,0.918
		c-2.051,0-11.676,0.039-14.253,0.039c-6.104,0-13.712-0.053-18.407-0.464c-0.663-0.058-1.333-0.088-1.991-0.088
		c-8.919,0-18.449,5.451-18.449,20.751c0,3.317,0.306,6.817,0.63,10.522c0.39,4.456,0.792,9.064,0.668,13.599
		c-0.111,4.054-0.646,8.148-1.164,12.108c-0.547,4.184-1.064,8.137-1.064,11.821c0,8.162,3.255,14.867,9.089,19.355
		c-2.95,0.079-5.812,0.131-8.244,0.131c-4.586,0-10.202-0.127-15.633-0.249c-5.205-0.117-10.12-0.228-13.983-0.228
		c-1.344,0-2.467,0.013-3.434,0.041c-12.742,0.36-20.05,7.896-20.05,20.675c0,3.318,0.306,6.818,0.63,10.524
		c0.389,4.456,0.792,9.063,0.669,13.598c-0.111,4.054-0.646,8.147-1.164,12.107c-0.547,4.185-1.064,8.138-1.064,11.823
		c0,12.875,8.09,22.133,21.643,24.766c1.969,0.381,4.085,0.566,6.468,0.566c1.686,0,3.846-0.107,6.581-0.244
		c4.932-0.245,11.686-0.581,21.068-0.581c14.817,0,23.095,0.204,25.897,0.394c1.184,0.082,2.339,0.124,3.434,0.124h0
		c11.441,0,18.381-4.444,21.839-13.989c3.016-8.349,0.559-27.845-0.267-33.628c-0.454-3.134-0.259-18.369-0.057-20.593
		c0.248-2.819,0.582-12.539-5.55-19.253c-0.231-0.252-0.471-0.495-0.716-0.733c2.593-0.06,5.447-0.098,8.604-0.098
		c3.874,0,7.297,0.014,10.297,0.038c-0.726,0.58-1.409,1.206-2.034,1.889c-6.129,6.711-5.795,16.431-5.546,19.258
		c0.201,2.217,0.396,17.455-0.06,20.591c-0.825,5.776-3.281,25.271-0.264,33.624c3.787,10.454,11.758,14.801,25.266,13.862
		c2.809-0.191,11.089-0.394,25.903-0.394c9.382,0,25.963,0.825,27.649,0.825c2.383,0,4.499-0.185,6.471-0.567
		c13.551-2.633,21.641-11.891,21.641-24.766C237.134,190.689,236.617,186.736,236.069,182.551z M119.449,202.023
		c-1.794,4.953-4.913,9.535-15.492,9.535c-0.939,0-1.937-0.036-2.971-0.108c-2.918-0.198-11.374-0.41-26.36-0.41
		c-9.55,0-16.401,0.341-21.403,0.59c-2.641,0.132-4.728,0.235-6.246,0.235c-1.947,0-3.644-0.145-5.183-0.443
		c-4.864-0.945-16.178-4.604-16.178-18.139c0-3.245,0.489-6.986,1.007-10.947c0.54-4.128,1.098-8.397,1.218-12.798
		c0.134-4.921-0.286-9.725-0.692-14.37c-0.311-3.555-0.604-6.913-0.604-9.936c0-9.115,4.413-13.671,13.491-13.928
		c0.902-0.026,1.963-0.038,3.243-0.038c3.787,0,8.666,0.11,13.831,0.227c5.469,0.123,11.124,0.251,15.785,0.251
		c9.779,0,25.787-0.794,28.131-0.914c0.107-0.002,0.215-0.004,0.326-0.006c6.267,0.038,10.84,1.577,13.587,4.577
		c3.399,3.722,4.176,9.925,3.808,14.097c-0.207,2.28-0.467,18.251,0.099,22.155C120.066,180.179,121.562,196.172,119.449,202.023z
		 M106.407,123.853c-2.047,0.102-3.756,0.187-5.131,0.22c-0.053,0-0.103-0.003-0.155-0.003c-0.058,0-0.116,0.002-0.174,0.004
		c-0.009,0-0.07,0.004-0.172,0.009c-0.214,0.003-0.418,0.005-0.613,0.005c-1.947,0-3.644-0.145-5.182-0.443
		c-4.865-0.945-16.178-4.605-16.178-18.139c0-3.245,0.489-6.986,1.007-10.946c0.54-4.129,1.098-8.398,1.218-12.799
		c0.134-4.922-0.285-9.726-0.691-14.372c-0.311-3.554-0.604-6.912-0.604-9.935c0-12.183,7.33-14.001,11.699-14.001
		c0.462,0,0.934,0.021,1.402,0.062c4.955,0.435,12.755,0.49,18.996,0.49c2.587,0,12.211-0.039,14.253-0.039
		c10.079,0,26.779-0.844,28.31-0.923c6.344,0.014,10.965,1.556,13.735,4.58c3.399,3.722,4.175,9.925,3.808,14.097
		c-0.207,2.28-0.467,18.251,0.099,22.155c1.218,8.527,2.714,24.519,0.601,30.371c-1.794,4.953-4.913,9.535-15.491,9.535
		c-0.939,0-1.937-0.036-2.972-0.108c-2.92-0.198-11.377-0.41-26.36-0.41C118.262,123.263,111.41,123.604,106.407,123.853z
		 M214.208,212.513c-1.541,0.298-23.284-0.382-32.834-0.382c-14.983,0-23.441,0.212-26.365,0.41
		c-1.03,0.072-2.027,0.108-2.966,0.108c-10.579,0-13.697-4.583-15.49-9.532c-2.115-5.854-0.619-21.847,0.598-30.366
		c0.567-3.906,0.308-19.88,0.102-22.154c-0.368-4.181,0.408-10.384,3.804-14.103c2.772-3.028,7.394-4.569,13.738-4.583
		c1.531,0.079,18.23,0.923,28.31,0.923c6.459,0,17.692-0.148,32.486-0.429l0.53-0.01c0.133,0,13.335,1.477,13.335,13.927
		c0,3.023-0.294,6.381-0.604,9.936c-0.406,4.645-0.826,9.449-0.692,14.37c0.12,4.4,0.679,8.669,1.219,12.797
		c0.518,3.961,1.007,7.702,1.007,10.947C230.384,207.909,219.07,211.568,214.208,212.513z"/>
	<path style="fill:#999999;" d="M205.293,171.544c-0.027-0.977,0.013-1.421,0.092-2.304c0.021-0.235,0.044-0.491,0.068-0.781
		c0.153-1.858-1.229-3.488-3.086-3.641c-1.859-0.154-3.488,1.229-3.641,3.086c-0.022,0.272-0.044,0.512-0.064,0.732
		c-0.086,0.961-0.154,1.72-0.117,3.092c0.05,1.825,0.285,3.624,0.493,5.211c0.194,1.478,0.376,2.875,0.376,4.008
		c0,2.762-1.566,4.466-4.654,5.066c-0.47,0.091-1.004,0.136-1.632,0.136c-0.542,0-1.335-0.039-2.338-0.089
		c-1.976-0.098-4.681-0.233-8.462-0.233c-5.016,0-8.918,0.062-10.441,0.165c-4.184,0.293-4.687-1.102-5.131-2.328
		c-0.489-1.355-0.342-6.131,0.335-10.867c0.264-1.82,0.135-8.222,0.053-9.13c-0.112-1.271,0.139-3.046,0.953-3.938
		c0.832-0.908,2.509-1.114,3.801-1.122c0.878,0.045,7.219,0.36,11.106,0.36c1.541,0,3.374-0.112,5.146-0.221
		c2.14-0.131,4.353-0.265,5.836-0.191c1.858,0.096,3.447-1.337,3.542-3.199c0.095-1.862-1.337-3.447-3.199-3.542
		c-1.86-0.095-4.266,0.053-6.592,0.195c-1.671,0.102-3.399,0.208-4.734,0.208c-3.919,0-10.782-0.352-10.851-0.356
		c-0.058-0.003-0.116-0.004-0.174-0.004c-3.866,0-6.847,1.115-8.864,3.317c-2.96,3.242-2.811,7.775-2.695,9.092
		c0.079,0.939,0.13,6.542-0.011,7.569c-0.435,3.044-1.305,10.513-0.001,14.125c1.807,4.986,5.717,7.199,11.942,6.766
		c1.013-0.069,4.234-0.149,9.978-0.149c3.613,0,6.222,0.13,8.127,0.225c1.097,0.054,1.964,0.098,2.673,0.098
		c1.065,0,2.02-0.085,2.919-0.259c6.241-1.212,10.118-5.692,10.118-11.692c0-1.573-0.211-3.181-0.433-4.883
		C205.536,174.568,205.334,173.022,205.293,171.544z"/>
</g>
</svg>
