<?xml version="1.0" encoding="iso-8859-1"?>
<!-- Generator: Adobe Illustrator 17.1.0, SVG Export Plug-In . SVG Version: 6.00 Build 0)  -->
<!DOCTYPE svg PUBLIC "-//W3C//DTD SVG 1.1//EN" "http://www.w3.org/Graphics/SVG/1.1/DTD/svg11.dtd">
<svg version="1.1" id="Artwork" xmlns="http://www.w3.org/2000/svg" xmlns:xlink="http://www.w3.org/1999/xlink" x="0px" y="0px"
	 width="256px" height="256px" viewBox="0 0 256 256" style="enable-background:new 0 0 256 256;" xml:space="preserve">
<path style="fill:#999999;" d="M236.225,151.037c0-10.423-7.552-19.203-17.735-21.675c0.712-2.701,1.001-6.297,0.86-10.783
	c-0.094-3.614-1.165-22.648-13.039-40.666c-6.779-10.286-15.867-18.445-27.014-24.249c-13.554-7.056-30.22-10.635-49.536-10.635
	c-0.578,0-2.944,0-3.522,0c-19.316,0-35.982,3.578-49.536,10.635c-11.147,5.804-20.236,13.962-27.014,24.249
	c-11.873,18.018-12.945,37.051-13.039,40.666c-0.14,4.486,0.149,8.082,0.86,10.783c-10.184,2.472-17.735,11.252-17.735,21.675
	c0,9.59,6.252,17.833,15.394,21c-0.501,1.898-1.398,15.533-1.136,22.521c0.465,12.403,2.262,17.519,6.416,18.249
	c1.246,0.216,173.855,0.216,175.101,0c4.154-0.73,5.951-5.846,6.416-18.249c0.262-6.988-0.635-20.624-1.136-22.521
	C229.973,168.87,236.225,160.628,236.225,151.037z M43.397,118.772c0.183-7.062,4.065-68.992,82.842-68.992c0.579,0,2.943,0,3.522,0
	c78.777,0,82.659,61.93,82.842,68.992c0.15,4.818-0.414,8.5-0.972,9.894H44.369C43.811,127.272,43.247,123.59,43.397,118.772z
	 M215.27,192.798c-0.239,9.072-1.191,12.361-1.636,13.419c-3.602,0.258-167.665,0.258-171.267,0
	c-0.445-1.059-1.397-4.347-1.636-13.419c-0.172-6.54,0.874-18.886,1.169-19.718c9.581,0,162.62,0,172.201,0
	C214.395,173.912,215.442,186.258,215.27,192.798z M216.109,166.33c-4.925,0-171.292,0-176.217,0
	c-7.792-1.501-13.366-7.817-13.366-15.293c0-8.613,7.548-15.621,16.826-15.621h169.298c9.278,0,16.826,7.008,16.826,15.621
	C229.475,158.513,223.901,164.829,216.109,166.33z"/>
</svg>
