<?xml version="1.0" encoding="iso-8859-1"?>
<!-- Generator: Adobe Illustrator 17.1.0, SVG Export Plug-In . SVG Version: 6.00 Build 0)  -->
<!DOCTYPE svg PUBLIC "-//W3C//DTD SVG 1.1//EN" "http://www.w3.org/Graphics/SVG/1.1/DTD/svg11.dtd">
<svg version="1.1" id="Artwork" xmlns="http://www.w3.org/2000/svg" xmlns:xlink="http://www.w3.org/1999/xlink" x="0px" y="0px"
	 width="256px" height="256px" viewBox="0 0 256 256" style="enable-background:new 0 0 256 256;" xml:space="preserve">
<path style="fill:#999999;" d="M184.292,70.529c-0.878,0-1.771,0.029-2.652,0.085c-0.023,0.002-0.045,0.003-0.068,0.005
	c-0.655,0.056-1.579-0.482-2.012-1.497c-8.612-20.917-28.792-34.432-51.412-34.432c-0.05,0-0.099,0.003-0.148,0.003
	c-0.05,0-0.099-0.003-0.148-0.003c-22.62,0-42.8,13.515-51.412,34.432c-0.434,1.015-1.358,1.552-2.012,1.497
	c-0.023-0.002-0.045-0.004-0.068-0.005c-0.882-0.056-1.774-0.085-2.652-0.085c-22.163,0-40.193,18.031-40.193,40.193
	c0,20.76,15.638,37.875,36.018,39.967l4.868,15.203l12.105,37.756c1.706,5.319,6.724,9.815,14.512,13.003
	c1.145,0.468,2.343,0.899,3.581,1.3c0.029,0.01,0.058,0.018,0.087,0.028c4.233,1.363,8.981,2.328,14.104,2.869
	c0.018,0.002,0.036,0.004,0.054,0.006c3.736,0.428,17.18,0.766,22.312,0c0.018-0.003,0.036-0.004,0.055-0.006
	c5.124-0.54,9.871-1.505,14.104-2.869c0.029-0.01,0.058-0.018,0.087-0.028c1.238-0.401,2.436-0.831,3.581-1.3
	c7.788-3.187,12.806-7.684,14.512-13.003l12.105-37.756l4.868-15.203c20.38-2.092,36.018-19.206,36.018-39.967
	C224.486,88.56,206.455,70.529,184.292,70.529z M106.582,212.116l-12.174-52.012c-0.425-1.815-2.241-2.941-4.055-2.517
	c-1.815,0.425-2.942,2.241-2.517,4.055l11.137,47.584c-4.419-2.243-7.177-4.947-8.04-7.639l-12.105-37.755l-4.159-12.988
	c4.148-0.165,9.803-0.762,14.105-2.622c3.481-1.504,6.84-4.07,9.539-6.131c1.175-0.898,2.696-2.059,3.62-2.609
	c2,1.125,4.114,2.1,6.317,2.933l5.233,71.191C110.997,213.211,108.692,212.707,106.582,212.116z M135.691,214.383
	c-2.074,0.146-13.308,0.146-15.382,0l-5.138-69.904c4.037,0.903,8.29,1.37,12.681,1.37c0.049,0,0.099-0.002,0.148-0.002
	c0.049,0,0.099,0.002,0.148,0.002c4.391,0,8.644-0.468,12.681-1.37L135.691,214.383z M177.171,163.833l-12.105,37.755
	c-0.863,2.692-3.622,5.396-8.04,7.639l11.137-47.584c0.425-1.815-0.702-3.631-2.517-4.055c-1.814-0.423-3.63,0.702-4.055,2.517
	l-12.173,52.012c-2.11,0.591-4.415,1.094-6.902,1.492l5.233-71.191c2.204-0.833,4.317-1.809,6.317-2.933
	c0.924,0.55,2.444,1.711,3.62,2.609c2.699,2.061,6.058,4.626,9.539,6.131c4.302,1.859,9.957,2.456,14.105,2.622L177.171,163.833z
	 M185.78,144.127c-0.11,0.004-0.703,0.026-1.624,0.026c-2.807,0-9.814-0.207-14.253-2.126c-2.72-1.176-5.589-3.366-8.12-5.299
	c-3.34-2.551-5.547-4.237-7.909-4.237c-0.809,0-1.589,0.212-2.256,0.611c-6.559,3.923-14.674,5.997-23.469,5.997
	c-0.049,0-0.099-0.002-0.148-0.002c-0.049,0-0.099,0.002-0.148,0.002c-8.794,0-16.91-2.074-23.469-5.997
	c-0.666-0.399-1.447-0.611-2.256-0.611c-2.362,0-4.569,1.685-7.91,4.237c-2.531,1.933-5.4,4.124-8.12,5.299
	c-4.439,1.919-11.447,2.126-14.253,2.126c-0.921,0-1.515-0.022-1.624-0.026c-17.926-0.793-31.956-15.466-31.956-33.405
	c0-18.441,15.003-33.443,33.443-33.443c0.726,0,2.601,0.093,2.805,0.093c3.49,0,6.69-2.214,8.152-5.641
	c7.583-18.417,25.313-30.291,45.187-30.291c0.05,0,0.099,0.003,0.148,0.003c0.05,0,0.099-0.003,0.148-0.003
	c19.873,0,37.604,11.875,45.187,30.291c1.462,3.427,4.662,5.641,8.152,5.641c0.205,0,2.079-0.093,2.805-0.093
	c18.441,0,33.444,15.003,33.444,33.443C217.736,128.661,203.706,143.334,185.78,144.127z"/>
</svg>
