<?xml version="1.0" encoding="iso-8859-1"?>
<!-- Generator: Adobe Illustrator 17.1.0, SVG Export Plug-In . SVG Version: 6.00 Build 0)  -->
<!DOCTYPE svg PUBLIC "-//W3C//DTD SVG 1.1//EN" "http://www.w3.org/Graphics/SVG/1.1/DTD/svg11.dtd">
<svg version="1.1" id="Artwork" xmlns="http://www.w3.org/2000/svg" xmlns:xlink="http://www.w3.org/1999/xlink" x="0px" y="0px"
	 width="256px" height="256px" viewBox="0 0 256 256" style="enable-background:new 0 0 256 256;" xml:space="preserve">
<g>
	<path style="fill:#999999;" d="M219.741,134.556c-6.663-14.4-18.784-28.335-34.129-39.236
		c-18.26-12.973-35.461-20.278-63.661-23.802c-2.742-0.344-6.268-0.873-9.689-0.873c-13.546,0-23.82,9.581-27.906,14.093
		c-4.669-2.408-9.18-3.626-13.441-3.626c-11.526,0-18.016,8.562-20.701,13.238c-3.493-1.117-9.62-2.04-13.936,4.729
		c-3.756,5.891-1.116,12.884,1.156,17.013c-6.116,3.14-9.562,7.079-10.258,11.74c-1.082,7.239,4.92,13.233,7.546,15.471
		c-6.013,14-8.235,28.376-9.033,38.114c-0.077,0.94,0.243,1.869,0.882,2.562c0.639,0.693,1.539,1.088,2.482,1.088
		c0,0,189.203,0.284,190.12,0.284c4.19,0,5.61,0.258,8.807-3.978C234.511,172.719,225.958,147.99,219.741,134.556z M33.851,128.83
		c0.556-3.719,5.624-6.478,9.777-8.139c0.987-0.394,1.73-1.23,2.006-2.256c0.276-1.026,0.053-2.122-0.602-2.958
		c-1.602-2.046-5.604-8.783-3.063-12.768c1.915-3.004,3.979-2.847,7.608-1.406c0.541,0.216,1.009,0.401,1.481,0.519
		c1.639,0.41,3.324-0.454,3.951-2.02c0.048-0.12,4.906-11.938,15.905-11.938c3.784,0,7.987,1.37,12.491,4.072
		c1.484,0.889,3.399,0.515,4.436-0.869c0.103-0.137,10.417-13.67,24.421-13.67c8.238,0,14.358,2.981,18.189,8.859
		c3.074,4.716,3.565,9.617,3.586,9.847c0,0.005,0.001,0.011,0.001,0.016l0.003,0.049c0,1.172,0.611,2.259,1.609,2.873
		c0.998,0.614,2.247,0.665,3.293,0.136c2.891-1.46,11.434-4.483,16.175-0.974c5.663,4.191,7.326,12.821,7.443,14.361
		c-0.066,0.921,0.249,1.844,0.894,2.538c0.842,0.906,2.112,1.28,3.309,0.973c0.069-0.018,7.06-1.668,10.403,2.406
		c2.813,3.429,0.914,9.783-0.052,11.933c-0.515,1.13-0.369,2.451,0.382,3.44c0.751,0.989,1.982,1.485,3.211,1.295
		c0.083-0.014,8.541-1.189,11.485,3.647c2.485,4.083-4.421,9.321-4.483,9.367c-1.184,0.859-1.68,2.382-1.228,3.774
		c0.373,1.148,1.321,1.991,2.464,2.25c0.476,0.12,9.257,2.433,12.505,8.928c2.512,5.023-2.165,11.982-5.08,15.302
		c-1.306-0.037-3.512-0.08-6.997-0.094c-6.9-20.444-18.463-39.529-32.735-53.965c-15.871-16.052-33.97-24.893-50.963-24.893
		c-15.155,0-29.505,3.611-41.5,10.441c-10.823,6.164-19.538,14.728-25.201,24.766c-0.4,0.709-0.802,1.453-1.216,2.243
		C35.647,134.767,33.432,131.633,33.851,128.83z M32.766,178.317c1.023-9.324,3.385-21.773,8.757-33.716
		c0.509-1.133,1.042-2.253,1.582-3.325c0.612-1.21,1.184-2.286,1.749-3.287c8.666-15.361,29.195-31.774,60.822-31.774
		c15.176,0,31.57,8.129,46.163,22.889c13.061,13.21,23.746,30.549,30.392,49.214H32.766z M223.492,176.408
		c-1.713,2.27-2.99,2.295-7.745,2.137c-1.048-0.035-10.967-0.071-10.967-0.071c3.101-4.767,6.021-11.754,2.709-18.378
		c-2.669-5.337-7.601-8.635-11.607-10.507c3.048-3.785,5.253-9.087,2.077-14.302c-3.184-5.231-8.933-6.667-13.143-6.96
		c0.878-4.018,1.172-9.737-2.431-14.128c-3.936-4.797-9.813-5.386-13.602-5.18c-0.5-2.153-1.188-4.101-1.201-4.137
		c-1.312-3.641-3.843-8.697-8.448-12.105c-6.112-4.523-14.274-2.913-19.13-1.29c-0.622-2.387-1.729-5.491-3.687-8.59
		c-0.46-0.728-0.981-1.473-1.566-2.22c40.096,8.364,68.125,33.506,78.864,56.714C225.876,163.888,224.902,174.539,223.492,176.408z"
		/>
	<path style="fill:#999999;" d="M136.689,131.221c-5.791,0-10.502,4.713-10.502,10.506c0,5.791,4.711,10.502,10.502,10.502
		c5.791,0,10.502-4.711,10.502-10.502C147.191,135.934,142.48,131.221,136.689,131.221z M136.689,145.48
		c-2.069,0-3.752-1.683-3.752-3.752c0-2.071,1.683-3.756,3.752-3.756c2.069,0,3.752,1.685,3.752,3.756
		C140.441,143.797,138.758,145.48,136.689,145.48z"/>
	<path style="fill:#999999;" d="M118.815,150.621c-5.791,0-10.502,4.713-10.502,10.506c0,5.791,4.711,10.502,10.502,10.502
		c5.791,0,10.502-4.711,10.502-10.502C129.316,155.334,124.606,150.621,118.815,150.621z M118.815,164.88
		c-2.069,0-3.752-1.683-3.752-3.752c0-2.071,1.683-3.756,3.752-3.756c2.069,0,3.752,1.685,3.752,3.756
		C122.566,163.197,120.883,164.88,118.815,164.88z"/>
	<path style="fill:#999999;" d="M123.436,132.217c0-5.791-4.713-10.503-10.506-10.503c-5.791,0-10.502,4.711-10.502,10.503
		c0,5.793,4.711,10.506,10.502,10.506C118.723,142.724,123.436,138.011,123.436,132.217z M109.178,132.217
		c0-2.069,1.683-3.753,3.752-3.753c2.071,0,3.756,1.684,3.756,3.753c0,2.071-1.685,3.756-3.756,3.756
		C110.861,135.974,109.178,134.289,109.178,132.217z"/>
</g>
</svg>
