<?xml version="1.0" encoding="iso-8859-1"?>
<!-- Generator: Adobe Illustrator 17.1.0, SVG Export Plug-In . SVG Version: 6.00 Build 0)  -->
<!DOCTYPE svg PUBLIC "-//W3C//DTD SVG 1.1//EN" "http://www.w3.org/Graphics/SVG/1.1/DTD/svg11.dtd">
<svg version="1.1" id="Artwork" xmlns="http://www.w3.org/2000/svg" xmlns:xlink="http://www.w3.org/1999/xlink" x="0px" y="0px"
	 width="256px" height="256px" viewBox="0 0 256 256" style="enable-background:new 0 0 256 256;" xml:space="preserve">
<g>
	<path style="fill:#999999;" d="M189.433,33.945c-1.024-4.661-7.438-8.215-19.526-10.832c-11.2-2.425-26.042-3.761-41.792-3.761
		s-30.592,1.336-41.792,3.761c-10.52,2.278-18.247,7.154-19.421,9.992c-0.593,1.434-14.435,35.475-8.421,64.636
		c2.906,14.093,7.414,23.247,11.037,30.603c3.867,7.852,6.921,14.055,6.921,23.379c0,19.213-0.186,76.908-0.188,77.489
		c-0.005,1.66,1.198,3.078,2.837,3.343c0.254,0.041,25.634,4.093,49.362,4.093c23.737,0,48.235-4.055,48.479-4.096
		c1.63-0.273,2.823-1.687,2.818-3.34c-0.002-0.581-0.188-58.276-0.188-77.489c0-9.324,3.054-15.526,6.921-23.379
		c3.622-7.356,8.13-16.51,11.037-30.603C203.088,70.733,191.627,39.544,189.433,33.945z M89.402,29.367
		c10.542-2.105,24.291-3.265,38.714-3.265c14.423,0,28.172,1.159,38.714,3.265c12.357,2.468,15.301,5.17,15.893,5.901
		c0.005,0.02,0.009,0.04,0.014,0.059c-0.557,0.704-3.447,3.43-15.906,5.919c-10.542,2.106-24.291,3.265-38.714,3.265
		s-28.172-1.159-38.714-3.265c-12.577-2.512-15.404-5.268-15.923-5.94C73.997,34.635,76.825,31.879,89.402,29.367z M190.907,96.378
		c-2.732,13.248-6.849,21.608-10.481,28.984c-4.086,8.298-7.616,15.465-7.616,26.361c0,16.729,0.141,62.601,0.178,74.607
		c-7.025,1.038-26.037,3.567-44.538,3.567c-18.578,0-38.243-2.549-45.44-3.581c0.038-12.029,0.178-57.871,0.178-74.593
		c0-10.896-3.529-18.063-7.616-26.361c-3.282-6.665-6.96-14.135-9.654-25.288c3.489,2.243,9.112,4.101,17.038,5.664
		c12.256,2.417,28.506,3.749,45.755,3.749c0,0,0.003,0,0.005,0c13.595,0,26.615-0.827,37.651-2.391
		c1.845-0.261,3.13-1.97,2.868-3.815c-0.261-1.846-1.97-3.13-3.815-2.868c-10.728,1.521-23.42,2.324-36.704,2.324
		c-0.002,0-0.004,0-0.004,0c-15.771,0-30.836-1.15-42.42-3.238c-12.397-2.235-16.865-4.852-17.852-5.967
		c0.988-1.115,5.456-3.732,17.852-5.967c11.584-2.088,26.649-3.238,42.419-3.238c15.85,0,31.269,1.146,43.416,3.227
		c13.567,2.324,18.327,5.059,19.265,6.145C191.251,94.597,191.09,95.491,190.907,96.378z M192.161,86.199
		c-3.372-1.698-8.572-3.38-16.554-4.879c-12.67-2.379-29.762-3.743-46.894-3.743c-17.25,0-33.499,1.331-45.755,3.748
		c-9.604,1.894-15.832,4.22-18.972,7.141c-1.441-18.001,3.759-36.999,6.911-46.541c3.247,2.2,8.369,4.047,15.426,5.575
		c11.2,2.425,26.042,3.761,41.792,3.761s30.592-1.336,41.792-3.761c6.923-1.499,11.982-3.306,15.237-5.451
		C188.167,51.229,193.019,68.969,192.161,86.199z"/>
</g>
</svg>
