<?xml version="1.0" encoding="iso-8859-1"?>
<!-- Generator: Adobe Illustrator 17.1.0, SVG Export Plug-In . SVG Version: 6.00 Build 0)  -->
<!DOCTYPE svg PUBLIC "-//W3C//DTD SVG 1.1//EN" "http://www.w3.org/Graphics/SVG/1.1/DTD/svg11.dtd">
<svg version="1.1" id="Artwork" xmlns="http://www.w3.org/2000/svg" xmlns:xlink="http://www.w3.org/1999/xlink" x="0px" y="0px"
	 width="256px" height="256px" viewBox="0 0 256 256" style="enable-background:new 0 0 256 256;" xml:space="preserve">
<g>
	<path style="fill:#999999;" d="M207.401,102.519l-45.345-19.695c0.217-1.453,0.328-2.925,0.328-4.403
		c0-7.784-3.022-14.872-7.948-20.165c3.392-2.74,6.931-4.513,7.899-4.152c0,0,0.014,0.013,0.04,0.048
		c1.096,1.508,3.207,1.84,4.714,0.744c1.507-1.096,1.841-3.207,0.744-4.714c-1.19-1.637-2.898-2.603-4.938-2.796
		c-2.82-0.266-5.981,1.101-8.682,2.758c-0.153-4.967-1.402-10.963-6.037-13.942c-1.568-1.009-3.656-0.555-4.664,1.013
		c-1.008,1.568-0.554,3.656,1.014,4.664c2.543,1.635,3.074,6.691,2.907,10.821c-4.33-2.481-9.339-3.908-14.678-3.908
		c-16.338,0-29.629,13.291-29.629,29.629c0,0.99,0.051,1.968,0.146,2.934l-54.557,21.312c-0.018,0.007-0.027,0.016-0.043,0.024
		c-0.194,0.079-0.383,0.171-0.562,0.286c-0.962,0.622-1.542,1.689-1.542,2.834v72.45c0,1.278,0.722,2.446,1.865,3.019l77.363,38.7
		c0.475,0.237,0.992,0.356,1.51,0.356c0.504,0,1.009-0.113,1.474-0.339l78.75-38.25c1.163-0.565,1.901-1.743,1.901-3.036v-72.9
		c0-0.025-0.004-0.048-0.005-0.073C209.476,104.39,208.712,103.088,207.401,102.519z M132.755,55.542
		c12.615,0,22.879,10.263,22.879,22.879c0,1.893-0.231,3.775-0.688,5.592c-2.555,10.179-11.68,17.287-22.191,17.287
		c-12.615,0-22.879-10.263-22.879-22.879S120.14,55.542,132.755,55.542z M132.755,108.05c12.277,0,23.093-7.494,27.524-18.639
		l37.651,16.353L128,137.21l-69.341-31.18l46.076-17.999C108.736,99.664,119.781,108.05,132.755,108.05z M53.318,111.028
		l71.307,32.065v34.552l-71.198-34.94c-0.036-0.018-0.072-0.03-0.108-0.047V111.028z M53.318,150.172l71.307,34.992v26.682
		l-71.307-35.67V150.172z M131.375,211.232v-26.064l48.328-23.589c1.675-0.818,2.37-2.838,1.553-4.514
		c-0.818-1.675-2.837-2.371-4.514-1.553l-45.366,22.144v-34.565l71.307-32.065v31.824l-7.247,3.538
		c-1.675,0.818-2.37,2.838-1.553,4.514c0.585,1.198,1.786,1.895,3.036,1.895c0.497,0,1.001-0.11,1.478-0.343l4.286-2.092v26.234
		L131.375,211.232z"/>
	<path style="fill:#999999;" d="M183.557,125.534c-5.583,0-10.125,4.542-10.125,10.125c0,5.583,4.542,10.126,10.125,10.126
		c5.583,0,10.126-4.543,10.126-10.126C193.683,130.076,189.141,125.534,183.557,125.534z M183.557,139.036
		c-1.861,0-3.375-1.514-3.375-3.376c0-1.861,1.514-3.375,3.375-3.375c1.862,0,3.376,1.514,3.376,3.375
		C186.933,137.521,185.419,139.036,183.557,139.036z"/>
	<path style="fill:#999999;" d="M150.338,142.036c-5.583,0-10.125,4.542-10.125,10.125s4.542,10.126,10.125,10.126
		s10.126-4.543,10.126-10.126S155.921,142.036,150.338,142.036z M150.338,155.537c-1.861,0-3.375-1.514-3.375-3.376
		c0-1.861,1.514-3.375,3.375-3.375c1.862,0,3.376,1.514,3.376,3.375C153.714,154.023,152.199,155.537,150.338,155.537z"/>
	<path style="fill:#999999;" d="M108.281,162.612c5.583,0,10.126-4.543,10.126-10.126s-4.543-10.125-10.126-10.125
		c-5.583,0-10.125,4.542-10.125,10.125S102.698,162.612,108.281,162.612z M108.281,149.11c1.862,0,3.376,1.514,3.376,3.375
		c0,1.862-1.514,3.376-3.376,3.376c-1.861,0-3.375-1.514-3.375-3.376C104.906,150.625,106.42,149.11,108.281,149.11z"/>
	<path style="fill:#999999;" d="M75.521,146.986c5.583,0,10.126-4.543,10.126-10.126c0-5.583-4.543-10.125-10.126-10.125
		c-5.583,0-10.125,4.542-10.125,10.125C65.395,142.443,69.937,146.986,75.521,146.986z M75.521,133.484
		c1.862,0,3.376,1.514,3.376,3.375c0,1.862-1.514,3.376-3.376,3.376c-1.861,0-3.375-1.514-3.375-3.376
		C72.145,134.999,73.659,133.484,75.521,133.484z"/>
</g>
</svg>
