<?xml version="1.0" encoding="iso-8859-1"?>
<!-- Generator: Adobe Illustrator 17.1.0, SVG Export Plug-In . SVG Version: 6.00 Build 0)  -->
<!DOCTYPE svg PUBLIC "-//W3C//DTD SVG 1.1//EN" "http://www.w3.org/Graphics/SVG/1.1/DTD/svg11.dtd">
<svg version="1.1" id="Artwork" xmlns="http://www.w3.org/2000/svg" xmlns:xlink="http://www.w3.org/1999/xlink" x="0px" y="0px"
	 width="256px" height="256px" viewBox="0 0 256 256" style="enable-background:new 0 0 256 256;" xml:space="preserve">
<g>
	<path style="fill:#999999;" d="M137.041,203.29v-7.756c0-0.999,0.864-1.832,3.539-4.15c3.747-3.248,9.41-8.157,15.656-18.746
		c10.515-17.826,10.466-48.742,10.41-84.539c-0.004-2.627-0.008-5.279-0.008-7.953c0-1.864-1.511-3.375-3.375-3.375H89.478
		c-1.864,0-3.375,1.511-3.375,3.375c0,2.854-0.005,5.684-0.01,8.485c-0.065,35.558-0.12,66.266,10.344,84.007
		c6.256,10.605,11.948,15.514,15.715,18.763c2.628,2.266,3.548,3.147,3.548,4.133v7.751c-17.205,1.254-34.598,5.759-34.598,14.962
		c0,4.979,4.948,8.918,14.707,11.708c8.199,2.344,19.041,3.636,30.527,3.636s22.327-1.291,30.527-3.636
		c9.759-2.79,14.708-6.73,14.708-11.708C171.57,209.056,154.224,204.551,137.041,203.29z M155.007,223.465
		c-7.613,2.177-17.795,3.376-28.671,3.376c-10.876,0-21.058-1.199-28.671-3.376c-8.067-2.306-9.813-4.74-9.813-5.218
		c0-0.385,1.333-2.395,7.492-4.494c5.27-1.796,12.413-3.087,20.355-3.698v6.359c0,1.864,1.511,3.375,3.375,3.375
		c1.864,0,3.375-1.511,3.375-3.375v-20.88c0-4.166-2.729-6.52-5.89-9.245c-3.637-3.137-8.618-7.432-14.31-17.08
		c-5.569-9.441-7.861-23.57-8.794-40.583h33.739c1.864,0,3.375-1.511,3.375-3.375s-1.511-3.375-3.375-3.375H93.158
		c-0.355-10.3-0.336-21.493-0.315-33.233c0.003-1.697,0.006-3.405,0.008-5.122h67.039c0.002,1.537,0.004,3.067,0.007,4.588
		c0.019,11.936,0.036,23.313-0.334,33.767h-6.04c-1.864,0-3.375,1.511-3.375,3.375s1.511,3.375,3.375,3.375h5.733
		c-0.951,17.012-3.262,31.139-8.833,40.583c-5.687,9.64-10.644,13.937-14.264,17.075c-3.148,2.729-5.868,5.086-5.868,9.251v20.88
		c0,1.864,1.511,3.375,3.375,3.375c1.864,0,3.375-1.511,3.375-3.375v-6.354c7.916,0.614,15.032,1.903,20.288,3.693
		c6.158,2.099,7.492,4.109,7.492,4.494C164.82,218.726,163.074,221.159,155.007,223.465z"/>
	<path style="fill:#999999;" d="M140.357,167.579c1.864,0,3.375-1.511,3.375-3.375V91.355c0-1.864-1.511-3.375-3.375-3.375
		c-1.864,0-3.375,1.511-3.375,3.375v72.849C136.982,166.068,138.493,167.579,140.357,167.579z"/>
	<path style="fill:#999999;" d="M174.559,24.313c-0.813-1.677-2.832-2.379-4.509-1.566c-5.555,2.691-10.465,4.349-14.797,5.813
		c-10.208,3.448-18.271,6.171-18.271,19.182v21.033c0,1.864,1.511,3.375,3.375,3.375c1.864,0,3.375-1.511,3.375-3.375V47.743
		c0-7.819,3.062-9.201,13.681-12.787c4.297-1.451,9.644-3.257,15.58-6.133C174.671,28.009,175.372,25.991,174.559,24.313z"/>
</g>
</svg>
