<?xml version="1.0" encoding="iso-8859-1"?>
<!-- Generator: Adobe Illustrator 17.1.0, SVG Export Plug-In . SVG Version: 6.00 Build 0)  -->
<!DOCTYPE svg PUBLIC "-//W3C//DTD SVG 1.1//EN" "http://www.w3.org/Graphics/SVG/1.1/DTD/svg11.dtd">
<svg version="1.1" id="Artwork" xmlns="http://www.w3.org/2000/svg" xmlns:xlink="http://www.w3.org/1999/xlink" x="0px" y="0px"
	 width="256px" height="256px" viewBox="0 0 256 256" style="enable-background:new 0 0 256 256;" xml:space="preserve">
<g>
	<path style="fill:#999999;" d="M178.077,124.168h-9.469c-3.728,0-6.187,1.682-6.187,4.345v36.41c0,1.864,1.511,3.375,3.375,3.375
		s3.375-1.511,3.375-3.375v-33.912c0.406-0.062,8.906-0.094,8.906-0.094c4.485,0,8.133,3.648,8.133,8.132v15.337
		c0,1.915-0.679,3.776-1.911,5.242c-1.199,1.426-1.015,3.556,0.412,4.755c1.427,1.199,3.556,1.015,4.755-0.412
		c2.253-2.68,3.494-6.084,3.494-9.585v-15.337C192.961,130.844,186.284,124.168,178.077,124.168z"/>
	<path style="fill:#999999;" d="M178.077,110.333h-7.669c-0.41,0-0.822,0.01-1.237,0.028V96.832c0-0.439-0.018-0.881-0.052-1.324
		c5.177-4.532,8.108-10.925,8.108-17.829c0-7.137-3.2-13.861-8.779-18.448c-5.01-4.118-11.378-5.98-17.712-5.233
		c-4.379-3.988-9.998-6.262-15.847-6.412c-4.674-5.806-11.712-9.223-19.17-9.223c-5.838,0-11.363,2.01-15.778,5.7
		c-4.952-1.378-10.83-1.237-12.93-0.979c-9.454,1.106-17.385,6.428-21.19,14.128c-9.719,2.656-16.599,11.53-16.599,21.749
		c0,6.664,2.984,12.974,8.074,17.255c-0.011,0.199-0.018,0.405-0.018,0.616v103.607c0,9.483,7.709,17.198,17.185,17.198h77.524
		c9.476,0,17.185-7.715,17.185-17.198v-16.842c0.435-0.027,0.848-0.05,1.237-0.05c0.066,0,0.132-0.002,0.198-0.006l7.573-0.444
		c15.779-0.055,28.599-12.913,28.599-28.71v-15.337C206.778,123.215,193.903,110.333,178.077,110.333z M200.028,154.386
		c0,12.109-9.847,21.96-21.951,21.96c-0.066,0-10.802,0.439-11.657,0.514c-1.001,0.088-2.006,0.078-2.778,0.719
		c-0.773,0.641-1.22,1.593-1.22,2.598v20.261c0,5.761-4.681,10.448-10.435,10.448H74.463c-5.754,0-10.435-4.687-10.435-10.448V98.08
		h15.576c-0.013,1.846-0.036,3.145-0.061,4.493c-0.044,2.445-0.094,5.215-0.094,11.823c0,15.171,4.558,24.229,12.194,24.229
		c4.531,0,7.593-2.071,9.361-6.331c1.546-3.726,2.235-9.563,2.235-18.924c0-1.319-0.017-2.638-0.033-3.929
		c-0.051-3.912-0.125-9.718,0.729-11.361h30.157c1.864,0,3.375-1.511,3.375-3.375c0-1.864-1.511-3.375-3.375-3.375h-30.498
		c-1.675,0-3.171,0.618-4.325,1.788c-2.985,3.024-2.909,8.931-2.813,16.41c0.016,1.263,0.033,2.552,0.033,3.843
		c0,8.204-0.563,13.548-1.72,16.337c-0.764,1.841-1.483,2.168-3.127,2.168c-2.676,0-5.444-6.538-5.444-17.479
		c0-6.547,0.049-9.286,0.092-11.702c0.037-2.076,0.072-4.036,0.072-7.99c0-1.864-1.511-3.375-3.375-3.375H61.984
		c-3.782-3.007-6.012-7.558-6.012-12.368c0-7.587,5.412-14.115,12.869-15.524c1.133-0.214,2.078-0.991,2.507-2.061
		c2.52-6.292,9.134-10.858,16.85-11.631c5.779-0.62,10.383,0.951,11.254,1.303c1.255,0.507,2.688,0.216,3.647-0.737
		c3.367-3.352,7.849-5.198,12.621-5.198c5.851,0,11.352,2.91,14.716,7.783c0.664,0.963,1.778,1.522,2.949,1.454
		c5.136-0.26,10.148,1.77,13.756,5.568c0.796,0.838,1.965,1.208,3.1,0.987c4.928-0.973,10.003,0.319,13.922,3.541
		c4.014,3.3,6.315,8.123,6.315,13.234c0,5.403-2.523,10.375-6.922,13.651h-8.195c-1.864,0-3.375,1.511-3.375,3.375
		c0,1.864,1.511,3.375,3.375,3.375h7.062v14.26c0,2.316,0.658,4.8,5.553,4.8c1.027,0,10.103-0.057,10.103-0.057
		c12.104,0,21.951,9.854,21.951,21.966V154.386z"/>
</g>
</svg>
