<?xml version="1.0" encoding="iso-8859-1"?>
<!-- Generator: Adobe Illustrator 17.1.0, SVG Export Plug-In . SVG Version: 6.00 Build 0)  -->
<!DOCTYPE svg PUBLIC "-//W3C//DTD SVG 1.1//EN" "http://www.w3.org/Graphics/SVG/1.1/DTD/svg11.dtd">
<svg version="1.1" id="Artwork" xmlns="http://www.w3.org/2000/svg" xmlns:xlink="http://www.w3.org/1999/xlink" x="0px" y="0px"
	 width="256px" height="256px" viewBox="0 0 256 256" style="enable-background:new 0 0 256 256;" xml:space="preserve">
<path style="fill:#999999;" d="M182.461,21.6c-18.879-0.739-34.417,7.613-40.467,11.418c-0.429-0.458-0.871-0.904-1.336-1.321
	c-4-3.602-9.18-5.585-14.585-5.585c-4.373,0-8.603,1.304-12.234,3.773c-6.831,4.651-10.348,12.754-9.352,20.734
	c-7.245,1.077-13.626,5.518-17.086,12.007c-10.034,3.766-16.675,13.225-16.675,23.981c0,1.956,0.224,3.897,0.666,5.793
	c-0.703,1.081-1.095,2.354-1.095,3.679c0,35.144,8.051,48.8,15.154,60.85l0.841,1.43c7.26,12.376,16.81,21.012,26.897,24.315
	c0.588,0.192,1.178,0.36,1.768,0.517v25.988c-0.414-0.16-22.542,1.355-29.887,3.08c-5.928,1.392-13.809,3.877-13.809,9.359
	c0,4.627,5.173,7.71,16.772,9.996c9.268,1.826,21.546,2.832,34.571,2.832s25.303-1.006,34.572-2.832
	c11.599-2.286,16.772-5.369,16.772-9.996c0-5.481-7.881-7.966-13.809-9.358c-7.242-1.702-17.202-2.865-28.087-3.288v-25.781
	c0.592-0.157,1.184-0.326,1.774-0.519c10.082-3.303,19.633-11.937,26.892-24.314l0.841-1.429
	c7.103-12.049,15.154-25.706,15.154-60.85c0-1.325-0.392-2.598-1.095-3.679c0.443-1.896,0.666-3.837,0.666-5.793
	c0-9.355-5.016-17.803-13.18-22.353c-2.837-6.525-8.57-11.369-15.472-13.144c0.631-4.241,0-8.586-1.84-12.488
	c5.516-3.407,19.692-10.931,36.404-10.277c1.856,0.065,3.432-1.378,3.505-3.24C185.774,23.242,184.323,21.673,182.461,21.6z
	 M117.635,35.464c2.505-1.703,5.423-2.603,8.437-2.603c3.735,0,7.31,1.368,10.074,3.857c0.896,0.803,1.697,1.718,2.368,2.703
	c0.184,0.273,0.375,0.581,0.596,0.961c2.165,3.74,2.61,8.24,1.219,12.347c-1.055,3.114-3.053,5.741-5.779,7.598
	c-2.505,1.705-5.423,2.606-8.438,2.606h0c-4.991,0-9.645-2.46-12.448-6.578c-0.771-1.134-1.385-2.372-1.824-3.681
	C109.704,46.32,112.087,39.242,117.635,35.464z M128.676,221.96c1.864,0,3.375-1.511,3.375-3.375v-2.858
	c20.867,0.83,31.531,4.001,34.524,5.872c-1.33,0.836-4.739,2.39-12.965,3.809c-8.554,1.476-19.566,2.288-31.006,2.288
	c-11.44,0-22.452-0.813-31.007-2.288c-8.225-1.419-11.635-2.973-12.964-3.809c3.027-1.892,13.893-5.116,35.232-5.901
	c0.385-0.014,0.751-0.095,1.091-0.227v3.114c0,1.864,1.511,3.375,3.375,3.375c1.864,0,3.375-1.511,3.375-3.375v-34.386
	c0.6,0.019,3.279,0.013,3.595,0.003v34.383C125.301,220.449,126.812,221.96,128.676,221.96z M157.266,67.824
	c0.298,0.813,0.897,1.481,1.674,1.864c6.535,3.228,10.594,9.71,10.594,16.918c0,0.911-0.068,1.817-0.199,2.713h-4.856
	c-1.864,0-3.375,1.511-3.375,3.375c0,1.864,1.511,3.375,3.375,3.375l5.484,0.009c0,33.303-8.238,48.673-14.219,57.422
	c-5.981,8.75-15.559,19.803-24.016,22.755c-4.353,1.52-12.903,1.407-16.441,0.002c-8.33-3.308-19.187-14.682-24.021-22.758
	c-4.369-7.298-14.219-24.119-14.21-57.429l0.003-0.001h69.121c1.864,0,3.375-1.511,3.375-3.375c0-1.864-1.511-3.375-3.375-3.375
	H77.674c-0.131-0.896-0.199-1.802-0.199-2.713c0-8.283,5.363-15.525,13.344-18.022c0.919-0.287,1.671-0.954,2.068-1.832
	c2.439-5.398,7.642-9.028,13.516-9.564c0.485,1.029,1.041,2.023,1.68,2.964c4.062,5.968,10.801,9.531,18.029,9.531h0
	c4.376,0,8.608-1.306,12.238-3.777c3.145-2.143,5.619-4.997,7.269-8.35C150.972,58.815,155.372,62.659,157.266,67.824z"/>
</svg>
