<?xml version="1.0" encoding="iso-8859-1"?>
<!-- Generator: Adobe Illustrator 17.1.0, SVG Export Plug-In . SVG Version: 6.00 Build 0)  -->
<!DOCTYPE svg PUBLIC "-//W3C//DTD SVG 1.1//EN" "http://www.w3.org/Graphics/SVG/1.1/DTD/svg11.dtd">
<svg version="1.1" id="Artwork" xmlns="http://www.w3.org/2000/svg" xmlns:xlink="http://www.w3.org/1999/xlink" x="0px" y="0px"
	 width="256px" height="256px" viewBox="0 0 256 256" style="enable-background:new 0 0 256 256;" xml:space="preserve">
<path style="fill:#999999;" d="M220.871,56.644c-0.897-2.409-3.228-4.027-5.801-4.027H40.925c-2.576,0-4.842,1.552-5.773,3.955
	c-0.916,2.366-0.271,5.104,1.603,6.812l77.649,70.783v43.269c-10.421,0.494-19.902,1.652-26.91,3.298
	c-6.071,1.426-14.143,3.966-14.143,9.539c0,4.645,5.462,7.884,17.19,10.195c9.538,1.88,22.174,2.914,35.581,2.914
	c0.231,0,0.457-0.024,0.675-0.068c0.218,0.044,0.444,0.068,0.675,0.068c13.407,0,26.043-1.035,35.581-2.914
	c11.728-2.312,17.19-5.551,17.19-10.195c0-5.573-8.072-8.113-14.143-9.539c-6.97-1.637-16.389-2.791-26.744-3.289V132.76
	l79.772-69.277C221.073,61.797,221.772,59.046,220.871,56.644z M172.939,190.253c-1.286,0.849-4.745,2.501-13.446,4.009
	c-8.826,1.528-20.197,2.37-32.02,2.37c-0.231,0-0.457,0.024-0.675,0.068c-0.218-0.044-0.444-0.068-0.675-0.068
	c-11.823,0-23.195-0.842-32.02-2.37c-8.701-1.507-12.16-3.16-13.446-4.009c2.831-1.871,13.233-5.073,33.748-6.06v2.657
	c0,1.864,1.511,3.375,3.375,3.375c1.864,0,3.375-1.511,3.375-3.375v-48.744l3.293,2.867c0.635,0.552,1.425,0.829,2.216,0.829
	c0.776,0,1.552-0.266,2.182-0.8l3.761-3.187v49.035c0,1.864,1.511,3.375,3.375,3.375c1.864,0,3.375-1.511,3.375-3.375v-2.648
	C159.762,185.198,170.116,188.388,172.939,190.253z M181.467,87.25H166.23c-1.864,0-3.375,1.511-3.375,3.375
	c0,1.864,1.511,3.375,3.375,3.375h7.465l-47.001,39.978L80.768,94h63.187c1.864,0,2.475-1.511,2.475-3.375
	c0-1.864-1.511-3.375-3.375-3.375H73.014L42.369,59.367h171.206L181.467,87.25z"/>
</svg>
