<?xml version="1.0" encoding="iso-8859-1"?>
<!-- Generator: Adobe Illustrator 17.1.0, SVG Export Plug-In . SVG Version: 6.00 Build 0)  -->
<!DOCTYPE svg PUBLIC "-//W3C//DTD SVG 1.1//EN" "http://www.w3.org/Graphics/SVG/1.1/DTD/svg11.dtd">
<svg version="1.1" id="Artwork" xmlns="http://www.w3.org/2000/svg" xmlns:xlink="http://www.w3.org/1999/xlink" x="0px" y="0px"
	 width="256px" height="256px" viewBox="0 0 256 256" style="enable-background:new 0 0 256 256;" xml:space="preserve">
<path style="fill:#999999;" d="M214.747,123.946c0-22.517-18.319-40.836-40.836-40.836c-0.297,0-0.596,0.004-0.898,0.011
	c0.001-0.136,0.002-0.272,0.002-0.407c0-25.771-20.966-46.737-46.737-46.737c-25.771,0-46.737,20.966-46.737,46.737
	c0,1.883,0.113,3.767,0.339,5.635c-21.495,1.151-38.628,19.001-38.628,40.777c0,21.38,16.517,38.973,37.461,40.695v46.828
	c0,1.864,1.511,3.375,3.375,3.375h96.814c1.864,0,3.375-1.511,3.375-3.375v-52.73C200.795,160.047,214.747,143.596,214.747,123.946z
	 M173.911,158.031c-6.151,0-12.176-1.655-17.426-4.787c-1.6-0.955-3.673-0.432-4.627,1.169c-0.955,1.601-0.432,3.673,1.169,4.628
	c6.295,3.755,13.516,5.741,20.884,5.741c0.541,0,1.08-0.014,1.616-0.035v48.527H85.464v-43.458
	c4.071-0.332,8.039-1.257,11.834-2.781c1.73-0.695,2.569-2.66,1.874-4.389c-0.695-1.73-2.66-2.568-4.39-1.874
	c-4.034,1.62-8.305,2.441-12.694,2.441c-18.795,0-34.086-15.291-34.086-34.086S63.294,95.04,82.089,95.04
	c0.485,0,1.012,0.013,1.609,0.041c1.031,0.048,2.05-0.389,2.727-1.186c0.676-0.796,0.946-1.861,0.73-2.883
	c-0.573-2.717-0.864-5.509-0.864-8.299c0-22.049,17.938-39.987,39.987-39.987c22.049,0,39.987,17.938,39.987,39.987
	c0,0.35-0.015,0.707-0.025,1.062c-3.918,0.807-10.598,3.279-15.412,10.857c-0.999,1.573-0.534,3.659,1.04,4.658
	c0.561,0.356,1.187,0.526,1.806,0.526c1.116,0,2.192-0.564,2.852-1.566c5.222-7.929,14.909-8.199,17.385-8.391
	c18.738-1.457,34.086,15.291,34.086,34.086C207.997,142.741,192.706,158.031,173.911,158.031z"/>
</svg>
