<?xml version="1.0" encoding="iso-8859-1"?>
<!-- Generator: Adobe Illustrator 17.1.0, SVG Export Plug-In . SVG Version: 6.00 Build 0)  -->
<!DOCTYPE svg PUBLIC "-//W3C//DTD SVG 1.1//EN" "http://www.w3.org/Graphics/SVG/1.1/DTD/svg11.dtd">
<svg version="1.1" id="Artwork" xmlns="http://www.w3.org/2000/svg" xmlns:xlink="http://www.w3.org/1999/xlink" x="0px" y="0px"
	 width="256px" height="256px" viewBox="0 0 256 256" style="enable-background:new 0 0 256 256;" xml:space="preserve">
<g>
	<path style="fill:#999999;" d="M52.56,41.45c-1.508,1.486-2.412,3.655,0.745,16.652c1.891,7.786,16.652,51.199,21.683,63.67
		c10.235,25.374,16.786,24.537,20.539,25.02c1.833,0.236,3.616-0.195,5.157-1.247c4.197-2.865,5.597-3.7,7.218-4.667
		c0.569-0.339,1.176-0.702,1.936-1.169c4.537,7.433,10.138,18.967,15.576,30.163c7.317,15.067,14.884,30.648,20.93,38.709
		c3.845,5.126,8.003,6.633,10.815,6.994c5.382,0.692,10.949-2.192,14.183-7.348c3.281-5.232,3.392-11.436,0.288-16.19
		C165.24,182.248,71.714,59.108,57.694,42.206C55.747,39.858,53.428,40.595,52.56,41.45z M165.623,204.64
		c-1.84,2.933-4.824,4.597-7.604,4.24c-2.182-0.281-4.353-1.785-6.276-4.349c-5.658-7.543-13.08-22.827-20.258-37.608
		c-6.558-13.503-12.752-26.258-17.819-33.75c-0.565-0.834-1.438-1.337-2.366-1.457c-0.763-0.098-1.564,0.063-2.26,0.512
		c-2.266,1.463-7.795,4.76-12.163,7.742c-0.2,0.136-0.317,0.15-0.49,0.128c-2.315,1.199-2.462-0.56-6.369-5.864
		c-6.293-8.542-24.062-58.717-29.203-75.196c-1.994-6.391,0.13-2.867,1.692-0.858c16.886,21.724,97.263,128.038,103.47,137.548
		C167.946,198.743,167.085,202.309,165.623,204.64z"/>
	<path style="fill:#999999;" d="M215.95,74.756c-1.298-1.337-3.435-1.37-4.772-0.072c-8.615,8.359-16.65,16.508-23.106,23.056
		c-1.65,1.674-3.161,3.206-4.529,4.587l-6.365-6.37l26.897-26.098c1.338-1.298,1.37-3.435,0.072-4.773
		c-1.297-1.338-3.434-1.37-4.772-0.072l-26.968,26.167l-5.993-5.997l27.058-26.254c1.338-1.298,1.37-3.435,0.072-4.772
		c-1.298-1.338-3.435-1.37-4.772-0.072L161.642,80.41l-5.837-5.842l29.318-28.447c1.338-1.298,1.37-3.435,0.072-4.772
		c-1.297-1.338-3.434-1.37-4.772-0.072l-33.739,32.737c-8.623,8.367-7.957,20.654,1.438,31.985l-19.188,18.9
		c-1.338,1.298-1.37,3.435-0.072,4.772c0.522,0.538,1.18,0.865,1.867,0.979c1.021,0.17,2.106-0.131,2.906-0.907l19.203-18.914
		c3.781,3.149,8.251,5.231,12.947,6.011c0.605,0.101,1.215,0.179,1.827,0.236c6.128,0.57,11.745-1.144,15.412-4.702
		c2.341-2.271,5.657-5.635,9.856-9.894c6.433-6.524,14.438-14.644,23-22.951C217.216,78.23,217.248,76.094,215.95,74.756z
		 M168.235,110.354c-4.738-0.441-9.29-2.683-12.813-6.314c-6.9-7.112-11.598-17.279-4.449-24.758l27.793,27.815
		c-0.152,0.149-0.3,0.293-0.444,0.433C176.105,109.679,172.334,110.736,168.235,110.354z"/>
	<path style="fill:#999999;" d="M113.685,155.647c-1.394-1.239-3.527-1.112-4.765,0.281c-13.581,15.282-38.226,42.276-46.542,49.652
		c-4.134,3.667-10.646,2.187-14.133-1.496c-3.647-3.852-3.097-8.731,1.509-13.388c11.695-11.819,28.923-25.352,41.918-35.152
		c1.488-1.122,1.785-3.239,0.662-4.727c-1.122-1.488-3.238-1.785-4.727-0.663c-13.162,9.926-30.649,23.663-42.652,35.794
		c-8.742,8.837-6.332,17.792-1.612,22.776c2.667,2.816,6.444,4.841,10.456,5.507c4.464,0.741,9.219-0.199,13.057-3.603
		c9.61-8.524,37.265-39.141,47.109-50.219C115.204,159.019,115.078,156.885,113.685,155.647z"/>
</g>
</svg>
