<?xml version="1.0" encoding="iso-8859-1"?>
<!-- Generator: Adobe Illustrator 17.1.0, SVG Export Plug-In . SVG Version: 6.00 Build 0)  -->
<!DOCTYPE svg PUBLIC "-//W3C//DTD SVG 1.1//EN" "http://www.w3.org/Graphics/SVG/1.1/DTD/svg11.dtd">
<svg version="1.1" id="Artwork" xmlns="http://www.w3.org/2000/svg" xmlns:xlink="http://www.w3.org/1999/xlink" x="0px" y="0px"
	 width="256px" height="256px" viewBox="0 0 256 256" style="enable-background:new 0 0 256 256;" xml:space="preserve">
<path style="fill:#999999;" d="M236.49,45.688l-7.257-7.191c-0.648-0.643-1.52-0.991-2.443-0.977
	c-0.913,0.018-1.78,0.406-2.402,1.074l-87.885,95.835l-6.405-0.021c0,0,91.579-94.3,92.1-94.848
	c0.673-0.707,1.006-1.671,0.914-2.642c-0.092-0.972-0.599-1.856-1.392-2.425l-8.144-5.844c-1.375-0.986-3.268-0.802-4.427,0.431
	L107.893,134.416c0,0-47.882,0-86.081,0c-1.864,0-3.301,1.034-3.301,2.898c0,20.691,0.584,36.276,8.136,48.426
	c6.314,10.157,16.877,17.813,37.88,27.126c-2.22,2.69-3.596,6.873-3.596,11.742c0,1.864,1.511,3.375,3.375,3.375h82.311
	c1.864,0,3.375-1.511,3.375-3.375c0-4.392-1.12-8.223-2.968-10.908c22.075-9.668,35.324-19.464,42.599-31.402
	c7.774-12.757,8.406-27.656,8.406-44.401c0-1.864-1.511-3.375-3.375-3.375c-2.601,0-25.907-0.113-36.37-0.153
	c49.872-52.175,77.928-83.602,78.241-83.922C237.824,49.121,237.808,46.995,236.49,45.688z M212.041,35.857l2.59,1.858
	c-11.412,11.965-93.99,96.704-93.99,96.704l-3.456-0.005L212.041,35.857z M183.859,178.786
	c-7.035,11.545-20.794,21.07-44.611,30.886h-12.985c-1.864,0-3.375,1.511-3.375,3.375c0,1.864,1.511,3.375,3.375,3.375h13.954
	c0.594,0,2.046,1.642,2.698,4.811H68.009c0.653-3.169,2.105-4.811,2.699-4.811h32.35c1.864,0,3.375-1.511,3.375-3.375
	c0-1.864-1.511-3.375-3.375-3.375H74.197c-24.015-10.012-35.741-17.722-41.817-27.496c-5.746-9.243-6.998-20.962-7.11-41.487
	c29.901,0.011,138.535,0.469,158.619,0.525c0.19,0.033,0.385,0.055,0.585,0.055c2.224,0.002,4.488,0.003,6.795,0.003
	C191.172,156.024,190.252,168.296,183.859,178.786z M148.94,134.422l-3.197-0.007l81.212-88.672l2.404,2.382
	C221.02,56.671,148.94,134.422,148.94,134.422z"/>
</svg>
