<?xml version="1.0" encoding="iso-8859-1"?>
<!-- Generator: Adobe Illustrator 17.1.0, SVG Export Plug-In . SVG Version: 6.00 Build 0)  -->
<!DOCTYPE svg PUBLIC "-//W3C//DTD SVG 1.1//EN" "http://www.w3.org/Graphics/SVG/1.1/DTD/svg11.dtd">
<svg version="1.1" id="Artwork" xmlns="http://www.w3.org/2000/svg" xmlns:xlink="http://www.w3.org/1999/xlink" x="0px" y="0px"
	 width="256px" height="256px" viewBox="0 0 256 256" style="enable-background:new 0 0 256 256;" xml:space="preserve">
<g>
	<path style="fill:#999999;" d="M164.25,75.408c-0.063-0.032-0.127-0.062-0.191-0.089c-30.925-13.188-33.071-14.178-34.225-14.709
		c-0.535-0.247-0.921-0.425-3.194-1.394c-8.279-3.53-13.385-3.803-19.694-3.803H75.554c-6.688,0-12.13,5.231-12.13,11.66v20.745
		c0,6.429,5.442,11.659,12.13,11.659h83.604c6.01,0,11.013-4.223,11.966-9.744c0.106-0.328,0.163-0.678,0.163-1.041v-1.711
		C171.287,82.807,170.435,78.516,164.25,75.408z M164.537,87.819c0,2.707-2.413,4.909-5.379,4.909H75.554
		c-2.967,0-5.38-2.202-5.38-4.909V67.073c0-2.707,2.413-4.91,5.38-4.91h31.392c5.676,0,9.928,0.227,17.046,3.263
		c2.183,0.931,2.533,1.092,3.016,1.315c1.266,0.583,3.383,1.559,34.3,14.744c3.084,1.575,3.229,2.975,3.229,5.497V87.819z"/>
	<path style="fill:#999999;" d="M206.227,71.391c-0.05-0.039-0.1-0.076-0.152-0.112c-14.578-10.184-41.793-25.287-58.649-33.439
		c-7.805-3.774-14.067-6.248-29.401-6.248h-42.81v-8.404c0-1.864-1.511-3.375-3.375-3.375h-15.3c-1.864,0-3.375,1.511-3.375,3.375
		v8.528c-8.098,0.985-14.394,7.898-14.394,16.258v80.993c0,9.033,7.349,16.383,16.383,16.383h10.667v28.588h-3.088
		c-8.064,0-14.625,6.561-14.625,14.625v33c0,8.064,6.561,14.625,14.625,14.625h11.625c2.659,0,5.153-0.717,7.304-1.963
		c2.151,1.245,4.644,1.963,7.303,1.963h11.625c8.064,0,14.625-6.561,14.625-14.625v-33c0-8.064-6.561-14.625-14.625-14.625h-1.787
		v-28.588h102.038c9.033,0,16.383-7.349,16.383-16.383V98.271l0.001-0.993C217.244,88.812,217.262,80.058,206.227,71.391z
		 M59.916,26.562h8.55v5.029h-8.55V26.562z M54.859,221.562v-33c0-4.342,3.533-7.875,7.875-7.875h3.088v48.75h-3.088
		C58.392,229.438,54.859,225.905,54.859,221.562z M72.572,229.438v-48.75h1.787c0.73,0,1.433,0.108,2.105,0.294
		c-1.346,2.212-2.122,4.807-2.122,7.581v33c0,2.773,0.776,5.369,2.122,7.581c-0.671,0.187-1.375,0.294-2.105,0.294H72.572z
		 M82.234,188.562v33c0,1.036-0.206,2.023-0.571,2.93c-0.365-0.907-0.571-1.895-0.571-2.93v-33c0-1.036,0.206-2.023,0.571-2.93
		C82.028,186.539,82.234,187.527,82.234,188.562z M86.862,229.143c1.346-2.212,2.122-4.808,2.122-7.581v-33
		c0-2.773-0.776-5.369-2.122-7.581c0.671-0.186,1.375-0.294,2.104-0.294h3.088v48.75h-3.088
		C88.237,229.438,87.533,229.33,86.862,229.143z M100.591,180.687c4.342,0,7.875,3.533,7.875,7.875v33
		c0,4.343-3.533,7.875-7.875,7.875h-1.787v-48.75H100.591z M92.054,173.937h-3.088c-2.659,0-5.153,0.717-7.303,1.963
		c-2.151-1.245-4.645-1.963-7.304-1.963h-1.787v-28.588h19.482V173.937z M210.477,97.263l-0.001,31.703
		c0,5.312-4.321,9.633-9.633,9.633H55.155c-5.311,0-9.633-4.321-9.633-9.633V47.974c0-5.312,4.321-9.633,9.633-9.633h62.871
		c13.929,0,19.29,2.106,26.462,5.575c16.592,8.024,43.319,22.848,57.643,32.841C210.505,83.37,210.492,89.504,210.477,97.263z"/>
</g>
</svg>
