<?xml version="1.0" encoding="iso-8859-1"?>
<!-- Generator: Adobe Illustrator 17.1.0, SVG Export Plug-In . SVG Version: 6.00 Build 0)  -->
<!DOCTYPE svg PUBLIC "-//W3C//DTD SVG 1.1//EN" "http://www.w3.org/Graphics/SVG/1.1/DTD/svg11.dtd">
<svg version="1.1" id="Artwork" xmlns="http://www.w3.org/2000/svg" xmlns:xlink="http://www.w3.org/1999/xlink" x="0px" y="0px"
	 width="256px" height="256px" viewBox="0 0 256 256" style="enable-background:new 0 0 256 256;" xml:space="preserve">
<g>
	<g>
		<path style="fill:#999999;" d="M115.48,182.133c11.039-13.873,17.052-31.121,16.93-48.566
			c-0.094-13.618-4.373-28.703-11.738-41.386c-7.819-13.463-18.375-23.175-29.726-27.348c-1.581-0.581-3.065-0.863-4.538-0.863
			c-1.91,0-3.513,0.473-5.037,0.999c-2.364-1.738-7.236-5.143-12.585-7.845c-1.373-0.693-2.866-1.045-4.438-1.045
			c-5.104,0-10.067,3.836-11.299,8.734c-1.26,5.011,1.465,9.87,7.291,12.999c3.683,1.978,7.232,4.647,7.548,4.881
			c-2.534,7.776,2.58,14.287,6.79,19.645c4.694,5.974,6.788,10.397,9.707,18.051c6.738,17.671-5.331,43.689-13.289,53.69
			c-0.829,1.042-8.576,9.55-9.095,10.203c-3.655,4.594-6.531,13.133-2.255,18.733c2.877,3.767,9.786,6.438,17.888,4.749
			c4.951-1.033,9.557-2.988,13.798-5.329c7.954-4.387,15.05-10.036,21.089-16.79C113.534,184.508,114.53,183.327,115.48,182.133z
			 M107.489,181.141c-5.631,6.097-12.031,11.361-19.318,15.38c-3.718,2.052-8.098,3.969-12.131,4.68
			c-4.033,0.712-8.871,1.274-10.961-2.327c-2.183-3.76-0.245-7.314,2.203-10.391c0.445-0.559,8.185-9.06,9.095-10.203
			c4.171-5.241,9.915-15.017,13.528-26.733c2.771-8.986,5.157-22.104,0.787-33.565c-3.107-8.149-5.502-13.192-10.721-19.836
			c-4.818-6.132-7.633-10.137-4.936-15.01c0.856-1.546,0.374-3.491-1.105-4.459c-1.201-0.786-6.402-4.667-10.397-6.812
			c-1.743-0.936-4.573-2.883-3.938-5.405c0.486-1.934,2.708-3.575,4.753-3.63c2.878-0.078,14.289,8.529,14.349,8.576
			c0.897,0.705,2.091,0.907,3.172,0.541c0.352-0.12,3.481-1.226,4.54-1.226c0.664,0,1.387,0.146,2.209,0.448
			c9.877,3.632,19.188,12.298,26.218,24.403c6.794,11.698,11.028,25.566,10.826,38.043
			C125.219,160.85,113.969,174.125,107.489,181.141z"/>
	</g>
	<g>
		<path style="fill:#999999;" d="M182.451,189.377c13.564-17.045,20.951-38.236,20.801-59.671
			c-0.116-16.732-5.372-35.265-14.422-50.849c-9.606-16.541-22.577-28.474-36.523-33.601c-1.942-0.714-3.765-1.06-5.575-1.06
			c-2.347,0-4.317,0.581-6.189,1.227c-2.904-2.136-8.89-6.319-15.463-9.639c-1.687-0.852-3.521-1.284-5.453-1.284
			c-6.271,0-12.369,4.714-13.883,10.731c-1.548,6.157,1.8,12.126,8.958,15.971c4.525,2.43,8.885,5.709,9.274,5.997
			c-3.113,9.554,3.17,17.553,8.343,24.137c5.767,7.341,8.34,12.774,11.926,22.177c8.279,21.712-6.55,53.678-16.327,65.966
			c-1.019,1.28-10.536,11.734-11.175,12.536c-4.491,5.644-8.024,16.136-2.77,23.015c3.534,4.628,12.023,7.911,21.978,5.835
			c6.083-1.269,11.743-3.672,16.953-6.548c9.773-5.389,18.49-12.33,25.911-20.629C180.06,192.295,181.284,190.845,182.451,189.377z
			 M172.632,188.159c-6.918,7.491-14.781,13.958-23.735,18.896c-4.568,2.522-9.95,4.876-14.905,5.75
			c-4.955,0.874-10.899,1.565-13.467-2.86c-2.682-4.62-0.301-8.987,2.707-12.767c0.547-0.687,10.056-11.132,11.175-12.535
			c5.124-6.44,12.182-18.451,16.621-32.846c3.405-11.04,6.336-27.158,0.967-41.24c-3.818-10.012-6.76-16.208-13.173-24.372
			c-5.919-7.533-9.378-12.455-6.064-18.442c1.052-1.9,0.459-4.289-1.358-5.479c-1.476-0.965-7.866-5.734-12.774-8.37
			c-2.142-1.15-5.618-3.542-4.839-6.641c0.598-2.376,3.328-4.392,5.84-4.46c3.535-0.096,17.556,10.48,17.63,10.537
			c1.103,0.866,2.569,1.115,3.897,0.665c0.432-0.147,4.278-1.506,5.578-1.506c0.816,0,1.704,0.18,2.713,0.551
			c12.135,4.462,23.575,15.11,32.213,29.983c8.347,14.373,13.549,31.411,13.301,46.742
			C194.416,163.228,180.594,179.538,172.632,188.159z"/>
	</g>
</g>
</svg>
