<?xml version="1.0" encoding="iso-8859-1"?>
<!-- Generator: Adobe Illustrator 17.1.0, SVG Export Plug-In . SVG Version: 6.00 Build 0)  -->
<!DOCTYPE svg PUBLIC "-//W3C//DTD SVG 1.1//EN" "http://www.w3.org/Graphics/SVG/1.1/DTD/svg11.dtd">
<svg version="1.1" id="Artwork" xmlns="http://www.w3.org/2000/svg" xmlns:xlink="http://www.w3.org/1999/xlink" x="0px" y="0px"
	 width="256px" height="256px" viewBox="0 0 256 256" style="enable-background:new 0 0 256 256;" xml:space="preserve">
<path style="fill:#999999;" d="M226.704,41.956c-4.094-3.133-10.361-1.665-14.271,3.345c-7.538,9.663-67.751,86.242-76.787,97.733
	l-105.641,0.131c-2.077,0.003-3.758,1.687-3.758,3.763v37.384c0,0.088,0.003,0.177,0.009,0.265c0.024,0.34,0.677,8.411,8.602,16.221
	c10.023,9.88,26.59,14.89,49.238,14.89c22.657,0,39.11-4.95,48.9-14.713c7.774-7.751,8.224-15.771,8.239-16.109
	c0.004-0.057,0.004-0.114,0.004-0.171V167.08c8.183-10.424,75.955-96.765,83.756-107.146
	C231.779,50.909,230.326,44.73,226.704,41.956z M133.714,184.556c-0.068,0.715-0.754,6.069-6.462,11.51
	c-5.788,5.518-17.974,12.096-43.155,12.096c-25.207,0-37.583-6.694-43.526-12.308c-5.85-5.527-6.705-10.968-6.798-11.722v-33.444
	l99.94-0.125V184.556z M218.98,55.413c-6.752,8.985-58.935,75.515-77.74,99.478v-6.793c7.79-9.907,69.483-88.368,77.128-98.167
	c1.607-2.058,3.284-2.475,3.748-2.011C222.58,48.385,222.588,50.611,218.98,55.413z"/>
</svg>
