<?xml version="1.0" encoding="iso-8859-1"?>
<!-- Generator: Adobe Illustrator 17.1.0, SVG Export Plug-In . SVG Version: 6.00 Build 0)  -->
<!DOCTYPE svg PUBLIC "-//W3C//DTD SVG 1.1//EN" "http://www.w3.org/Graphics/SVG/1.1/DTD/svg11.dtd">
<svg version="1.1" id="Artwork" xmlns="http://www.w3.org/2000/svg" xmlns:xlink="http://www.w3.org/1999/xlink" x="0px" y="0px"
	 width="256px" height="256px" viewBox="0 0 256 256" style="enable-background:new 0 0 256 256;" xml:space="preserve">
<path style="fill:#999999;" d="M176.596,70.013c-0.002-0.047-0.003-0.094-0.007-0.141c-0.007-0.092-0.02-0.183-0.035-0.273
	c-0.005-0.03-0.008-0.06-0.014-0.089c-0.025-0.129-0.057-0.256-0.096-0.379l-7.931-25.174V28.184c0-1.864-1.511-3.375-3.375-3.375
	H90.886c-1.864,0-3.375,1.511-3.375,3.375v15.672l-7.956,25.276c-0.039,0.122-0.069,0.247-0.094,0.375
	c-0.006,0.032-0.009,0.064-0.014,0.096c-0.015,0.088-0.027,0.177-0.034,0.267c-0.004,0.048-0.005,0.096-0.007,0.143
	c-0.002,0.046-0.007,0.091-0.007,0.138V153.2v46.588v28.028c0,1.864,1.511,3.375,3.375,3.375h90.455
	c1.864,0,3.375-1.511,3.375-3.375v-28.028V153.2V70.152C176.603,70.105,176.597,70.059,176.596,70.013z M165.138,156.575h4.714
	v39.838H86.147v-39.838h59.989c1.864,0,3.375-1.511,3.375-3.375c0-1.864-1.511-3.375-3.375-3.375H86.147V73.527h83.705v76.298
	h-4.714c-1.864,0-3.375,1.511-3.375,3.375C161.763,155.064,163.274,156.575,165.138,156.575z M94.261,31.559h67.503V41h-21.889
	c-2.747-2.417-7.007-3.944-11.877-3.944c-4.868,0-9.126,1.527-11.871,3.944H94.261V31.559z M135.759,46.35
	c0.078,0.108,0.162,0.21,0.252,0.308c0.229,0.319,0.351,0.632,0.351,0.917c0,1.502-3.336,3.773-8.365,3.773
	c-4.867,0-8.138-2.129-8.339-3.628v-0.29c0.2-1.497,3.471-3.624,8.339-3.624C131.766,43.806,134.584,45.08,135.759,46.35z
	 M127.997,58.098c3.101,0,5.953-0.621,8.327-1.694c-0.376,1.488-3.605,3.49-8.327,3.49c-4.714,0-7.931-1.997-8.311-3.485
	C122.056,57.479,124.904,58.098,127.997,58.098z M93.362,47.75h19.534c0.003,0.125,0.004,0.25,0.013,0.374v7.628
	c-0.011,0.11-0.019,0.234-0.019,0.369c0,5.9,6.636,10.522,15.108,10.522c8.476,0,15.115-4.622,15.115-10.522V47.75h19.52
	l5.994,19.027H87.373L93.362,47.75z M86.147,224.44v-21.278h83.705v21.278H86.147z"/>
</svg>
