<?xml version="1.0" encoding="iso-8859-1"?>
<!-- Generator: Adobe Illustrator 17.1.0, SVG Export Plug-In . SVG Version: 6.00 Build 0)  -->
<!DOCTYPE svg PUBLIC "-//W3C//DTD SVG 1.1//EN" "http://www.w3.org/Graphics/SVG/1.1/DTD/svg11.dtd">
<svg version="1.1" id="Artwork" xmlns="http://www.w3.org/2000/svg" xmlns:xlink="http://www.w3.org/1999/xlink" x="0px" y="0px"
	 width="256px" height="256px" viewBox="0 0 256 256" style="enable-background:new 0 0 256 256;" xml:space="preserve">
<g>
	<path style="fill:#999999;" d="M74.84,194.552c1.304-1.331,1.282-3.468-0.049-4.773c-1.332-1.305-3.469-1.282-4.773,0.049
		L46.04,214.305l-7.556,3.225l3.299-7.493l24.364-24.863c1.305-1.332,1.283-3.468-0.048-4.773c-1.332-1.305-3.469-1.282-4.773,0.048
		l-24.795,25.302c-0.284,0.29-0.515,0.63-0.678,1.002l-6.988,15.872c-0.558,1.268-0.285,2.748,0.689,3.733
		c0.659,0.667,1.55,1.016,2.452,1.002c0.43-0.007,0.862-0.095,1.273-0.271l16.028-6.84c0.407-0.174,0.776-0.426,1.086-0.742
		L74.84,194.552z"/>
	<path style="fill:#999999;" d="M227.421,41.048c0.001-0.898-0.355-1.759-0.99-2.393l-9.04-9.029
		c-1.315-1.314-3.444-1.317-4.763-0.008l-27.566,27.361c-1.323,1.313-1.331,3.45-0.018,4.773c1.314,1.323,3.45,1.331,4.773,0.018
		l25.181-24.994l4.264,4.259l-25.509,25.321c-1.323,1.313-1.331,3.45-0.017,4.773c0.673,0.678,1.561,1.01,2.446,0.997
		c0.842-0.013,1.681-0.339,2.326-0.979l27.914-27.709C227.06,42.806,227.419,41.946,227.421,41.048z"/>
	<path style="fill:#999999;" d="M128.081,168.994c0.057-3.785-1.084-7.594-3.212-10.923c10.149,1.692,20.525-1.276,27.824-8.573
		c5.706-5.703,8.918-13.417,9.043-21.721c0.033-2.202-0.15-4.4-0.541-6.564c2.803,1.775,5.943,2.848,9.158,3.096
		c4.956,0.382,9.498-1.219,12.79-4.511l13.709-13.703c2.878-2.881,4.498-6.83,4.563-11.121c0.08-5.279-2.172-10.607-6.179-14.616
		l-19.609-19.609c-4.009-4.006-9.337-6.258-14.616-6.179c-4.291,0.065-8.24,1.685-11.121,4.563l-13.703,13.71
		c-3.291,3.292-4.893,7.834-4.511,12.79c0.248,3.215,1.321,6.355,3.096,9.158c-2.164-0.392-4.362-0.574-6.565-0.541
		c-8.305,0.125-16.018,3.337-21.721,9.043c-7.297,7.299-10.264,17.675-8.572,27.824c-3.329-2.128-7.138-3.269-10.923-3.212
		c-4.291,0.065-8.242,1.685-11.127,4.565l-13.705,13.71c-6.636,6.648-5.912,18.179,1.61,25.716l20.321,20.322
		c7.537,7.522,19.068,8.246,25.716,1.61l13.71-13.705C126.396,177.236,128.016,173.285,128.081,168.994z M105.036,189.051
		c-4.019,4.012-11.283,3.284-16.189-1.624c-0.012-0.012-0.024-0.024-0.036-0.036l-20.217-20.216
		c-0.011-0.012-0.023-0.024-0.035-0.036c-4.908-4.906-5.636-12.17-1.624-16.189l13.701-13.705c1.659-1.656,3.892-2.552,6.458-2.591
		c3.465-0.052,7.013,1.48,9.735,4.203l5.679,5.679c1.318,1.318,3.455,1.318,4.773,0l0.465-0.465
		c1.094-1.094,1.304-2.793,0.509-4.121c-6.368-10.633-5.132-23.745,3.006-31.885c4.455-4.458,10.51-6.968,17.049-7.066
		c5.15-0.078,9.634,0.697,14.19,3.424c1.327,0.795,3.026,0.585,4.12-0.508l0.641-0.642c0.633-0.633,0.989-1.491,0.989-2.387
		c0-0.895-0.356-1.754-0.989-2.387l-4.687-4.705c-2.445-2.444-3.925-5.527-4.169-8.681c-0.228-2.959,0.679-5.622,2.555-7.498
		l13.701-13.708c1.655-1.654,3.886-2.549,6.45-2.587c3.466-0.052,7.017,1.48,9.743,4.204l19.606,19.607
		c2.724,2.726,4.256,6.277,4.204,9.743c-0.039,2.564-0.933,4.795-2.587,6.45l-13.708,13.702c-1.876,1.876-4.539,2.783-7.498,2.555
		c-3.154-0.244-6.237-1.724-8.681-4.168l-4.705-4.687c-0.633-0.633-1.492-0.989-2.387-0.989c-0.895,0-3.028,1.63-3.028,1.63
		c-1.094,1.094-1.303,2.793-0.508,4.12c2.728,4.556,3.502,9.04,3.424,14.19c-0.098,6.539-2.608,12.594-7.066,17.05
		c-8.14,8.138-21.252,9.374-31.885,3.006c-1.328-0.795-3.026-0.585-4.121,0.509l-0.464,0.465c-1.318,1.318-1.318,3.455,0,4.773
		l5.679,5.679c2.724,2.722,4.255,6.271,4.203,9.736c-0.039,2.566-0.935,4.798-2.591,6.458L105.036,189.051z"/>
</g>
</svg>
