<?xml version="1.0" encoding="iso-8859-1"?>
<!-- Generator: Adobe Illustrator 17.1.0, SVG Export Plug-In . SVG Version: 6.00 Build 0)  -->
<!DOCTYPE svg PUBLIC "-//W3C//DTD SVG 1.1//EN" "http://www.w3.org/Graphics/SVG/1.1/DTD/svg11.dtd">
<svg version="1.1" id="Artwork" xmlns="http://www.w3.org/2000/svg" xmlns:xlink="http://www.w3.org/1999/xlink" x="0px" y="0px"
	 width="256px" height="256px" viewBox="0 0 256 256" style="enable-background:new 0 0 256 256;" xml:space="preserve">
<g>
	<path style="fill:#999999;" d="M170.257,113.328c-6.262-5.114-14.409-7.817-23.561-7.817c-2.081,0-4.226,0.141-6.406,0.415
		c-1.444-6.772-4.144-12.974-6.985-19.485c-5.834-13.367-14.315-24.8-24.525-33.061c-10.216-8.266-21.22-12.635-31.823-12.635
		c-4.931,0-9.653,0.969-14.033,2.882c-11.816,5.162-19.97,16.559-22.96,32.091c-2.902,15.07-0.583,32.341,6.531,48.633
		c6.706,15.319,17.429,28.571,29.684,36.789c-8.722,23.075-5.398,44.996,8.891,56.653c6.439,5.252,14.707,8.029,23.911,8.029h0
		c18.913,0,40.137-11.623,55.387-30.33c11.236-13.773,18.116-29.783,19.372-45.081C185.034,134.649,180.245,121.479,170.257,113.328
		z M100.661,125.527c-1.695-2.413-3.517-4.644-5.664-6.936c-0.045-0.048-0.092-0.095-0.14-0.141
		C71.901,96.68,68.498,83.174,69.685,75.677c0.259-1.638,0.749-3.065,1.36-4.297c-0.109,3.059,0.256,5.881,1.318,8.557
		c1.898,4.787,5.694,8.637,11.439,14.467c3.863,3.92,8.671,8.797,14.534,15.578c3.362,3.885,5.857,7.314,7.853,10.817
		C104.364,122.233,102.529,123.802,100.661,125.527z M52.679,121.646c-13.38-30.645-7.572-62.87,12.946-71.834
		c3.523-1.538,7.335-2.318,11.331-2.318c18.832,0,39.459,17.125,50.161,41.645c2.78,6.375,5.237,12.006,6.538,18.018
		c-7.547,1.844-15.042,5.149-21.958,9.683c-2.151-3.673-4.789-7.267-8.256-11.274c-6.006-6.946-10.9-11.911-14.832-15.901
		c-11.02-11.181-12.714-12.9-9.369-27.095c0.296-1.255-0.15-2.569-1.147-3.386c-0.998-0.817-2.374-0.993-3.546-0.456
		c-0.393,0.181-9.649,4.547-11.503,15.731c-2.196,13.243,6.92,29.668,27.093,48.818c2.155,2.307,3.947,4.542,5.619,7.023
		c-1.625,1.663-3.252,3.431-4.787,5.325c-4.828,5.91-8.886,12.352-12.1,19.176C68.105,147.244,58.684,135.364,52.679,121.646z
		 M159.136,191.225c-14.002,17.177-33.221,27.847-50.156,27.846c-7.631,0-14.424-2.251-19.645-6.509
		c-12.511-10.206-14.73-30.438-5.763-51.739c3.397-7.751,7.276-14.239,11.869-19.838c2.288-2.828,4.253-5.062,6.105-6.938
		c0.226-0.226,0.454-0.454,0.687-0.683c0.038-0.037,0.076-0.076,0.114-0.113c0.319-0.315,0.645-0.633,0.978-0.958
		c3.182-3.086,6.212-5.659,9.238-7.853c8.165-5.693,17.494-9.832,25.615-11.359l0.004-0.001c2.924-0.543,5.789-0.819,8.514-0.819
		c7.686,0,14.177,2.118,19.292,6.296C183.344,132.721,180.271,165.32,159.136,191.225z"/>
	<path style="fill:#999999;" d="M134.291,133.518c-6.571,5.628-12.329,14.249-17.11,25.615c-2.129,5.024-3.82,9.73-5.318,14.805
		c-8.332,23.381-21.456,24.533-21.968,24.569c-1.497,0.023-2.756,1.028-3.156,2.471c-0.4,1.443,0.242,2.975,1.513,3.766
		c0.213,0.133,5.305,3.249,12.506,3.249c9.463,0,22.862-5.261,32.954-30.322l1.52-3.78c11.609-28.891,14.024-34.903,33.048-39.636
		c1.351-0.336,2.358-1.468,2.533-2.849c0.175-1.382-0.515-2.729-1.739-3.393c-0.223-0.121-5.542-2.957-13.162-2.957
		C148.105,125.056,140.83,127.904,134.291,133.518z M128.969,171.375l-1.518,3.774c-6.874,17.071-16.104,26.094-26.692,26.094
		c-0.026,0-0.051,0-0.076,0c5.697-3.759,12.569-11.038,17.573-25.132c0.021-0.058,0.04-0.117,0.057-0.176
		c1.429-4.856,3.045-9.358,5.087-14.175c4.374-10.399,9.516-18.176,15.286-23.117c4.943-4.245,10.337-6.531,16.047-6.808
		C142.412,137.918,138.243,148.292,128.969,171.375z"/>
	<path style="fill:#999999;" d="M189.839,66.502c-2.942-2.045-5.423-3.691-7.612-5.144c-10.667-7.079-10.871-7.214-10.285-17.038
		c0.079-1.312-0.612-2.55-1.769-3.173c-1.157-0.623-2.57-0.518-3.623,0.27c-0.312,0.234-7.641,5.832-6.991,15
		c0.622,8.775,8.281,17.256,22.763,25.207c10.69,6.766,11.102,11.205,10.573,12.355c-0.529,1.15-0.147,2.797,0.996,3.802
		c1.429,1.257,3.588,0.419,4.246-0.07c0.237-0.176,5.799-4.394,5.682-11.649C203.715,79.454,199.011,72.873,189.839,66.502z
		 M185.838,75.86c-0.058-0.037-0.118-0.072-0.178-0.105c-15.39-8.43-19.023-15.395-19.361-19.753
		c-0.006-0.08-0.011-0.16-0.015-0.239c1.693,4.07,5.357,6.668,12.212,11.218c2.161,1.434,4.609,3.059,7.492,5.063
		c7.111,4.94,10.941,9.78,11.081,14.001C195.082,83.02,191.654,79.527,185.838,75.86z"/>
	<path style="fill:#999999;" d="M207.229,50.117c-9.02-12.299-22.539-19.938-35.28-19.938c-6.157,0-11.87,1.802-16.523,5.213
		c-14.702,10.794-15.382,34.944-1.517,53.836c9.023,12.295,22.543,19.933,35.285,19.934h0.003c6.156,0,11.871-1.803,16.526-5.214
		c7.269-5.333,11.363-13.974,11.528-24.33C217.41,69.609,213.85,59.131,207.229,50.117z M201.731,98.504
		c-3.538,2.593-7.755,3.907-12.535,3.907h-0.002c-10.633-0.001-22.069-6.583-29.845-17.177c-11.663-15.891-11.631-35.81,0.068-44.4
		c3.486-2.555,7.819-3.905,12.531-3.905c10.632,0,22.065,6.583,29.838,17.183c5.756,7.835,8.85,16.855,8.714,25.399
		C210.371,87.705,207.255,94.451,201.731,98.504z"/>
</g>
</svg>
