<?xml version="1.0" encoding="iso-8859-1"?>
<!-- Generator: Adobe Illustrator 17.1.0, SVG Export Plug-In . SVG Version: 6.00 Build 0)  -->
<!DOCTYPE svg PUBLIC "-//W3C//DTD SVG 1.1//EN" "http://www.w3.org/Graphics/SVG/1.1/DTD/svg11.dtd">
<svg version="1.1" id="Artwork" xmlns="http://www.w3.org/2000/svg" xmlns:xlink="http://www.w3.org/1999/xlink" x="0px" y="0px"
	 width="256px" height="256px" viewBox="0 0 256 256" style="enable-background:new 0 0 256 256;" xml:space="preserve">
<g>
	<path style="fill:#999999;" d="M100.029,98.145V46.391c0-1.864-1.511-3.375-3.375-3.375h-1.181V27.809
		c0-1.864-1.511-3.375-3.375-3.375h-16.2c-1.864,0-3.375,1.511-3.375,3.375v15.207h-1.181c-1.864,0-3.375,1.511-3.375,3.375v51.754
		c-0.489,1.308-3.799,4.736-6.23,7.254c-6.329,6.555-13.502,13.985-13.502,21.379v101.413c0,1.864,1.511,3.375,3.375,3.375h64.775
		c1.864,0,3.375-1.511,3.375-3.375V126.778c0-7.394-7.173-14.824-13.502-21.379C103.828,102.881,100.518,99.453,100.029,98.145z
		 M79.274,31.184h9.45v11.804h-9.45V31.184z M113.011,224.816H54.986v-74.251h34.938v47.25H64.649c-1.864,0-3.375,1.511-3.375,3.375
		c0,1.864,1.511,3.375,3.375,3.375h28.65c1.864,0,3.375-1.511,3.375-3.375v-54c0-1.864-1.511-3.375-3.375-3.375H54.986v-17.037
		c0-4.667,6.709-11.616,11.608-16.69c5.338-5.529,8.124-8.563,8.124-11.754V49.766h18.561v48.567c0,3.191,2.786,6.225,8.124,11.754
		c4.899,5.074,11.608,12.023,11.608,16.69V224.816z"/>
	<path style="fill:#999999;" d="M194.261,105.399c-2.431-2.518-5.741-5.946-6.23-7.254V46.391c0-1.864-1.511-3.375-3.375-3.375
		h-1.18V27.809c0-1.864-1.511-3.375-3.375-3.375h-16.2c-1.864,0-3.375,1.511-3.375,3.375v15.207h-1.18
		c-1.864,0-3.375,1.511-3.375,3.375v51.754c-0.489,1.308-3.799,4.736-6.23,7.254c-6.329,6.555-13.503,13.985-13.503,21.379v101.413
		c0,1.864,1.511,3.375,3.375,3.375h64.775c1.864,0,3.375-1.511,3.375-3.375V126.778C207.764,119.385,200.59,111.955,194.261,105.399
		z M167.276,31.184h9.45v11.804h-9.45V31.184z M201.014,224.816h-58.025v-74.251h34.938v47.25h-25.275
		c-1.864,0-3.375,1.511-3.375,3.375c0,1.864,1.511,3.375,3.375,3.375h28.65c1.864,0,3.375-1.511,3.375-3.375v-54
		c0-1.864-1.511-3.375-3.375-3.375h-38.313v-17.037c0-4.667,6.71-11.616,11.609-16.69c5.338-5.529,8.124-8.563,8.124-11.754V49.766
		h18.561v48.567c0,3.191,2.786,6.225,8.124,11.754c4.899,5.074,11.609,12.023,11.609,16.69V224.816z"/>
</g>
</svg>
