<?xml version="1.0" encoding="iso-8859-1"?>
<!-- Generator: Adobe Illustrator 17.1.0, SVG Export Plug-In . SVG Version: 6.00 Build 0)  -->
<!DOCTYPE svg PUBLIC "-//W3C//DTD SVG 1.1//EN" "http://www.w3.org/Graphics/SVG/1.1/DTD/svg11.dtd">
<svg version="1.1" id="Artwork" xmlns="http://www.w3.org/2000/svg" xmlns:xlink="http://www.w3.org/1999/xlink" x="0px" y="0px"
	 width="256px" height="256px" viewBox="0 0 256 256" style="enable-background:new 0 0 256 256;" xml:space="preserve">
<path style="fill:#999999;" d="M221.643,77.352c-5.838-9.448-16.421-22.934-33.688-33.525
	c-17.148-10.519-37.017-15.852-59.055-15.852c-0.312,0-1.488,0-1.8,0c-22.038,0-41.906,5.333-59.055,15.852
	C50.778,54.418,40.195,67.904,34.357,77.352c-9.128,14.773-13.209,30.578-9.705,37.582c1.315,2.63,4.908,5.418,22.151,7.986
	c9.847,1.467,22.978,2.659,38.192,3.472c-5.144,14.173-8.49,27.331-9.957,39.168c-2.303,18.589,0.19,33.337,7.41,43.835
	c8.501,12.362,23.345,18.629,44.118,18.629c0.514,0,2.357,0,2.871,0c20.773,0,35.617-6.268,44.118-18.629
	c7.22-10.498,9.713-25.246,7.41-43.835c-1.467-11.837-4.813-24.995-9.957-39.168c15.213-0.813,28.344-2.005,38.192-3.472
	c17.243-2.569,20.836-5.356,22.15-7.986C234.852,107.931,230.771,92.125,221.643,77.352z M225.373,111.784
	c-2.024,1.964-16.851,6.096-59.3,8.098c-1.082,0.051-2.074,0.618-2.666,1.525c-0.592,0.907-0.714,2.043-0.326,3.054
	c8.11,21.166,19.533,59.848,4.911,81.109c-7.166,10.421-20.139,15.704-38.556,15.704c-0.514,0-2.357,0-2.871,0
	c-18.418,0-31.39-5.284-38.556-15.704c-14.153-20.58-3.905-57.48,4.121-79.019c10.19,0.378,20.983,0.574,31.767,0.574
	c3.189,0,6.377-0.017,9.547-0.051c1.864-0.02,3.359-1.547,3.339-3.411c-0.02-1.852-1.527-3.339-3.374-3.339
	c-0.012,0-0.025,0-0.037,0c-42.312,1.725-97.887-4.8-102.744-8.541c-1.714-3.823,0.59-16.507,9.473-30.884
	c8.578-13.883,34.228-46.175,87.001-46.175c0.312,0,1.488,0,1.8,0c52.773,0,78.422,32.292,87.001,46.175
	C224.783,95.276,227.087,107.958,225.373,111.784z"/>
</svg>
